<?xml version="1.0" encoding="UTF-8" standalone="no"?>
<!-- Creator: CorelDRAW -->

<svg
   xmlns:dc="http://purl.org/dc/elements/1.1/"
   xmlns:cc="http://creativecommons.org/ns#"
   xmlns:rdf="http://www.w3.org/1999/02/22-rdf-syntax-ns#"
   xmlns:svg="http://www.w3.org/2000/svg"
   xmlns="http://www.w3.org/2000/svg"
   xmlns:xlink="http://www.w3.org/1999/xlink"
   xmlns:sodipodi="http://sodipodi.sourceforge.net/DTD/sodipodi-0.dtd"
   xmlns:inkscape="http://www.inkscape.org/namespaces/inkscape"
   xml:space="preserve"
   width="279.4mm"
   height="215.9mm"
   style="shape-rendering:geometricPrecision; text-rendering:geometricPrecision; image-rendering:optimizeQuality; fill-rule:evenodd; clip-rule:evenodd"
   viewBox="0 0 279.4 215.9"
   id="svg2"
   version="1.1"
   inkscape:version="0.91 r13725"
   sodipodi:docname="X-3.svg"><metadata
   id="metadata475"><rdf:RDF><cc:Work
       rdf:about=""><dc:format>image/svg+xml</dc:format><dc:type
         rdf:resource="http://purl.org/dc/dcmitype/StillImage" /><dc:title></dc:title></cc:Work></rdf:RDF></metadata><sodipodi:namedview
   pagecolor="#ffffff"
   bordercolor="#666666"
   borderopacity="1"
   objecttolerance="10"
   gridtolerance="10"
   guidetolerance="10"
   inkscape:pageopacity="0"
   inkscape:pageshadow="2"
   inkscape:window-width="1280"
   inkscape:window-height="744"
   id="namedview473"
   showgrid="false"
   inkscape:zoom="1.149175"
   inkscape:cx="495.00016"
   inkscape:cy="382.49965"
   inkscape:window-x="-4"
   inkscape:window-y="-4"
   inkscape:window-maximized="1"
   inkscape:current-layer="svg2" />
 <defs
   id="defs4">
  <style
   type="text/css"
   id="style6">
   <![CDATA[
    .str7 {stroke:gray;stroke-width:0.0762}
    .str0 {stroke:black;stroke-width:0.0287}
    .str4 {stroke:#666666;stroke-width:0.0287}
    .str6 {stroke:gray;stroke-width:0.0287;stroke-opacity:0.501961}
    .str1 {stroke:gray;stroke-width:0.0287}
    .str8 {stroke:#999999;stroke-width:0.0287}
    .str11 {stroke:black;stroke-width:0.0753}
    .str12 {stroke:#1A1A1A;stroke-width:0.0753}
    .str2 {stroke:#666666;stroke-width:0.0753}
    .str5 {stroke:gray;stroke-width:0.0753}
    .str13 {stroke:#9999FF;stroke-width:0.0753}
    .str9 {stroke:black;stroke-width:0.0941}
    .str10 {stroke:#1A1A1A;stroke-width:0.0941}
    .str3 {stroke:#666666;stroke-width:0.0941}
    .fil8 {fill:none}
    .fil31 {fill:none;fill-rule:nonzero}
    .fil7 {fill:black}
    .fil1 {fill:#1A1A1A}
    .fil3 {fill:#663300}
    .fil17 {fill:#990000}
    .fil0 {fill:#999999}
    .fil2 {fill:#B3B3B3}
    .fil22 {fill:#CCCCCC}
    .fil9 {fill:#E6E6E6}
    .fil32 {fill:#FFCC00}
    .fil10 {fill:white}
    .fil14 {fill:black;fill-rule:nonzero}
    .fil25 {fill:#666666;fill-rule:nonzero}
    .fil21 {fill:gray;fill-rule:nonzero}
    .fil18 {fill:white;fill-rule:nonzero}
    .fil15 {fill:#00CCFF;fill-opacity:0.501961}
    .fil16 {fill:gray;fill-rule:nonzero;fill-opacity:0.501961}
    .fil33 {fill:url(#id0)}
    .fil20 {fill:url(#id1)}
    .fil36 {fill:url(#id2)}
    .fil12 {fill:url(#id3)}
    .fil29 {fill:url(#id4)}
    .fil35 {fill:url(#id5)}
    .fil24 {fill:url(#id6)}
    .fil23 {fill:url(#id7)}
    .fil37 {fill:url(#id8)}
    .fil19 {fill:url(#id9)}
    .fil13 {fill:url(#id10)}
    .fil34 {fill:url(#id11)}
    .fil30 {fill:url(#id12)}
    .fil38 {fill:url(#id13)}
    .fil11 {fill:url(#id14)}
    .fil6 {fill:url(#id15)}
    .fil28 {fill:url(#id16)}
    .fil5 {fill:url(#id17)}
    .fil27 {fill:url(#id18)}
    .fil4 {fill:url(#id19)}
    .fil26 {fill:url(#id20)}
   ]]>
  </style>
  <linearGradient
   id="id0"
   gradientUnits="userSpaceOnUse"
   x1="258.69"
   y1="101.003"
   x2="260.259"
   y2="101.735">
   <stop
   offset="0"
   style="stop-color:#373435"
   id="stop9" />
   <stop
   offset="0.0588235"
   style="stop-color:#626767"
   id="stop11" />
   <stop
   offset="0.121569"
   style="stop-color:#B5B1B4"
   id="stop13" />
   <stop
   offset="0.188235"
   style="stop-color:#E5E5E5"
   id="stop15" />
   <stop
   offset="0.239216"
   style="stop-color:white"
   id="stop17" />
   <stop
   offset="0.4"
   style="stop-color:#C8CECB"
   id="stop19" />
   <stop
   offset="0.619608"
   style="stop-color:#9F9A9E"
   id="stop21" />
   <stop
   offset="0.780392"
   style="stop-color:#666467"
   id="stop23" />
   <stop
   offset="1"
   style="stop-color:#373435"
   id="stop25" />
  </linearGradient>
  <linearGradient
   id="id1"
   gradientUnits="userSpaceOnUse"
   xlink:href="#id0"
   x1="220.065"
   y1="115.114"
   x2="223.786"
   y2="115.114">
  </linearGradient>
  <linearGradient
   id="id2"
   gradientUnits="userSpaceOnUse"
   xlink:href="#id0"
   x1="180.457"
   y1="120.934"
   x2="180.457"
   y2="118.651">
  </linearGradient>
  <linearGradient
   id="id3"
   gradientUnits="userSpaceOnUse"
   xlink:href="#id0"
   x1="250.616"
   y1="118.107"
   x2="250.616"
   y2="102.692">
  </linearGradient>
  <linearGradient
   id="id4"
   gradientUnits="userSpaceOnUse"
   xlink:href="#id0"
   x1="180.838"
   y1="119.961"
   x2="180.838"
   y2="116.99">
  </linearGradient>
  <linearGradient
   id="id5"
   gradientUnits="userSpaceOnUse"
   xlink:href="#id0"
   x1="258.919"
   y1="103.147"
   x2="258.919"
   y2="101.553">
  </linearGradient>
  <linearGradient
   id="id6"
   gradientUnits="userSpaceOnUse"
   xlink:href="#id0"
   x1="225.768"
   y1="112.236"
   x2="225.768"
   y2="110.399">
  </linearGradient>
  <linearGradient
   id="id7"
   gradientUnits="userSpaceOnUse"
   xlink:href="#id0"
   x1="230.769"
   y1="110.399"
   x2="230.769"
   y2="106.396">
  </linearGradient>
  <linearGradient
   id="id8"
   gradientUnits="userSpaceOnUse"
   xlink:href="#id0"
   x1="183.149"
   y1="121.092"
   x2="183.149"
   y2="118.917">
  </linearGradient>
  <linearGradient
   id="id9"
   gradientUnits="userSpaceOnUse"
   x1="171.076"
   y1="123.789"
   x2="171.076"
   y2="101.889">
   <stop
   offset="0"
   style="stop-color:white"
   id="stop36" />
   <stop
   offset="0.678431"
   style="stop-color:white"
   id="stop38" />
   <stop
   offset="0.8"
   style="stop-color:#E6E6E6"
   id="stop40" />
   <stop
   offset="0.921569"
   style="stop-color:white"
   id="stop42" />
   <stop
   offset="1"
   style="stop-color:#FEFEFE"
   id="stop44" />
  </linearGradient>
  <linearGradient
   id="id10"
   gradientUnits="userSpaceOnUse"
   x1="227.489"
   y1="110.393"
   x2="227.489"
   y2="118.114">
   <stop
   offset="0"
   style="stop-color:#373435"
   id="stop47" />
   <stop
   offset="0.0588235"
   style="stop-color:#626767"
   id="stop49" />
   <stop
   offset="0.121569"
   style="stop-color:#B5B1B4"
   id="stop51" />
   <stop
   offset="0.188235"
   style="stop-color:#CCCCCC"
   id="stop53" />
   <stop
   offset="0.239216"
   style="stop-color:#E6E6E6"
   id="stop55" />
   <stop
   offset="0.4"
   style="stop-color:#999999"
   id="stop57" />
   <stop
   offset="0.619608"
   style="stop-color:gray"
   id="stop59" />
   <stop
   offset="0.780392"
   style="stop-color:#4D4D4D"
   id="stop61" />
   <stop
   offset="1"
   style="stop-color:#373435"
   id="stop63" />
  </linearGradient>
  <linearGradient
   id="id11"
   gradientUnits="userSpaceOnUse"
   xlink:href="#id0"
   x1="258.661"
   y1="103.455"
   x2="260.089"
   y2="102.935">
  </linearGradient>
  <linearGradient
   id="id12"
   gradientUnits="userSpaceOnUse"
   x1="206.646"
   y1="119.986"
   x2="206.739"
   y2="120.827">
   <stop
   offset="0"
   style="stop-color:white"
   id="stop67" />
   <stop
   offset="1"
   style="stop-color:#CCCCCC"
   id="stop69" />
  </linearGradient>
  <linearGradient
   id="id13"
   gradientUnits="userSpaceOnUse"
   x1="144.755"
   y1="108.829"
   x2="144.937"
   y2="109.452">
   <stop
   offset="0"
   style="stop-color:#666666"
   id="stop72" />
   <stop
   offset="0.270588"
   style="stop-color:#B2B2B2"
   id="stop74" />
   <stop
   offset="1"
   style="stop-color:#FEFEFE"
   id="stop76" />
  </linearGradient>
  <linearGradient
   id="id14"
   gradientUnits="userSpaceOnUse"
   x1="161.614"
   y1="117.68818"
   x2="161.614"
   y2="125.44927">
   <stop
   offset="0"
   style="stop-color:white"
   id="stop79" />
   <stop
   offset="1"
   style="stop-color:#E6E6E6"
   id="stop81" />
  </linearGradient>
  <radialGradient
   id="id15"
   gradientUnits="userSpaceOnUse"
   cx="91.6545"
   cy="132.586"
   r="9.6573"
   fx="91.6545"
   fy="132.586">
   <stop
   offset="0"
   style="stop-color:#E6E6E6"
   id="stop84" />
   <stop
   offset="0.501961"
   style="stop-color:#999999"
   id="stop86" />
   <stop
   offset="1"
   style="stop-color:#B3B3B3"
   id="stop88" />
  </radialGradient>
  <radialGradient
   id="id16"
   gradientUnits="userSpaceOnUse"
   xlink:href="#id15"
   cx="169.573"
   cy="131.092"
   r="13.3615"
   fx="169.573"
   fy="131.092">
  </radialGradient>
  <radialGradient
   id="id17"
   gradientUnits="userSpaceOnUse"
   cx="91.6545"
   cy="132.586"
   r="9.6573"
   fx="91.6545"
   fy="132.586">
   <stop
   offset="0"
   style="stop-color:#848688"
   id="stop92" />
   <stop
   offset="0.25098"
   style="stop-color:#FEFEFE"
   id="stop94" />
   <stop
   offset="0.501961"
   style="stop-color:#848688"
   id="stop96" />
   <stop
   offset="0.74902"
   style="stop-color:#FEFEFE"
   id="stop98" />
   <stop
   offset="1"
   style="stop-color:#848688"
   id="stop100" />
  </radialGradient>
  <radialGradient
   id="id18"
   gradientUnits="userSpaceOnUse"
   xlink:href="#id17"
   cx="169.573"
   cy="131.092"
   r="13.3615"
   fx="169.573"
   fy="131.092">
  </radialGradient>
  <radialGradient
   id="id19"
   gradientUnits="userSpaceOnUse"
   cx="91.6545"
   cy="132.586"
   r="9.6573"
   fx="91.6545"
   fy="132.586">
   <stop
   offset="0"
   style="stop-color:black"
   id="stop104" />
   <stop
   offset="0.439216"
   style="stop-color:black"
   id="stop106" />
   <stop
   offset="0.54902"
   style="stop-color:#4D4D4D"
   id="stop108" />
   <stop
   offset="0.670588"
   style="stop-color:black"
   id="stop110" />
   <stop
   offset="1"
   style="stop-color:black"
   id="stop112" />
  </radialGradient>
  <radialGradient
   id="id20"
   gradientUnits="userSpaceOnUse"
   xlink:href="#id19"
   cx="169.573"
   cy="131.092"
   r="13.3615"
   fx="169.573"
   fy="131.092">
  </radialGradient>
 <radialGradient
   inkscape:collect="always"
   xlink:href="#id19"
   id="radialGradient4603"
   gradientUnits="userSpaceOnUse"
   cx="91.6545"
   cy="132.586"
   fx="91.6545"
   fy="132.586"
   r="9.6573" /><radialGradient
   inkscape:collect="always"
   xlink:href="#id17"
   id="radialGradient4605"
   gradientUnits="userSpaceOnUse"
   cx="91.6545"
   cy="132.586"
   fx="91.6545"
   fy="132.586"
   r="9.6573" /><radialGradient
   inkscape:collect="always"
   xlink:href="#id15"
   id="radialGradient4607"
   gradientUnits="userSpaceOnUse"
   cx="91.6545"
   cy="132.586"
   fx="91.6545"
   fy="132.586"
   r="9.6573" /><linearGradient
   inkscape:collect="always"
   xlink:href="#id0"
   id="linearGradient4609"
   gradientUnits="userSpaceOnUse"
   x1="258.69"
   y1="101.003"
   x2="260.259"
   y2="101.735" />
  
  
  
  
  
  
  
  
  
  
  
  
  
  
  
  
  
  
  
  
  
  
  
  
  
  
  
  
  
  
  
  
  
  
  
  
  
  
  
  
  
  
  
  
  
  
  
  
  
  
  
  
  
  
  
  
  
  
  
  
  
  
  
  
  
  
  
  
  
  
  
  
  
  
  
  
  
  
  
  
  
  
  
  
  
  
  
  
  
  
  
  
  
  
  
  
  
  
  
  
  
  
  
  
  
  
  
  
  
  
  
  
  
  
  
  
  
  
  
  
  
  
  
  
  
  
  
  
  
  
  
  
  
  
  
  
  
  
  
 </defs>
 <polygon
   style="fill:#999999;stroke:#000000;stroke-width:0.0287"
   id="polygon117"
   points="104.345,111.417 90.3337,111.417 90.3337,107.034 104.345,107.383 "
   class="fil0 str0" /><rect
   style="fill:#1a1a1a;stroke:#000000;stroke-width:0.0287"
   id="rect119"
   height="0.69726199"
   width="0.36525199"
   y="106.868"
   x="104.063"
   class="fil1 str0" /><polygon
   style="fill:#b3b3b3;stroke:#000000;stroke-width:0.0287"
   id="polygon121"
   points="114.804,109.525 112.878,113.177 111.318,112.745 111.318,110.786 "
   class="fil2 str0" /><ellipse
   style="fill:#663300;stroke:#000000;stroke-width:0.01080472"
   cy="-148.6851"
   cx="52.517666"
   id="ellipse123"
   ry="0.83000594"
   rx="2.4677308"
   transform="matrix(-0.40363517,0.91492002,-0.91492002,-0.40363517,0,0)"
   class="fil3 str0" /><polygon
   style="fill:#b3b3b3;stroke:#000000;stroke-width:0.0287"
   id="polygon125"
   points="106.786,113.708 107.24,113.79 107.677,111.359 107.686,111.356 107.68,111.341 107.971,109.723 107.516,109.641 107.281,110.952 104.611,111.882 104.78,112.369 107.176,111.533 "
   class="fil2 str0" /><g
   id="_111939504">
   <circle
   style="fill:url(#radialGradient4603);stroke:#000000;stroke-width:0.0287"
   r="3.63569"
   cy="132.586"
   cx="91.654503"
   class="fil4 str0"
   id="_111624152" />
   <circle
   style="fill:url(#radialGradient4605);stroke:#000000;stroke-width:0.0287"
   r="1.95486"
   cy="132.586"
   cx="91.654503"
   class="fil5 str0"
   id="_111624056" />
   <circle
   style="fill:url(#radialGradient4607);stroke:#808080;stroke-width:0.0287"
   r="0.55427802"
   cy="132.586"
   cx="91.654503"
   class="fil6 str1"
   id="_111623888" />
   <g
   id="g131">
    <g
   id="g133">
     <path
   style="fill:#000000;stroke:#000000;stroke-width:0.0287"
   inkscape:connector-curvature="0"
   d="m 91.3432,133.916 c 0.1767,0.0454 0.3926,0.0363 0.5935,0 -0.0474,-0.2493 -0.1282,-0.4986 -0.2967,-0.6844 -0.1595,0.1661 -0.2736,0.4321 -0.2968,0.6844 z"
   class="fil7 str0"
   id="_111933744" />
     <path
   style="fill:#000000;stroke:#000000;stroke-width:0.0287"
   inkscape:connector-curvature="0"
   d="m 91.3432,131.231 c 0.1767,-0.0454 0.3926,-0.0363 0.5935,0 -0.0474,0.2494 -0.1282,0.4987 -0.2967,0.6844 -0.1595,-0.166 -0.2736,-0.432 -0.2968,-0.6844 z"
   class="fil7 str0"
   id="_111939000" />
    </g>
    <g
   id="g137">
     <path
   style="fill:#000000;stroke:#000000;stroke-width:0.0287"
   inkscape:connector-curvature="0"
   d="m 90.4807,133.313 c 0.0928,0.1571 0.252,0.3034 0.4197,0.4197 0.1428,-0.2098 0.2619,-0.4432 0.2741,-0.6938 -0.2302,0.005 -0.4989,0.1121 -0.6938,0.2741 z"
   class="fil7 str0"
   id="_111937632" />
     <path
   style="fill:#000000;stroke:#000000;stroke-width:0.0287"
   inkscape:connector-curvature="0"
   d="m 92.3795,131.415 c 0.1571,0.0928 0.3033,0.252 0.4197,0.4197 -0.2099,0.1428 -0.4433,0.2619 -0.6938,0.2741 0.0047,-0.2302 0.1121,-0.4989 0.2741,-0.6938 z"
   class="fil7 str0"
   id="_111937704" />
    </g>
    <g
   id="g141">
     <path
   style="fill:#000000;stroke:#000000;stroke-width:0.0287"
   inkscape:connector-curvature="0"
   d="m 90.2973,132.277 c -0.0454,0.1767 -0.0363,0.3927 0,0.5935 0.2493,-0.0474 0.4986,-0.1282 0.6844,-0.2967 -0.1661,-0.1595 -0.432,-0.2736 -0.6844,-0.2968 z"
   class="fil7 str0"
   id="_111937416" />
     <path
   style="fill:#000000;stroke:#000000;stroke-width:0.0287"
   inkscape:connector-curvature="0"
   d="m 92.9826,132.277 c 0.0454,0.1767 0.0363,0.3927 0,0.5935 -0.2493,-0.0474 -0.4986,-0.1282 -0.6844,-0.2967 0.1661,-0.1595 0.432,-0.2736 0.6844,-0.2968 z"
   class="fil7 str0"
   id="_111937488" />
    </g>
    <g
   id="g145">
     <path
   style="fill:#000000;stroke:#000000;stroke-width:0.0287"
   inkscape:connector-curvature="0"
   d="m 90.9004,131.415 c -0.157,0.0928 -0.3033,0.252 -0.4197,0.4197 0.2099,0.1428 0.4433,0.2619 0.6938,0.2741 -0.0047,-0.2302 -0.1121,-0.4989 -0.2741,-0.6938 z"
   class="fil7 str0"
   id="_112000072" />
     <path
   style="fill:#000000;stroke:#000000;stroke-width:0.0287"
   inkscape:connector-curvature="0"
   d="m 92.7992,133.313 c -0.0928,0.1571 -0.252,0.3034 -0.4197,0.4197 -0.1428,-0.2098 -0.2619,-0.4432 -0.2741,-0.6938 0.2302,0.005 0.4989,0.1121 0.6938,0.2741 z"
   class="fil7 str0"
   id="_111940272" />
    </g>
   </g>
  </g><polygon
   style="fill:#b3b3b3;stroke:#000000;stroke-width:0.0287"
   id="polygon149"
   points="94.7384,122.245 78.1996,121.304 77.9858,125.06 94.84,126.068 "
   class="fil2 str0" /><rect
   style="fill:#999999;stroke:#666666;stroke-width:0.02834825"
   y="-90.918015"
   x="119.71391"
   id="rect151"
   height="2.1209233"
   width="2.1923399"
   transform="matrix(-0.03029133,0.99954111,-0.99954111,-0.03029133,0,0)"
   class="fil0 str2" /><rect
   style="fill:none;stroke:#666666;stroke-width:0.0753"
   id="rect153"
   height="1.49414"
   width="1.41113"
   y="122.68"
   x="91.2239"
   class="fil8 str2" /><rect
   style="fill:none;stroke:#666666;stroke-width:0.0941"
   id="rect155"
   height="0.66405702"
   width="1.4608999"
   y="124.822"
   x="92.668198"
   class="fil8 str3" /><rect
   style="fill:#999999;stroke:#666666;stroke-width:0.0287"
   id="rect157"
   height="2.39063"
   width="0.199228"
   y="121.485"
   x="83.985703"
   class="fil0 str4" /><polygon
   style="fill:#999999;stroke:#666666;stroke-width:0.0287"
   id="polygon159"
   points="84.2513,124.307 83.9774,124.307 83.9774,124.448 83.8031,124.448 83.8031,124.307 83.637,124.307 83.637,124.091 84.2513,124.091 "
   class="fil0 str4" /><polygon
   style="fill:#999999;stroke:#666666;stroke-width:0.0287"
   id="polygon161"
   points="79.8603,121.211 80.4579,121.211 80.4579,123.386 80.3832,123.386 80.3832,123.958 79.4618,123.958 79.4618,123.253 79.8603,123.253 "
   class="fil0 str4" /><g
   id="_111998152">
   <g
   id="g164">
    <polygon
   style="fill:#e6e6e6;stroke:#000000;stroke-width:0.0287"
   points="94.6353,127.295 94.7432,127.719 92.1617,128.922 92.3456,128.121 92.3941,128.101 "
   class="fil9 str0"
   id="_111997696" />
    <g
   id="g167">
     <polygon
   style="fill:#e6e6e6;stroke:#000000;stroke-width:0.0287"
   points="94.7599,127.312 92.7677,125.021 92.5685,126 94.5441,127.661 "
   class="fil9 str0"
   id="_111939072" />
     <path
   style="fill:#e6e6e6;stroke:#000000;stroke-width:0.0287"
   inkscape:connector-curvature="0"
   d="m 91.5998,128.451 c -0.0591,1.441 -0.1432,2.882 -0.2023,4.3229 3e-4,0.3003 0.5762,0.3825 0.6484,0.0251 l 0.3188,-4.3125 -0.7649,-0.0355 z"
   class="fil9 str0"
   id="_111937056" />
     <rect
   style="fill:#e6e6e6;stroke:#000000;stroke-width:0.0287"
   y="0"
   x="0"
   height="2.5123999"
   width="15.8894"
   transform="matrix(-0.0358028,0.374765,-0.374765,-0.0358028,93.2148,122.194)"
   class="fil9 str0"
   id="_111937200" />
     <rect
   style="fill:#e6e6e6;stroke:#000000;stroke-width:0.0287"
   y="0"
   x="0"
   height="1.2101001"
   width="3.2999001"
   transform="matrix(0.374819,0.0352288,-0.0352288,0.374819,91.5566,128.046)"
   class="fil9 str0"
   id="_111937128" />
    </g>
   </g>
   <circle
   style="fill:#999999;stroke:#000000;stroke-width:0.0287"
   r="0.38181701"
   cy="127.486"
   cx="94.668404"
   class="fil0 str0"
   id="_111936984" />
  </g><path
   style="fill:#ffffff;stroke:#000000;stroke-width:0.0287"
   inkscape:connector-curvature="0"
   id="path174"
   d="M 45.7683,118.514 C 35.8116,117.6506 25.8426,116.6626 15.9357,115.6 l 0,-0.7719 c 9.8944,-1.4775 19.9133,-2.7061 29.8326,-3.8349 l 0,7.5208 z"
   class="fil10 str1" /><path
   inkscape:connector-curvature="0"
   style="fill:url(#id14);stroke:#000000;stroke-width:0.0287"
   id="path176"
   d="m 45.7683,110.993 c 14.3563,-1.6673 28.8122,-2.8364 43.4051,-3.769 6.0921,-2.9677 15.6704,-5.3377 27.241,-5.616 35.6681,-0.7078 71.3352,-1.615 107.004,-2.2728 7.8369,-0.1446 15.7841,-0.2881 23.6574,-0.3201 1.8802,0.1316 5.0344,-0.8863 6.9209,-0.7612 6.2694,0.4158 11.6569,0.9173 17.6271,1.6037 1.1878,0.1366 2.4227,0.6269 3.6658,1.0252 0.8478,0.468 1.8575,1.1601 2.1699,1.815 -0.2645,2.2591 -3.9034,3.6716 -6.6955,4.3121 -6.4142,1.578 -13.0992,2.7047 -19.7468,3.4734 l 0,0.1907 c -6.4739,1.1018 -13.2748,2.1114 -19.2563,2.71 l -0.556,-0.3503 c -0.876,0.8011 -1.7021,1.764 -2.0676,2.8888 l -1.1419,0.0206 -4.2232,2.1703 0.0131,1.4387 -3.7211,1.1308 c -14.134,2.7217 -30.1855,4.049 -45.2408,4.3552 l -17.9544,0 c -23.632,-0.3238 -40.5654,-0.635 -60.8108,-2.0171 -0.6785,-0.0897 -0.9823,-0.4417 -1.3201,-0.7699 l -16.5388,-0.9412 0.0059,0.6177 C 67.379,120.8564 56.5306,119.6766 45.768,118.5138 l 0,-7.5208 z m 44.9828,-3.7328 c 1.5137,-0.9497 5.7173,-1.8802 9.8612,-2.3408 1.6768,-0.2034 3.3784,-0.1141 5.0303,0.0249 -0.2989,2.0669 -0.5977,4.1338 -0.8965,6.2006 -2.8343,-2.995 -10.0861,-3.7525 -13.995,-3.8847 z m 15.7947,-1.7077 c -0.3238,2.0254 -0.6475,4.0508 -0.9712,6.0761 -0.004,0.743 0.4026,1.2617 0.9961,1.5191 0.5063,0.1966 1.1714,0.1473 1.7431,0.0249 3.5028,-0.7678 6.458,-2.457 7.4457,-6.0014 0.2179,-1.1434 -0.5976,-1.9694 -1.3447,-2.2163 -2.3906,-0.0332 -4.7812,-0.0664 -7.1718,-0.0996 -0.497,0.0488 -0.664,0.3777 -0.6972,0.6972 z"
   class="fil11 str1" /><path
   inkscape:connector-curvature="0"
   style="fill:url(#id3)"
   id="path178"
   d="m 223.772,118.107 4.2232,-2.1703 1.1419,-0.0206 c 0.3655,-1.1248 1.1916,-2.0877 2.0676,-2.8888 l 0.556,0.3503 c 5.9815,-0.5986 12.7824,-1.6083 19.2563,-2.71 l 0,-0.1907 c 6.6476,-0.7687 13.3326,-1.8954 19.7468,-3.4735 2.7921,-0.6404 6.431,-2.0529 6.6955,-4.312 l -1.2428,0.6167 -49.4721,3.6192 -2.9724,-0.5313 0,11.711 z"
   class="fil12" /><path
   inkscape:connector-curvature="0"
   style="fill:url(#id10)"
   id="path180"
   d="m 227.763,111.429 c -0.9598,-0.2995 -1.9612,-0.4912 -3.0041,-0.6496 -0.3242,-0.1245 -0.6621,-0.2619 -0.9863,-0.3863 l 0,7.7208 4.2232,-2.1703 1.1419,-0.0206 c 0.3655,-1.1248 1.1916,-2.0877 2.0676,-2.8888 -0.215,-0.1954 -0.4549,-0.3627 -0.7196,-0.5177 -0.9076,-0.487 -1.7571,-0.808 -2.7227,-1.0875 z"
   class="fil13" /><path
   style="fill:none;stroke:#000000;stroke-width:0.0287"
   inkscape:connector-curvature="0"
   id="path182"
   d="m 223.772,118.114 4.2232,-2.1703 1.1419,-0.0206 c 0.3655,-1.1248 1.1916,-2.0877 2.0676,-2.8888 l 0.556,0.3503 c 5.9815,-0.5986 12.7824,-1.6082 19.2563,-2.71 l 0,-0.1907 c 6.6476,-0.7687 13.3326,-1.8954 19.7468,-3.4734 2.7921,-0.6405 6.431,-2.053 6.6955,-4.3121"
   class="fil8 str0" /><path
   style="fill:#000000;stroke:#000000;stroke-width:0.0287"
   inkscape:connector-curvature="0"
   id="path184"
   d="m 157.006,125.038 17.4724,0 0,-1.885 c 0,-0.6626 -0.5422,-1.2047 -1.2047,-1.2047 l -15.7783,0 c -0.2692,0 -0.4894,0.2203 -0.4894,0.4894 l 0,2.6003 z"
   class="fil7 str0" /><path
   style="fill:#000000;fill-rule:nonzero"
   inkscape:connector-curvature="0"
   id="path186"
   d="m 209.79,104.5 0.3461,0.3377 1.0315,-0.0128 0.3376,-0.3461 -0.0253,-2.043 -0.4102,0.005 0.0243,1.8346 -0.1376,0.1418 -0.6186,0.008 -0.1385,-0.1367 -0.0227,-1.8362 -0.4119,0.005 0.0253,2.0429 z m 2.0656,-0.1243 0.4406,-0.005 0.006,0.4406 -0.4406,0.005 -0.005,-0.4406 z m 0.7946,0.0889 0.346,0.3376 1.0315,-0.0127 0.3376,-0.3461 -0.009,-0.7135 -0.3461,-0.3377 -0.8247,0.0102 -0.1385,-0.1367 -0.004,-0.3005 0.1366,-0.1417 0.617,-0.008 0.1395,0.1383 0.002,0.191 0.4102,-0.005 -0.005,-0.3977 -0.3461,-0.3376 -1.0315,0.0127 -0.3376,0.3461 0.009,0.7141 0.3461,0.3376 0.827,-0.0102 0.1395,0.1377 0.004,0.2974 -0.1377,0.1417 -0.6186,0.008 -0.1401,-0.1367 -0.002,-0.1904 -0.4102,0.005 0.005,0.3972 z m 2.0656,-0.1243 0.4405,-0.005 0.006,0.4406 -0.4406,0.005 -0.005,-0.4406 z m 1.7271,0.4192 0.6808,-2.3936 0.5122,-0.006 0.7382,2.376 -0.426,0.005 -0.1654,-0.5244 -0.763,0.01 -0.1492,0.5283 -0.4276,0.005 z m 0.6895,-0.9452 0.5274,-0.007 -0.2747,-0.8817 -0.2527,0.8882 z m 1.4601,-1.4665 0.4103,-0.005 0.0295,2.3848 -0.4102,0.005 -0.0296,-2.3847 z m 0.7925,2.3753 0.4103,-0.005 -0.0123,-0.987 0.5296,-0.007 0.3541,0.9828 0.4352,-0.005 -0.3558,-0.9827 0.3377,-0.3461 -0.009,-0.7141 -0.3461,-0.3376 -1.3733,0.017 0.0295,2.3848 z m 0.3858,-1.9797 0.7569,-0.009 0.1396,0.1366 0.004,0.3006 -0.1361,0.1401 -0.757,0.009 -0.007,-0.5774 z m 2.6846,-0.4435 1.5883,-0.0196 0.005,0.4102 -1.1779,0.0146 0.007,0.5773 0.9186,-0.0114 0.005,0.4102 -0.9186,0.0114 0.0122,0.987 -0.4102,0.005 -0.0296,-2.3848 z m 1.9663,2.0189 0.3461,0.3376 1.0315,-0.0127 0.3376,-0.3461 -0.0211,-1.7011 -0.3461,-0.3376 -1.0315,0.0127 -0.3376,0.3461 0.0211,1.7011 z m 0.3917,-1.4994 0.1366,-0.1401 0.6186,-0.008 0.1395,0.1367 0.016,1.2876 -0.1361,0.1401 -0.6186,0.008 -0.14,-0.1367 -0.016,-1.2876 z m 1.6794,1.8157 0.4102,-0.005 -0.0123,-0.987 0.5296,-0.007 0.3541,0.9828 0.4352,-0.005 -0.3558,-0.9828 0.3377,-0.3461 -0.009,-0.714 -0.346,-0.3376 -1.3734,0.017 0.0296,2.3848 z m 0.3857,-1.9797 0.757,-0.009 0.1395,0.1367 0.004,0.3006 -0.1361,0.1401 -0.757,0.009 -0.007,-0.5774 z m 1.6768,1.6122 0.3461,0.3376 1.0315,-0.0127 0.3376,-0.3461 -0.005,-0.4325 -0.4102,0.005 0.003,0.2241 -0.1361,0.1417 -0.6185,0.008 -0.1385,-0.1367 -0.0159,-1.2876 0.1366,-0.1417 0.6169,-0.008 0.1396,0.1383 0.003,0.2257 0.4102,-0.005 -0.005,-0.4324 -0.346,-0.3376 -1.0315,0.0127 -0.3376,0.3461 0.021,1.7011 z m 2.0415,-2.0685 1.5883,-0.0197 0.005,0.4102 -1.1781,0.0146 0.007,0.5774 0.9186,-0.0114 0.005,0.4102 -0.9186,0.0114 0.007,0.5768 1.178,-0.0146 0.005,0.4102 -1.5882,0.0197 -0.0296,-2.3848 z"
   class="fil14" /><rect
   style="fill:none;stroke:#808080;stroke-width:0.0287"
   id="rect188"
   height="3.5859201"
   width="25.300501"
   y="102.126"
   x="153.963"
   class="fil8 str1" /><rect
   style="fill:none;stroke:#808080;stroke-width:0.0753"
   id="rect190"
   height="5.37883"
   width="4.0341101"
   y="110.196"
   x="88.044701"
   class="fil8 str5" /><path
   style="fill:#ffffff;stroke:#000000;stroke-width:0.0287"
   inkscape:connector-curvature="0"
   id="path192"
   d="m 247.076,99.0153 c 9.4544,0.3736 19.1579,0.5479 28.2138,1.8677 -0.613,-0.4235 -0.9894,-1.1458 -1.2414,-1.9801 l 2.661,-18.564 c -2.9413,-0.6843 -5.8951,-0.8206 -8.8613,-0.4839 -0.5864,0.0832 -1.0235,0.3827 -1.4232,0.8076 L 247.076,99.0153 Z"
   class="fil10 str0" /><path
   style="fill:none;stroke:#808080;stroke-width:0.0287"
   inkscape:connector-curvature="0"
   id="path194"
   d="m 123.235,115.726 c -2.0212,-0.4175 -4.0424,-0.835 -6.0636,-1.2524 -0.1219,-0.0343 -0.1271,-0.2163 -0.0248,-0.2988 0.2606,-0.192 0.4475,-0.3688 0.6474,-0.5728 l -1.4941,-9.1142 c -0.2055,-0.2697 -0.4545,-0.5053 -0.7471,-0.6972 l 8.6208,-0.3409 -0.9386,12.2763 z"
   class="fil8 str1" /><path
   style="fill:#ffffff;stroke:#808080;stroke-width:0.0287"
   inkscape:connector-curvature="0"
   id="path196"
   d="m 106.546,105.553 c -0.3238,2.0254 -0.6475,4.0508 -0.9712,6.0761 -0.004,0.743 0.4026,1.2617 0.9961,1.5191 0.5063,0.1966 1.1714,0.1473 1.7431,0.0249 3.5028,-0.7678 6.458,-2.457 7.4457,-6.0014 0.2179,-1.1434 -0.5976,-1.9694 -1.3447,-2.2163 -2.3906,-0.0332 -4.7812,-0.0664 -7.1718,-0.0996 -0.497,0.0488 -0.664,0.3777 -0.6972,0.6972 z m 0.2438,0.2071 c -0.3047,1.9061 -0.6094,3.8121 -0.914,5.7182 -0.004,0.6992 0.3788,1.1874 0.9374,1.4296 0.4765,0.185 1.1024,0.1386 1.6405,0.0234 3.2965,-0.7226 6.0775,-2.3123 7.0071,-5.6479 0.2051,-1.0761 -0.5624,-1.8534 -1.2654,-2.0858 -2.2498,-0.0312 -4.4997,-0.0625 -6.7495,-0.0937 -0.4677,0.0459 -0.6249,0.3554 -0.6561,0.6562 z"
   class="fil10 str1" /><path
   style="fill:#00ccff;fill-opacity:0.5019609;stroke:#808080;stroke-width:0.0287;stroke-opacity:0.5019609"
   inkscape:connector-curvature="0"
   id="path198"
   d="m 106.79,105.76 c -0.3047,1.9062 -0.6093,3.8122 -0.914,5.7183 -0.004,0.6991 0.3787,1.1874 0.9373,1.4296 0.4767,0.1849 1.1024,0.1386 1.6406,0.0234 3.2965,-0.7226 6.0775,-2.3123 7.0071,-5.648 0.2051,-1.076 -0.5624,-1.8533 -1.2655,-2.0857 -2.2498,-0.0312 -4.4996,-0.0625 -6.7494,-0.0937 -0.4677,0.0459 -0.6249,0.3555 -0.6561,0.6561 z"
   class="fil15 str6" /><path
   style="fill:#ffffff;stroke:#808080;stroke-width:0.0287"
   inkscape:connector-curvature="0"
   id="path200"
   d="m 90.7511,107.26 c 1.5137,-0.9497 5.7173,-1.8802 9.8612,-2.3408 1.6768,-0.2034 3.3784,-0.1141 5.0303,0.0249 -0.2989,2.0669 -0.5977,4.1338 -0.8965,6.2006 -2.8343,-2.995 -10.0861,-3.7525 -13.995,-3.8847 z m 0.3115,-0.0517 c 1.4504,-0.8474 5.4781,-1.6776 9.4487,-2.0886 1.6066,-0.1814 3.237,-0.1018 4.8197,0.0223 -0.2863,1.8441 -0.5726,3.6882 -0.859,5.5323 -2.7156,-2.6722 -9.664,-3.3481 -13.4094,-3.466 z"
   class="fil10 str1" /><g
   id="g202">
   <path
   style="fill:#00ccff;fill-opacity:0.5019609"
   inkscape:connector-curvature="0"
   id="path204"
   d="m 91.0627,107.209 c 1.4503,-0.8473 5.478,-1.6776 9.4486,-2.0885 1.6065,-0.1816 3.237,-0.1019 4.8198,0.0221 -0.2865,1.8442 -0.5728,3.6883 -0.8591,5.5324 -2.7155,-2.6722 -9.664,-3.3479 -13.4093,-3.466 z"
   class="fil15" />
   <path
   style="fill:#808080;fill-opacity:0.5019609;fill-rule:nonzero"
   inkscape:connector-curvature="0"
   d="m 100.51,105.106 0.003,0.0286 -1e-4,0 -0.3722,0.0397 -0.3721,0.0421 -0.3716,0.0444 -0.3703,0.0467 -0.3688,0.0488 -0.3666,0.0509 -0.3641,0.0529 -0.3611,0.0549 -0.3575,0.0568 -0.3536,0.0584 -0.349,0.0603 -0.3441,0.0619 -0.3386,0.0635 -0.3327,0.0649 -0.3263,0.0663 -0.3193,0.0678 -0.3119,0.069 -0.3041,0.0703 -0.2958,0.0712 -0.2868,0.0725 -0.2776,0.0733 -0.2677,0.0743 -0.2575,0.0751 -0.2467,0.0759 -0.2354,0.0765 -0.2236,0.0771 -0.2114,0.0777 -0.1988,0.0781 -0.1854,0.0785 -0.1718,0.0787 -0.1576,0.079 -0.1429,0.0791 -0.0144,-0.0248 0.1439,-0.0797 0.1586,-0.0794 0.1726,-0.0791 0.1862,-0.0789 0.1994,-0.0783 0.212,-0.0779 0.2242,-0.0773 0.2358,-0.0767 0.2471,-0.0759 0.2579,-0.0753 0.2681,-0.0743 0.2778,-0.0735 0.2872,-0.0725 0.296,-0.0714 0.3043,-0.0703 0.3123,-0.069 0.3195,-0.0678 0.3265,-0.0665 0.3329,-0.0649 0.3388,-0.0635 0.3443,-0.0619 0.3492,-0.0603 0.3538,-0.0586 0.3577,-0.0568 0.3613,-0.0549 0.3643,-0.0529 0.3668,-0.0509 0.369,-0.0488 0.3705,-0.0467 0.3716,-0.0444 0.3723,-0.0423 0.3724,-0.0397 -1e-4,0 z m 0.003,0.0286 -1e-4,0 0.001,-1e-4 -0.001,1e-4 z m 4.8324,0.01 -0.0284,-0.004 0.0131,0.0165 -0.1485,-0.0115 -0.1488,-0.0112 -0.149,-0.0108 -0.1492,-0.0105 -0.1495,-0.0101 -0.1497,-0.009 -0.1498,-0.009 -0.1501,-0.009 -0.1502,-0.008 -0.1505,-0.007 -0.1505,-0.007 -0.1506,-0.006 -0.1508,-0.005 -0.1509,-0.005 -0.151,-0.004 -0.151,-0.003 -0.1511,-0.002 -0.1512,-10e-4 -0.1513,0 -0.1512,10e-4 -0.1513,0.002 -0.1512,0.003 -0.1512,0.004 -0.1512,0.005 -0.1512,0.007 -0.1512,0.008 -0.1511,0.009 -0.1509,0.0105 -0.1509,0.0119 -0.1508,0.0134 -0.1506,0.0147 -0.1506,0.0163 -0.003,-0.0286 0.1508,-0.0163 0.151,-0.0147 0.151,-0.0134 0.1511,-0.0119 0.1513,-0.0105 0.1513,-0.009 0.1514,-0.008 0.1514,-0.007 0.1514,-0.005 0.1514,-0.004 0.1516,-0.003 0.1515,-0.002 0.1514,-0.001 0.1513,0 0.1514,0.001 0.1513,0.002 0.1512,0.003 0.1512,0.004 0.1511,0.004 0.1508,0.005 0.1508,0.006 0.1507,0.007 0.1505,0.007 0.1504,0.008 0.1501,0.009 0.15,0.009 0.1497,0.01 0.1497,0.0101 0.1492,0.0105 0.1492,0.0108 0.1488,0.0112 0.1485,0.0115 0.0131,0.0165 z m -0.0131,-0.0165 0.0155,10e-4 -0.002,0.0153 -0.0131,-0.0165 z m -0.8702,5.5569 0.02,-0.0204 -0.0242,0.008 0.0268,-0.1729 0.0269,-0.1729 0.0268,-0.1729 0.0269,-0.1728 0.0268,-0.1729 0.0268,-0.1729 0.0269,-0.1729 0.0268,-0.1729 0.0269,-0.1729 0.0268,-0.1728 0.0269,-0.1729 0.0268,-0.1729 0.0268,-0.1729 0.0269,-0.1729 0.0268,-0.1729 0.0269,-0.1729 0.0268,-0.1728 0.0269,-0.1729 0.0268,-0.1729 0.0269,-0.1729 0.0268,-0.1729 0.0269,-0.1729 0.0268,-0.1729 0.0269,-0.1729 0.0268,-0.1729 0.0269,-0.1728 0.0268,-0.1729 0.0269,-0.1729 0.0268,-0.1729 0.0269,-0.1729 0.0268,-0.1729 0.0269,-0.1729 0.0284,0.004 -0.0269,0.1729 -0.0268,0.1729 -0.0269,0.1729 -0.0268,0.1729 -0.0269,0.1729 -0.0268,0.1729 -0.0269,0.1728 -0.0268,0.1729 -0.0269,0.1729 -0.0268,0.1729 -0.0269,0.1729 -0.0268,0.1729 -0.0269,0.1729 -0.0268,0.1729 -0.0269,0.1729 -0.0268,0.1728 -0.0269,0.1729 -0.0268,0.1729 -0.0269,0.1729 -0.0268,0.1729 -0.0268,0.1729 -0.0269,0.1729 -0.0268,0.1728 -0.0269,0.1729 -0.0268,0.1729 -0.0269,0.1729 -0.0268,0.1729 -0.0268,0.1729 -0.0269,0.1728 -0.0268,0.1729 -0.0269,0.1729 -0.0268,0.1729 -0.0242,0.008 z m 0.0242,-0.008 -0.004,0.0276 -0.0199,-0.0196 0.0242,-0.008 z m -13.4307,-3.4806 0.0144,0.0248 -0.0067,-0.0267 0.3604,0.0127 0.3778,0.0163 0.3938,0.0201 0.4085,0.0241 0.4219,0.0285 0.4339,0.033 0.4443,0.0379 0.4537,0.043 0.4616,0.0484 0.468,0.0541 0.4733,0.0599 0.4771,0.0661 0.4794,0.0725 0.4805,0.0793 0.4803,0.0861 0.4787,0.0934 0.4756,0.101 0.4712,0.1087 0.4656,0.1166 0.4585,0.125 0.45,0.1335 0.4403,0.1423 0.4291,0.1514 0.4166,0.1608 0.4026,0.1704 0.3875,0.1803 0.3708,0.1904 0.353,0.2009 0.3336,0.2116 0.3129,0.2226 0.2908,0.2338 0.2675,0.2454 -0.02,0.0204 -0.2661,-0.244 -0.2894,-0.2328 -0.3117,-0.2216 -0.3324,-0.2108 -0.3518,-0.2003 -0.3698,-0.1898 -0.3865,-0.1799 -0.4018,-0.17 -0.4158,-0.1604 -0.4283,-0.1512 -0.4395,-0.1421 -0.4494,-0.1333 -0.4579,-0.1248 -0.465,-0.1166 -0.4708,-0.1085 -0.4752,-0.1008 -0.4781,-0.0934 -0.4799,-0.0861 -0.4801,-0.0791 -0.4792,-0.0725 -0.4767,-0.0661 -0.4729,-0.0599 -0.4678,-0.0539 -0.4612,-0.0484 -0.4535,-0.043 -0.4441,-0.0379 -0.4335,-0.033 -0.4217,-0.0285 -0.4083,-0.0241 -0.3936,-0.0201 -0.3776,-0.0163 -0.3602,-0.0127 -0.0067,-0.0267 z m 0.0067,0.0267 -0.0497,-0.002 0.043,-0.0251 0.0067,0.0267 z"
   class="fil16"
   id="1" />
  </g><path
   style="fill:#990000"
   inkscape:connector-curvature="0"
   id="path207"
   d="m 98.9388,110.902 c 0.1371,0.3833 0.8151,0.9331 1.7183,1.5128 -0.6993,0.222 -1.4174,0.2885 -2.1323,0.2957 0.1639,0.2283 0.3985,0.4059 0.9431,0.4221 0.3248,0.008 0.4909,-0.1254 0.9651,-0.0703 1.1755,0.1684 3.9026,1.1758 5.827,1.9672 0.8467,0.2615 1.7432,0.2179 2.6148,0.1494 0.0414,0.1661 0.083,0.332 0.1245,0.4981 0.5976,-0.2657 1.1952,-0.5313 1.7929,-0.7969 -0.7388,-0.4482 -1.4775,-0.8965 -2.2163,-1.3447 0.0498,0.2573 0.0903,0.4666 0.1401,0.724 -0.8259,0.0768 -1.711,0.0895 -2.4311,-0.226 -1.3388,-0.7301 -2.7819,-1.4466 -4.3578,-1.9174 -0.9816,-0.2773 -2.1873,-0.7795 -2.9883,-1.214 z"
   class="fil17" /><path
   style="fill:#ffffff;fill-rule:nonzero"
   inkscape:connector-curvature="0"
   id="path209"
   d="m 102.034,113.228 0.1286,0.0513 0.1235,-0.3094 0.166,0.0662 -0.0163,0.3522 0.1364,0.0544 0.0158,-0.3524 0.1499,-0.0644 0.0893,-0.2238 -0.0644,-0.1499 -0.4305,-0.1718 -0.2983,0.7476 z m 0.3756,-0.5677 0.2372,0.0947 0.0259,0.0606 -0.0375,0.0942 -0.0606,0.0262 -0.2372,-0.0947 0.0722,-0.181 z m 0.5706,0.0786 0.4978,0.1986 -0.0513,0.1286 -0.3692,-0.1473 -0.0722,0.181 0.2879,0.1148 -0.0513,0.1286 -0.2879,-0.1149 -0.0722,0.1809 0.3693,0.1473 -0.0513,0.1286 -0.4979,-0.1986 0.2983,-0.7476 z m 0.3529,0.8831 0.0645,0.1499 0.3233,0.129 0.1499,-0.0644 0.0892,-0.2237 -0.0644,-0.1499 -0.2585,-0.1031 -0.0256,-0.0605 0.0376,-0.0942 0.0609,-0.0266 0.1934,0.0771 0.0257,0.0611 -0.0239,0.0599 0.1286,0.0513 0.0497,-0.1247 -0.0644,-0.1499 -0.3233,-0.129 -0.1499,0.0644 -0.0893,0.2239 0.0644,0.1499 0.2592,0.1034 0.0258,0.061 -0.0372,0.0932 -0.0612,0.0264 -0.1939,-0.0773 -0.0261,-0.0607 0.0238,-0.0597 -0.1286,-0.0513 -0.0497,0.1245 z m 0.6479,0.2584 0.0644,0.15 0.3234,0.1289 0.1499,-0.0644 0.0541,-0.1355 -0.1286,-0.0513 -0.028,0.0702 -0.0607,0.0267 -0.1939,-0.0774 -0.0256,-0.0605 0.161,-0.4036 0.0609,-0.0266 0.1934,0.0772 0.0257,0.0611 -0.0282,0.0707 0.1286,0.0513 0.054,-0.1355 -0.0644,-0.1499 -0.3233,-0.129 -0.1499,0.0644 -0.2128,0.5332 z m 0.6479,0.2585 0.0644,0.1499 0.3234,0.129 0.1499,-0.0644 0.2555,-0.6404 -0.1286,-0.0513 -0.2289,0.5753 -0.0612,0.0264 -0.1939,-0.0773 -0.0256,-0.0605 0.2296,-0.5756 -0.1291,-0.0515 -0.2555,0.6404 z m 0.9034,-0.382 0.4979,0.1986 -0.0513,0.1286 -0.3693,-0.1473 -0.0722,0.181 0.288,0.1149 -0.0513,0.1286 -0.288,-0.1149 -0.0721,0.1808 0.3693,0.1473 -0.0513,0.1286 -0.4979,-0.1986 0.2982,-0.7476 z"
   class="fil18" /><circle
   style="fill:none;stroke:#808080;stroke-width:0.0753"
   id="circle211"
   r="0.61010897"
   cy="114.934"
   cx="111.962"
   class="fil8 str5" /><path
   style="fill:#990000"
   inkscape:connector-curvature="0"
   id="path213"
   d="m 69.4543,113.191 c -1.5252,1.7037 -2.8513,3.5818 -4.1835,5.4287 -0.11,-0.2304 -0.1142,-0.4607 -0.0498,-0.7471 1.0417,-1.9008 2.1271,-3.5029 3.3866,-5.1796 -0.8072,-0.7139 -1.5584,-0.8426 -2.9633,0.0249 -0.0747,-0.137 -0.0576,-0.3176 0,-0.523 0.3258,-0.7719 0.9193,-1.5376 1.5937,-1.6435 0.8757,-0.0788 1.4775,0.6703 1.9922,1.2202 0.2781,-0.8052 1.0044,-1.4111 1.6933,-1.7431 0.635,-0.1204 1.2016,-0.0789 1.7183,-0.025 0.1587,0.0353 0.2397,0.0924 0.2241,0.1993 -0.2511,0.5437 -0.5458,1.0313 -0.9961,1.3696 -0.524,0.3362 -1.0884,0.5043 -1.6186,0.5229 -0.1541,0.0348 -0.1837,0.2159 -0.0747,0.3238 1.2451,1.0749 2.3283,2.3117 2.8388,3.6357 -0.0315,0.081 -0.1123,0.0463 -0.1414,0.0128 -1.0901,-1.2567 -2.1738,-2.3732 -3.4196,-2.8766 z"
   class="fil17" /><path
   style="fill:#990000"
   inkscape:connector-curvature="0"
   id="path215"
   d="m 74.1608,112.967 c 0.2055,-0.2054 0.3611,-0.5416 0.4482,-0.8218 -0.8653,0.0187 -1.768,0.1246 -2.6147,0.2989 0.6724,0.2428 1.3946,0.3984 2.1665,0.5229 z"
   class="fil17" /><path
   style="fill:#990000"
   inkscape:connector-curvature="0"
   id="path217"
   d="m 74.167,110.11 c 1.4028,-0.0498 2.7745,-0.0311 4.1774,-0.0809 0.2552,-0.0135 0.3206,0.2282 0.1494,0.3984 -0.5209,0.3797 -0.964,0.8249 -1.3945,1.27 0.7174,0.1806 1.1062,0.6786 1.1062,1.3448 -0.0492,0.83 -0.808,1.4609 -1.4549,1.9672 -1.1413,0.8944 -2.3822,1.7452 -3.6108,2.291 1.3468,-1.2078 2.6127,-2.5899 3.6108,-3.9595 -0.5509,-0.3828 -1.2762,-0.526 -1.9423,-0.5229 0.469,-0.4005 1.0376,-0.9193 1.1455,-1.519 -0.3061,-0.577 -1.1279,-0.8197 -1.9673,-0.9214 -0.1058,-0.0477 0.028,-0.2448 0.1805,-0.2677 z"
   class="fil17" /><path
   inkscape:connector-curvature="0"
   style="fill:url(#id9);stroke:#808080;stroke-width:0.0287"
   id="path219"
   d="m 122.087,104.493 c 0.0333,-0.456 0.5833,-0.9119 1.0711,-0.957 18.7866,-1.6474 38.2705,-0.2568 57.331,0.6608 13.3413,0.7368 26.6328,2.3202 39.5757,5.3479 l -6e-4,11.1383 c -33.9432,3.1062 -64.5973,0.7525 -96.2165,-4.8053 -0.7363,-0.1598 -1.4913,-0.3694 -1.7607,-0.8576 0,-3.5091 0,-7.0181 0,-10.5271 z"
   class="fil19 str1" /><g
   id="g221">
   <rect
   style="fill:#000000;stroke:#000000;stroke-width:0.0287"
   y="0"
   x="0"
   id="rect223"
   ry="0.26350001"
   rx="0.26350001"
   height="1.3763"
   width="19.915701"
   transform="matrix(0.253408,-0.278415,0.278415,0.253408,212.988,117.636)"
   class="fil7 str0" />
   <rect
   style="fill:#000000;stroke:#000000;stroke-width:0.0287"
   y="0"
   x="0"
   id="rect225"
   ry="0.26350001"
   rx="0.26350001"
   height="1.3763"
   width="19.915701"
   transform="matrix(0.278415,0.253408,-0.253408,0.278415,213.105,112.323)"
   class="fil7 str0" />
  </g><g
   id="g227">
   <rect
   style="fill:#000000;stroke:#000000;stroke-width:0.0287"
   y="0"
   x="0"
   id="rect229"
   ry="0.1882"
   rx="0.1882"
   height="1.2158999"
   width="20.9851"
   transform="matrix(0.265809,-0.2666,0.2666,0.265809,135.419,117.353)"
   class="fil7 str0" />
   <rect
   style="fill:#000000;stroke:#000000;stroke-width:0.0287"
   y="0"
   x="0"
   id="rect231"
   ry="0.1882"
   rx="0.1882"
   height="1.2158999"
   width="20.9851"
   transform="matrix(0.2666,0.265809,-0.265809,0.2666,135.734,111.766)"
   class="fil7 str0" />
  </g><polyline
   style="fill:none;stroke:#808080;stroke-width:0.0287"
   id="polyline233"
   points="136.771,124.713 136.771,119.437 138.134,119.869 139.761,124.771 "
   class="fil8 str1" /><path
   inkscape:connector-curvature="0"
   style="fill:url(#id1);stroke:#000000;stroke-width:0.0287"
   id="path235"
   d="m 220.065,109.545 0,11.1383 c 1.257,-0.1466 2.6052,-0.4344 3.7211,-0.938 l 0,-9.4698 c -1.1864,-0.3307 -2.4724,-0.599 -3.7211,-0.7305 z"
   class="fil20 str0" /><polygon
   style="fill:#990000"
   id="polygon237"
   points="183.348,104.375 182.485,104.321 182.485,124.803 183.348,124.774 "
   class="fil17" /><polygon
   style="fill:#990000"
   id="polygon239"
   points="183.348,100.156 182.485,100.175 182.485,104.321 183.348,104.376 "
   class="fil17" /><line
   style="fill:none;stroke:#808080;stroke-width:0.0287"
   id="line241"
   y2="104.368"
   x2="183.34801"
   y1="104.313"
   x1="182.485"
   class="fil8 str1" /><g
   id="g243">
   <polygon
   style="fill:#990000"
   id="polygon245"
   points="15.9357,114.828 14.7398,114.828 14.7398,115.602 15.9357,115.602 "
   class="fil17" />
   <path
   style="fill:#808080;fill-rule:nonzero"
   inkscape:connector-curvature="0"
   d="m 15.9357,115.617 -1.1959,0 0,-0.0286 1.1959,0 0.0144,0.0143 -0.0144,0.0143 z m 0.0144,-0.0143 0,0.0143 -0.0144,0 0.0144,-0.0143 z m 0,-0.7742 0,0.7742 -0.0288,0 0,-0.7742 0.0144,-0.0143 0.0144,0.0143 z m -0.0144,-0.0143 0.0144,0 0,0.0143 -0.0144,-0.0143 z m -1.1959,0 1.1959,0 0,0.0286 -1.1959,0 -0.0144,-0.0143 0.0144,-0.0143 z m -0.0144,0.0143 0,-0.0143 0.0144,0 -0.0144,0.0143 z m 0,0.7742 0,-0.7742 0.0288,0 0,0.7742 -0.0144,0.0143 -0.0144,-0.0143 z m 0.0144,0.0143 -0.0144,0 0,-0.0143 0.0144,0.0143 z"
   class="fil21"
   id="path247" />
  </g><polygon
   style="fill:#cccccc;stroke:#808080;stroke-width:0.0287"
   id="polygon249"
   points="6.3064,116.245 4.7915,116.245 4.7915,116.544 7.979,116.544 7.979,117.038 8.2944,117.038 8.2944,116.544 8.4936,116.544 8.4936,116.245 7.3855,116.245 7.3855,115.602 14.7398,115.602 14.7398,114.828 1.9402,114.828 1.9402,115.602 6.3064,115.602 "
   class="fil22 str1" /><path
   style="fill:none;stroke:#808080;stroke-width:0.0753"
   inkscape:connector-curvature="0"
   id="path251"
   d="m 23.6342,113.729 0,1.0386 c 0,0.1656 -0.1356,0.3011 -0.3012,0.3011 l -1.5084,0 0,-1.09"
   class="fil8 str5" /><path
   style="fill:#1a1a1a;stroke:#000000;stroke-width:0.0287"
   inkscape:connector-curvature="0"
   id="path253"
   d="m 223.786,110.399 1.0217,0.3922 c 1.4112,-0.8522 3.0795,-1.2893 4.831,-1.8095 l -5.6113,0.8799 -0.2414,0.5374 z"
   class="fil1 str0" /><path
   style="fill:none;stroke:#666666;stroke-width:0.0287"
   inkscape:connector-curvature="0"
   id="path255"
   d="m 227.763,111.422 c 0.9656,0.2795 1.8151,0.6005 2.7227,1.0875"
   class="fil8 str4" /><path
   inkscape:connector-curvature="0"
   style="fill:url(#id7);stroke:#666666;stroke-width:0.0287"
   id="path257"
   d="m 223.772,106.396 0.0137,4.003 c 3.1103,-1.5383 8.578,-1.5495 13.5145,-1.1289 0.155,-0.2435 0.3099,-0.4869 0.4649,-0.7304 -3.3757,-0.7637 -6.7844,-1.0127 -10.1269,-1.1953 -0.2979,-0.1263 -0.5959,-0.2526 -0.8938,-0.3788 l -2.9724,-0.5696 z"
   class="fil23 str4" /><path
   inkscape:connector-curvature="0"
   style="fill:url(#id6);stroke:#666666;stroke-width:0.0287"
   id="path259"
   d="m 223.786,110.399 c -0.005,0.6122 -0.009,1.2244 -0.0137,1.8366 0.8487,-0.819 2.4445,-0.8162 3.9904,-0.8135 -0.9598,-0.2995 -1.9612,-0.4912 -3.0041,-0.6496 -0.3242,-0.1245 -0.6484,-0.249 -0.9726,-0.3735 z"
   class="fil24 str4" /><line
   style="fill:none;stroke:#808080;stroke-width:0.0753"
   id="line261"
   y2="99.329201"
   x2="223.772"
   y1="106.396"
   x1="223.772"
   class="fil8 str5" /><line
   style="fill:none;stroke:#808080;stroke-width:0.0753"
   id="line263"
   y2="118.514"
   x2="45.768299"
   y1="110.993"
   x1="45.768299"
   class="fil8 str5" /><path
   style="fill:#b3b3b3;stroke:#000000;stroke-width:0.0287"
   inkscape:connector-curvature="0"
   id="path265"
   d="m 156.931,125.03 17.2796,0 c 0.1864,0 0.3388,0.1524 0.3388,0.3388 l 0,6.0846 c 0,0.207 -0.1693,0.3763 -0.3764,0.3763 l -17.6938,0 c -0.1242,0 -0.2258,-0.1016 -0.2258,-0.2258 l 0,-5.8962 c 0,-0.3728 0.3049,-0.6777 0.6776,-0.6777 z"
   class="fil2 str0" /><g
   id="g267">
   <path
   style="fill:#666666;fill-rule:nonzero"
   inkscape:connector-curvature="0"
   id="path269"
   d="m 173.788,125.34 -12.3763,0 0,-0.0942 12.3763,0 0.0467,0.0471 -0.0467,0.0471 z m 0,-0.0942 0.0467,0 0,0.0471 -0.0467,-0.0471 z m -0.0467,4.6789 0,-4.6318 0.0934,0 0,4.6318 -0.0467,0.0471 -0.0467,-0.0471 z m 0.0934,0 0,0.0471 -0.0467,0 0.0467,-0.0471 z m -12.423,-0.0471 12.3763,0 0,0.0942 -12.3763,0 -0.0467,-0.0471 0.0467,-0.0471 z m 0,0.0942 -0.0467,0 0,-0.0471 0.0467,0.0471 z m 0.0467,-4.6789 0,4.6318 -0.0934,0 0,-4.6318 0.0467,-0.0471 0.0467,0.0471 z m -0.0934,0 0,-0.0471 0.0467,0 -0.0467,0.0471 z"
   class="fil25" />
  </g><rect
   style="fill:#e6e6e6;stroke:#000000;stroke-width:0.0287"
   id="rect271"
   height="0.63085198"
   width="0.34033"
   y="128.13699"
   x="158.112"
   class="fil9 str0" /><g
   id="g273">
   <path
   style="fill:#e6e6e6"
   inkscape:connector-curvature="0"
   id="path275"
   d="m 158.357,128.386 c 0.2636,0 0.4773,0.1745 0.4773,0.39 0,0.2155 -0.2137,0.3901 -0.4773,0.3901 -0.2635,0 -0.4773,-0.1746 -0.4773,-0.3901 0,-0.2155 0.2138,-0.39 0.4773,-0.39 z"
   class="fil9" />
   <path
   style="fill:#000000;fill-rule:nonzero"
   inkscape:connector-curvature="0"
   d="m 158.848,128.776 -0.0288,0 0,0 -6e-4,-0.0192 -0.002,-0.0189 -0.003,-0.0187 -0.004,-0.0183 -0.005,-0.0181 -0.006,-0.0177 -0.007,-0.0174 -0.008,-0.017 -0.009,-0.0165 -0.0101,-0.0162 -0.0111,-0.0158 -0.0119,-0.0152 -0.0128,-0.0147 -0.0137,-0.0142 -0.0145,-0.0138 -0.0153,-0.013 -0.0161,-0.0125 -0.0168,-0.0119 -0.0174,-0.0113 -0.0182,-0.0104 -0.0188,-0.01 -0.0194,-0.009 -0.0201,-0.008 -0.0205,-0.007 -0.0211,-0.007 -0.0217,-0.006 -0.022,-0.005 -0.0225,-0.004 -0.0229,-0.003 -0.0233,-0.002 -0.0236,-0.001 -0.024,-5e-4 0,-0.0286 0.0252,5e-4 0.0248,0.002 0.0245,0.003 0.0241,0.004 0.0237,0.005 0.0232,0.005 0.0227,0.006 0.0223,0.007 0.0217,0.008 0.0211,0.009 0.0206,0.01 0.02,0.0104 0.0192,0.0112 0.0186,0.0119 0.0178,0.0127 0.0171,0.0133 0.0163,0.014 0.0155,0.0146 0.0147,0.0152 0.0138,0.0159 0.0129,0.0164 0.0119,0.017 0.0109,0.0174 0.01,0.0179 0.009,0.0186 0.008,0.0188 0.007,0.0193 0.006,0.0197 0.004,0.0201 0.003,0.0203 0.002,0.0207 6e-4,0.021 0,0 z m -0.4917,0.4044 0,-0.0286 0,0 0.024,-5e-4 0.0236,-0.001 0.0233,-0.002 0.0229,-0.003 0.0225,-0.004 0.022,-0.005 0.0217,-0.006 0.0211,-0.007 0.0205,-0.008 0.0201,-0.008 0.0194,-0.009 0.0188,-0.01 0.0182,-0.0105 0.0174,-0.0113 0.0168,-0.0118 0.0161,-0.0125 0.0153,-0.0131 0.0145,-0.0137 0.0137,-0.0143 0.0128,-0.0147 0.0119,-0.0152 0.0111,-0.0157 0.0101,-0.0163 0.009,-0.0165 0.008,-0.0169 0.007,-0.0175 0.006,-0.0177 0.005,-0.0181 0.004,-0.0183 0.003,-0.0187 0.002,-0.0189 6e-4,-0.0192 0.0288,0 -6e-4,0.021 -0.002,0.0207 -0.003,0.0203 -0.004,0.0201 -0.006,0.0197 -0.007,0.0193 -0.008,0.0189 -0.009,0.0185 -0.01,0.0179 -0.0109,0.0175 -0.0119,0.0169 -0.0129,0.0164 -0.0138,0.0159 -0.0147,0.0153 -0.0155,0.0145 -0.0163,0.0141 -0.0171,0.0133 -0.0178,0.0126 -0.0186,0.0119 -0.0192,0.0113 -0.02,0.0103 -0.0206,0.01 -0.0211,0.009 -0.0217,0.008 -0.0223,0.007 -0.0227,0.006 -0.0232,0.005 -0.0237,0.005 -0.0241,0.004 -0.0245,0.003 -0.0248,0.001 -0.0252,5e-4 0,0 z m -0.4917,-0.4044 0.0288,0 0,0 6e-4,0.0192 0.002,0.0189 0.003,0.0187 0.004,0.0183 0.005,0.0181 0.006,0.0177 0.007,0.0175 0.008,0.0169 0.009,0.0165 0.0101,0.0163 0.0111,0.0157 0.0119,0.0152 0.0129,0.0147 0.0137,0.0143 0.0144,0.0137 0.0153,0.0131 0.0161,0.0125 0.0167,0.0118 0.0176,0.0113 0.0182,0.0106 0.0187,0.01 0.0194,0.009 0.0201,0.008 0.0206,0.008 0.021,0.007 0.0217,0.006 0.0221,0.005 0.0224,0.004 0.0229,0.003 0.0233,0.002 0.0236,0.001 0.024,5e-4 0,0.0286 -0.0252,-5e-4 -0.0248,-10e-4 -0.0245,-0.003 -0.0241,-0.004 -0.0236,-0.005 -0.0233,-0.005 -0.0227,-0.006 -0.0222,-0.007 -0.0218,-0.008 -0.0211,-0.009 -0.0206,-0.01 -0.0199,-0.0104 -0.0192,-0.0112 -0.0186,-0.0119 -0.0179,-0.0126 -0.0171,-0.0133 -0.0163,-0.0141 -0.0156,-0.0145 -0.0145,-0.0153 -0.0139,-0.0159 -0.0129,-0.0164 -0.0119,-0.0169 -0.0109,-0.0175 -0.01,-0.0179 -0.009,-0.0185 -0.008,-0.0189 -0.007,-0.0193 -0.006,-0.0197 -0.004,-0.0201 -0.003,-0.0203 -0.002,-0.0207 -6e-4,-0.021 0,0 z m 0.4917,-0.4043 0,0.0286 0,0 -0.024,5e-4 -0.0236,0.001 -0.0233,0.002 -0.0229,0.003 -0.0224,0.004 -0.0221,0.005 -0.0217,0.006 -0.021,0.007 -0.0206,0.007 -0.0201,0.008 -0.0194,0.009 -0.0187,0.01 -0.0182,0.0105 -0.0175,0.0113 -0.0168,0.0119 -0.0161,0.0125 -0.0153,0.013 -0.0144,0.0138 -0.0137,0.0142 -0.0129,0.0147 -0.0119,0.0152 -0.0111,0.0158 -0.0101,0.0162 -0.009,0.0165 -0.008,0.017 -0.007,0.0174 -0.006,0.0177 -0.005,0.0181 -0.004,0.0183 -0.003,0.0187 -0.002,0.0189 -6e-4,0.0192 -0.0288,0 6e-4,-0.021 0.002,-0.0207 0.003,-0.0203 0.004,-0.0201 0.006,-0.0197 0.007,-0.0193 0.008,-0.0188 0.009,-0.0186 0.01,-0.0179 0.0109,-0.0174 0.0119,-0.017 0.0129,-0.0164 0.0139,-0.0159 0.0145,-0.0152 0.0156,-0.0146 0.0163,-0.014 0.0171,-0.0133 0.0178,-0.0127 0.0187,-0.0119 0.0192,-0.0111 0.0199,-0.0105 0.0206,-0.01 0.0211,-0.009 0.0218,-0.008 0.0222,-0.007 0.0227,-0.006 0.0233,-0.005 0.0236,-0.005 0.0241,-0.004 0.0245,-0.003 0.0248,-0.002 0.0252,-5e-4 0,0 z"
   class="fil14"
   id="path277" />
  </g><polygon
   style="fill:#e6e6e6;stroke:#000000;stroke-width:0.0287"
   id="polygon279"
   points="162.727,127.29 162.295,127.29 162.295,124.435 162.727,124.435 "
   class="fil9 str0" /><polygon
   style="fill:#e6e6e6;stroke:#000000;stroke-width:0.0287"
   id="polygon281"
   points="164.415,128.95 162.805,127.573 162.578,127.838 164.188,129.216 "
   class="fil9 str0" /><polygon
   style="fill:#e6e6e6;stroke:#000000;stroke-width:0.0287"
   id="polygon283"
   points="162.071,127.888 162.376,128.137 162.865,127.54 162.727,127.29 162.295,127.29 162.333,127.568 "
   class="fil9 str0" /><polygon
   style="fill:#e6e6e6;stroke:#000000;stroke-width:0.0287"
   id="polygon285"
   points="163.096,124.152 160.199,124.152 160.199,122.65 160.021,122.65 160.021,122.43 159.477,122.43 159.477,122.704 159.784,122.704 159.784,124.377 159.95,124.377 159.95,124.476 163.096,124.476 "
   class="fil9 str0" /><polygon
   style="fill:#e6e6e6;stroke:#000000;stroke-width:0.0287"
   id="polygon287"
   points="163.51,122.427 166.977,127.908 168.213,127.127 164.329,120.984 163.092,121.766 163.51,121.806 "
   class="fil9 str0" /><polygon
   style="fill:#e6e6e6;stroke:#000000;stroke-width:0.0287"
   id="polygon289"
   points="173.642,128.204 170.641,124.432 169.688,124.057 169.088,124.983 172.856,128.951 "
   class="fil9 str0" /><rect
   style="fill:#e6e6e6;stroke:#000000;stroke-width:0.0287"
   id="rect291"
   height="1.08736"
   width="0.36525199"
   y="124.563"
   x="171.73"
   class="fil9 str0" /><rect
   style="fill:#e6e6e6;stroke:#000000;stroke-width:0.01080471"
   y="-69.241646"
   x="199.21246"
   id="rect293"
   height="0.26108244"
   width="1.0431627"
   transform="matrix(0.57295291,0.81958829,-0.81958829,0.57295291,0,0)"
   class="fil9 str0" /><rect
   style="fill:#e6e6e6;stroke:#000000;stroke-width:0.0287"
   id="rect295"
   height="0.240716"
   width="1.02099"
   y="124.38"
   x="171.07401"
   class="fil9 str0" /><rect
   style="fill:none;stroke:#808080;stroke-width:0.0287"
   id="rect297"
   height="0.56448102"
   width="7.9188399"
   y="131.037"
   x="157.112"
   class="fil8 str1" /><rect
   style="fill:none;stroke:#808080;stroke-width:0.0287"
   id="rect299"
   height="5.0634198"
   width="0.66405702"
   y="125.725"
   x="156.797"
   class="fil8 str1" /><g
   id="g301">
   <path
   style="fill:#666666;fill-rule:nonzero"
   inkscape:connector-curvature="0"
   id="path303"
   d="m 159.395,125.138 -1.7597,0 0,-0.0942 1.7597,0 0.0471,0.0471 -0.0471,0.0471 z m 0,-0.0942 0.0471,0 0,0.0471 -0.0471,-0.0471 z m -0.0471,4.3082 0,-4.2611 0.0942,0 0,4.2611 0,0 -0.0942,0 z m -0.8327,0.9269 0,-0.0942 0,0 0.0427,-0.001 0.0421,-0.003 0.0415,-0.005 0.0409,-0.007 0.0402,-0.009 0.0394,-0.0112 0.0386,-0.0132 0.0377,-0.0149 0.0369,-0.0167 0.0359,-0.0185 0.0348,-0.0201 0.0338,-0.0217 0.0327,-0.0234 0.0316,-0.0247 0.0303,-0.0263 0.0289,-0.0275 0.0276,-0.029 0.0263,-0.0303 0.0247,-0.0315 0.0234,-0.0328 0.0217,-0.0338 0.0201,-0.0348 0.0184,-0.0359 0.0168,-0.0369 0.0149,-0.0377 0.0132,-0.0386 0.0112,-0.0394 0.009,-0.0403 0.007,-0.0408 0.005,-0.0416 0.003,-0.0421 0.001,-0.0427 0.0942,0 -0.001,0.0475 -0.004,0.0469 -0.006,0.0462 -0.008,0.0456 -0.0103,0.0447 -0.0126,0.044 -0.0146,0.043 -0.0167,0.0421 -0.0186,0.0411 -0.0206,0.0399 -0.0223,0.0388 -0.0243,0.0376 -0.0258,0.0362 -0.0275,0.0351 -0.0293,0.0337 -0.0306,0.0322 -0.0323,0.0307 -0.0337,0.0293 -0.035,0.0275 -0.0363,0.0258 -0.0376,0.0243 -0.0388,0.0223 -0.0399,0.0205 -0.0411,0.0187 -0.0421,0.0167 -0.043,0.0146 -0.044,0.0126 -0.0448,0.0103 -0.0455,0.008 -0.0463,0.006 -0.0469,0.004 -0.0475,0.001 0,0 z m -1e-4,-0.0942 1e-4,0 0,0.0942 -1e-4,0 0,0 0,-0.0942 z m -0.9269,-0.8327 0.0942,0 0,0 0.001,0.0427 0.003,0.0421 0.005,0.0416 0.007,0.0408 0.009,0.0403 0.0112,0.0394 0.0132,0.0386 0.0149,0.0377 0.0168,0.0369 0.0184,0.0359 0.0201,0.0348 0.0217,0.0338 0.0234,0.0328 0.0247,0.0315 0.0263,0.0303 0.0276,0.029 0.0289,0.0275 0.0303,0.0263 0.0316,0.0247 0.0327,0.0234 0.0338,0.0217 0.0348,0.0201 0.0359,0.0185 0.0369,0.0167 0.0377,0.0149 0.0386,0.0132 0.0394,0.0112 0.0402,0.009 0.0409,0.007 0.0415,0.005 0.0421,0.003 0.0427,0.001 0,0.0942 -0.0475,-0.001 -0.0469,-0.004 -0.0463,-0.006 -0.0455,-0.008 -0.0448,-0.0103 -0.044,-0.0126 -0.043,-0.0146 -0.0421,-0.0167 -0.0411,-0.0187 -0.0399,-0.0205 -0.0388,-0.0223 -0.0376,-0.0243 -0.0363,-0.0258 -0.035,-0.0275 -0.0337,-0.0293 -0.0323,-0.0307 -0.0306,-0.0322 -0.0293,-0.0337 -0.0275,-0.0351 -0.0258,-0.0362 -0.0243,-0.0376 -0.0223,-0.0388 -0.0206,-0.0399 -0.0186,-0.0411 -0.0167,-0.0421 -0.0146,-0.043 -0.0126,-0.044 -0.0103,-0.0447 -0.008,-0.0456 -0.006,-0.0462 -0.004,-0.0469 -0.001,-0.0475 0,0 z m 0.0942,-4.2611 0,4.2611 -0.0942,0 0,-4.2611 0.0471,-0.0471 0.0471,0.0471 z m -0.0942,0 0,-0.0471 0.0471,0 -0.0471,0.0471 z"
   class="fil25" />
  </g><path
   style="fill:none;stroke:#000000;stroke-width:0.0287"
   inkscape:connector-curvature="0"
   id="path305"
   d="m 164.906,123.924 c 0.3201,-0.1833 0.6819,-0.2878 1.1225,-0.2511"
   class="fil8 str0" /><line
   style="fill:none;stroke:#000000;stroke-width:0.0287"
   id="line307"
   y2="125.119"
   x2="166.06799"
   y1="124.719"
   x1="166.69099"
   class="fil8 str0" /><path
   style="fill:none;stroke:#000000;stroke-width:0.0287"
   inkscape:connector-curvature="0"
   id="path309"
   d="m 165.529,126.098 c -0.2214,0.4067 -0.3016,0.8965 -0.2656,1.3447"
   class="fil8 str0" /><rect
   style="fill:#1a1a1a;stroke:#000000;stroke-width:0.0287"
   id="rect311"
   height="0.49803299"
   width="0.240716"
   y="126.206"
   x="172.825"
   class="fil1 str0" /><path
   style="fill:#ffffff;stroke:#808080;stroke-width:0.0287"
   inkscape:connector-curvature="0"
   id="path313"
   d="m 155.933,122.006 13.2479,0 c -0.2896,-0.6476 -0.5792,-1.2953 -0.8687,-1.9429 -0.1051,-0.2048 -0.3303,-0.3373 -0.6254,-0.3481 -3.348,0 -6.696,0 -10.0439,0 -0.3601,0.007 -0.55,0.3085 -0.7068,0.5687 l -1.0031,1.7223 z"
   class="fil10 str1" /><rect
   style="fill:#e6e6e6;stroke:#000000;stroke-width:0.0287"
   id="rect315"
   height="5.0136099"
   width="0.69726199"
   y="123.239"
   x="157.879"
   class="fil9 str0" /><path
   style="fill:#e6e6e6;stroke:#000000;stroke-width:0.0287"
   inkscape:connector-curvature="0"
   id="path317"
   d="m 168.671,126.796 1.6767,0 0,-3.9844 c -0.5133,-0.3099 -1.068,-0.5077 -1.6767,-0.5312 l 0,4.5156 z"
   class="fil9 str0" /><line
   style="fill:none;stroke:#000000;stroke-width:0.0287"
   id="line319"
   y2="124.986"
   x2="169.314"
   y1="124.986"
   x1="170.347"
   class="fil8 str0" /><circle
   style="fill:url(#id20);stroke:#000000;stroke-width:0.0287"
   id="circle321"
   r="5.03022"
   cy="131.092"
   cx="169.573"
   class="fil26 str0" /><circle
   style="fill:url(#id18);stroke:#000000;stroke-width:0.0287"
   id="circle323"
   r="2.7890501"
   cy="131.092"
   cx="169.573"
   class="fil27 str0" /><circle
   style="fill:url(#id16);stroke:#808080;stroke-width:0.0287"
   id="circle325"
   r="0.54787803"
   cy="131.092"
   cx="169.573"
   class="fil28 str1" /><g
   id="g327">
   <path
   style="fill:#000000;stroke:#000000;stroke-width:0.0287"
   inkscape:connector-curvature="0"
   id="path329"
   d="m 169.166,132.943 c 0.2422,0.0623 0.5382,0.0498 0.8135,0 -0.065,-0.3417 -0.1757,-0.6834 -0.4067,-0.938 -0.2186,0.2276 -0.375,0.5921 -0.4068,0.938 z"
   class="fil7 str0" />
   <path
   style="fill:#000000;stroke:#000000;stroke-width:0.0287"
   inkscape:connector-curvature="0"
   id="path331"
   d="m 169.166,129.262 c 0.2422,-0.0622 0.5382,-0.0498 0.8135,0 -0.065,0.3418 -0.1757,0.6834 -0.4067,0.938 -0.2186,-0.2276 -0.375,-0.5921 -0.4068,-0.938 z"
   class="fil7 str0" />
  </g><g
   id="g333">
   <path
   style="fill:#000000;stroke:#000000;stroke-width:0.0287"
   inkscape:connector-curvature="0"
   id="path335"
   d="m 167.984,132.116 c 0.1272,0.2153 0.3454,0.4158 0.5753,0.5752 0.1956,-0.2876 0.3589,-0.6075 0.3756,-0.9508 -0.3155,0.006 -0.6838,0.1536 -0.9509,0.3756 z"
   class="fil7 str0" />
   <path
   style="fill:#000000;stroke:#000000;stroke-width:0.0287"
   inkscape:connector-curvature="0"
   id="path337"
   d="m 170.587,129.514 c 0.2152,0.1272 0.4157,0.3453 0.5752,0.5752 -0.2876,0.1957 -0.6075,0.359 -0.9509,0.3757 0.006,-0.3155 0.1536,-0.6838 0.3757,-0.9509 z"
   class="fil7 str0" />
  </g><g
   id="g339">
   <path
   style="fill:#000000;stroke:#000000;stroke-width:0.0287"
   inkscape:connector-curvature="0"
   id="path341"
   d="m 167.733,130.696 c -0.0623,0.2421 -0.0498,0.5381 0,0.8135 0.3417,-0.0651 0.6834,-0.1758 0.9379,-0.4068 -0.2275,-0.2186 -0.5921,-0.3749 -0.9379,-0.4067 z"
   class="fil7 str0" />
   <path
   style="fill:#000000;stroke:#000000;stroke-width:0.0287"
   inkscape:connector-curvature="0"
   id="path343"
   d="m 171.413,130.696 c 0.0623,0.2421 0.0499,0.5381 0,0.8135 -0.3417,-0.0651 -0.6834,-0.1758 -0.9379,-0.4068 0.2275,-0.2186 0.5921,-0.3749 0.9379,-0.4067 z"
   class="fil7 str0" />
  </g><g
   id="g345">
   <path
   style="fill:#000000;stroke:#000000;stroke-width:0.0287"
   inkscape:connector-curvature="0"
   id="path347"
   d="m 168.559,129.514 c -0.2153,0.1272 -0.4158,0.3453 -0.5753,0.5752 0.2876,0.1957 0.6075,0.359 0.9509,0.3757 -0.006,-0.3155 -0.1536,-0.6838 -0.3756,-0.9509 z"
   class="fil7 str0" />
   <path
   style="fill:#000000;stroke:#000000;stroke-width:0.0287"
   inkscape:connector-curvature="0"
   id="path349"
   d="m 171.162,132.116 c -0.1272,0.2153 -0.3453,0.4158 -0.5752,0.5752 -0.1957,-0.2876 -0.359,-0.6075 -0.3757,-0.9508 0.3155,0.006 0.6838,0.1536 0.9509,0.3756 z"
   class="fil7 str0" />
  </g><line
   style="fill:none;stroke:#808080;stroke-width:0.0753"
   id="line351"
   y2="121.32"
   x2="78.379097"
   y1="107.963"
   x1="78.379097"
   class="fil8 str5" /><line
   style="fill:none;stroke:#808080;stroke-width:0.0753"
   id="line353"
   y2="122.111"
   x2="92.078796"
   y1="108.304"
   x1="92.078796"
   class="fil8 str5" /><path
   style="fill:none;stroke:#808080;stroke-width:0.0753"
   inkscape:connector-curvature="0"
   id="path355"
   d="m 104.746,123.557 0,-12.4125 c -4.8663,-2.5773 -9.2266,-2.9898 -14.2134,-2.8412"
   class="fil8 str5" /><line
   style="fill:none;stroke:#808080;stroke-width:0.0753"
   id="line357"
   y2="103.289"
   x2="126.297"
   y1="101.402"
   x1="126.542"
   class="fil8 str5" /><line
   style="fill:none;stroke:#808080;stroke-width:0.0753"
   id="line359"
   y2="116.234"
   x2="126.019"
   y1="103.308"
   x1="126.019"
   class="fil8 str5" /><line
   style="fill:none;stroke:#808080;stroke-width:0.0753"
   id="line361"
   y2="116.331"
   x2="126.419"
   y1="124.462"
   x1="126.419"
   class="fil8 str5" /><line
   style="fill:none;stroke:#808080;stroke-width:0.0753"
   id="line363"
   y2="102.889"
   x2="151.177"
   y1="100.871"
   x1="151.177"
   class="fil8 str5" /><line
   style="fill:none;stroke:#808080;stroke-width:0.0753"
   id="line365"
   y2="119.811"
   x2="151.127"
   y1="102.884"
   x1="151.127"
   class="fil8 str5" /><line
   style="fill:none;stroke:#808080;stroke-width:0.0753"
   id="line367"
   y2="124.96"
   x2="151.351"
   y1="119.865"
   x1="151.351"
   class="fil8 str5" /><polyline
   style="fill:none;stroke:#808080;stroke-width:0.0753"
   id="polyline369"
   points="180.822,124.863 180.55,104.197 180.55,100.217 "
   class="fil8 str5" /><line
   style="fill:none;stroke:#808080;stroke-width:0.0753"
   id="line371"
   y2="107.146"
   x2="208.04401"
   y1="99.633003"
   x1="208.04401"
   class="fil8 str5" /><line
   style="fill:none;stroke:#808080;stroke-width:0.0753"
   id="line373"
   y2="107.213"
   x2="208.651"
   y1="122.537"
   x1="208.651"
   class="fil8 str5" /><path
   inkscape:connector-curvature="0"
   style="fill:url(#id4);stroke:#808080;stroke-width:0.0287"
   id="path375"
   d="m 180.838,119.961 c 9.8472,0 17.0911,-1.105 17.8299,-1.4859 -0.4898,-0.4639 -7.9827,-1.4858 -17.8299,-1.4858 -9.8471,0 -17.5891,1.0219 -17.8298,1.4858 0.3984,0.5636 7.9827,1.4859 17.8298,1.4859 z"
   class="fil29 str1" /><ellipse
   style="fill:#000000;stroke:#000000;stroke-width:0.0287"
   id="ellipse377"
   ry="0.34861201"
   rx="0.132819"
   cy="105.689"
   cx="139.877"
   class="fil7 str0" /><ellipse
   style="fill:#000000;stroke:#000000;stroke-width:0.0287"
   id="ellipse379"
   ry="0.19505"
   rx="0.2656"
   cy="105.809"
   cx="140.44099"
   class="fil7 str0" /><path
   style="fill:#000000;stroke:#000000;stroke-width:0.0287"
   inkscape:connector-curvature="0"
   id="path381"
   d="m 140.482,104.243 c 0.1141,0.0263 0.1992,0.1286 0.1992,0.2507 0,0.1421 -0.1152,0.2573 -0.2573,0.2573 -0.1421,0 -0.2573,-0.1152 -0.2573,-0.2573 0,-0.0827 0.039,-0.1563 0.0996,-0.2033 l 0,-0.6849 0.2158,0 0,0.6375 z"
   class="fil7 str0" /><rect
   style="fill:none;stroke:#808080;stroke-width:0.0287"
   id="rect383"
   height="2.22457"
   width="3.78511"
   y="104.585"
   x="158.13"
   class="fil8 str1" /><rect
   style="fill:none;stroke:#808080;stroke-width:0.0287"
   id="rect385"
   height="0.63085198"
   width="0.79687601"
   y="113.069"
   x="133.311"
   class="fil8 str1" /><line
   style="fill:none;stroke:#808080;stroke-width:0.0753"
   id="line387"
   y2="110.699"
   x2="251.017"
   y1="99.162598"
   x1="251.017"
   class="fil8 str5" /><line
   style="fill:none;stroke:#808080;stroke-width:0.0753"
   id="line389"
   y2="100.892"
   x2="251.017"
   y1="101.945"
   x1="180.55"
   class="fil8 str5" /><path
   style="fill:#000000;stroke:#000000;stroke-width:0.0287"
   inkscape:connector-curvature="0"
   id="path391"
   d="m 241.981,99.5462 1.2351,0 c 0.0621,0 0.1129,0.0508 0.1129,0.1129 l 0,0.3851 -1.4609,0 0,-0.3851 c 0,-0.0621 0.0507,-0.1129 0.1129,-0.1129 z"
   class="fil7 str0" /><polygon
   style="fill:#000000;stroke:#000000;stroke-width:0.0287"
   id="polygon393"
   points="229.019,100.133 229.019,100.31 228.288,100.31 228.288,99.9446 228.831,99.9446 "
   class="fil7 str0" /><polygon
   style="fill:#000000;stroke:#000000;stroke-width:0.0287"
   id="polygon395"
   points="231.426,99.9696 230.272,100.31 229.849,100.31 229.849,99.7288 231.426,99.7288 "
   class="fil7 str0" /><path
   style="fill:none;stroke:#808080;stroke-width:0.0287"
   inkscape:connector-curvature="0"
   id="path397"
   d="m 208.651,118.49 -3.7437,0.2699 c -0.1651,0.0119 -0.2912,0.1558 -0.2799,0.3211 l 0.1271,1.8536 c 0.0113,0.1652 0.1558,0.2912 0.3211,0.2799 l 3.5754,-0.2451 0,-2.4794 z"
   class="fil8 str1" /><g
   id="g399">
   <path
   inkscape:connector-curvature="0"
   style="fill:url(#id12)"
   id="path401"
   d="m 206.617,119.505 c 0.7032,-0.085 1.3048,0.108 1.3438,0.4312 0.0391,0.323 -0.4992,0.6539 -1.2025,0.739 -0.7031,0.0848 -1.3047,-0.1082 -1.3439,-0.4314 -0.039,-0.323 0.4995,-0.6539 1.2026,-0.7388 z"
   class="fil30" />
   <path
   style="fill:none;fill-rule:nonzero;stroke:#808080;stroke-width:0.0762"
   inkscape:connector-curvature="0"
   d="m 206.617,119.505 c 0.7032,-0.085 1.3048,0.108 1.3438,0.4312 0.0391,0.323 -0.4992,0.6539 -1.2025,0.739 -0.7031,0.0848 -1.3047,-0.1082 -1.3439,-0.4314 -0.039,-0.323 0.4995,-0.6539 1.2026,-0.7388 z"
   class="fil31 str7"
   id="path403" />
  </g><polygon
   style="fill:#000000;stroke:#000000;stroke-width:0.0287"
   id="polygon405"
   points="202.73,117.601 202.517,117.861 203.79,118.555 "
   class="fil7 str0" /><polygon
   style="fill:#000000;stroke:#000000;stroke-width:0.0287"
   id="polygon407"
   points="205.189,116.895 204.814,117.135 205.565,117.973 "
   class="fil7 str0" /><rect
   style="fill:#000000;stroke:#000000;stroke-width:0.0287"
   id="rect409"
   height="0.71386403"
   width="0.73046702"
   y="117.018"
   x="201.54601"
   class="fil7 str0" /><rect
   style="fill:#000000;stroke:#000000;stroke-width:0.0287"
   id="rect411"
   height="0.63085198"
   width="0.64745498"
   y="116.14"
   x="204.496"
   class="fil7 str0" /><line
   style="fill:none;stroke:#999999;stroke-width:0.0287"
   id="line413"
   y2="111.986"
   x2="237.961"
   y1="109.33"
   x1="237.961"
   class="fil8 str8" /><line
   style="fill:none;stroke:#999999;stroke-width:0.0287"
   id="line415"
   y2="111.654"
   x2="240.21899"
   y1="108.134"
   x1="240.48399"
   class="fil8 str8" /><line
   style="fill:none;stroke:#999999;stroke-width:0.0287"
   id="line417"
   y2="109.927"
   x2="243.80499"
   y1="107.006"
   x1="244.07001"
   class="fil8 str8" /><line
   style="fill:none;stroke:#999999;stroke-width:0.0287"
   id="line419"
   y2="109.33"
   x2="247.72301"
   y1="106.939"
   x1="247.457"
   class="fil8 str8" /><line
   style="fill:none;stroke:#999999;stroke-width:0.0287"
   id="line421"
   y2="113.624"
   x2="230.63499"
   y1="110.558"
   x1="230.358"
   class="fil8 str8" /><line
   style="fill:none;stroke:#999999;stroke-width:0.0287"
   id="line423"
   y2="112.982"
   x2="233.778"
   y1="109.363"
   x1="233.711"
   class="fil8 str8" /><path
   style="fill:#000000;fill-rule:nonzero"
   inkscape:connector-curvature="0"
   id="path425"
   d="m 259.274,96.4472 0.3347,0.4489 1.0099,0 0.3347,-0.4489 0,-0.8372 -0.2083,-0.2794 0.2083,-0.28 0,-0.8372 -0.3347,-0.4489 -1.0099,0 -0.3347,0.4489 0,0.8372 0.2088,0.28 -0.2088,0.2794 0,0.8372 z m 0.4016,-1.9624 0.1355,-0.1817 0.6056,0 0.135,0.1817 0,0.3948 -0.135,0.1817 -0.6056,0 -0.1355,-0.1817 0,-0.3948 z m 0,1.2969 0.1355,-0.1817 0.6056,0 0.135,0.1817 0,0.394 -0.135,0.1817 -0.6056,0 -0.1355,-0.1817 0,-0.394 z m 3.3012,-1.5683 -0.3347,-0.4489 -1.0099,0 -0.3347,0.4489 0,0.9377 0.3347,0.4489 0.9429,0 0,0.5779 -0.1365,0.1816 -0.604,0 -0.1355,-0.1816 0,-0.2523 -0.4016,0 0,0.5216 0.3347,0.4489 1.0099,0 0.3347,-0.4489 0,-2.2338 z m -0.4017,0.8479 -0.7405,0 -0.1355,-0.1817 0,-0.3948 0.1355,-0.1817 0.6056,0 0.1349,0.1817 0,0.5765 z m 2.4252,1.2961 0,0.5387 -1.6793,0 0,-1.3232 0.3347,-0.4489 0.808,0 0.1339,-0.1817 0,-0.4575 -0.1355,-0.1838 -0.604,0 -0.1355,0.1838 0,0.2508 -0.4016,0 0,-0.5222 0.3347,-0.4489 1.0099,0 0.3347,0.4489 0,1.0004 -0.3347,0.4489 -0.8091,0 -0.1339,0.1831 0,0.5116 1.2777,0 z"
   class="fil14" /><polygon
   style="fill:#ffcc00;stroke:#000000;stroke-width:0.0941"
   id="polygon427"
   points="276.121,84.4468 262.435,84.4468 257.396,89.2263 275.436,89.2263 "
   class="fil32 str9" /><polyline
   style="fill:none;stroke:#000000;stroke-width:0.0941"
   id="polyline429"
   points="274.048,98.9029 265.921,98.7405 271.499,84.4468 276.143,84.4468 "
   class="fil8 str9" /><polygon
   style="fill:url(#linearGradient4609);stroke:#808080;stroke-width:0.0287"
   id="polygon431"
   points="260.263,101.012 259.217,101.012 258.686,101.726 260.189,101.726 "
   class="fil33 str1" /><g
   id="g433">
   <polygon
   style="fill:url(#id11)"
   id="polygon435"
   points="260.064,103.552 259.15,103.552 258.686,102.838 259.999,102.838 "
   class="fil34" />
   <path
   style="fill:#808080;fill-rule:nonzero"
   inkscape:connector-curvature="0"
   d="m 259.999,102.824 0.0143,0.013 -0.0143,0.0156 -1.3126,0 0,-0.0286 1.3126,0 z m 0,0 0.0131,0 0.001,0.013 -0.0143,-0.013 z m 0.0796,0.7269 -0.0143,0.0156 -0.0143,-0.013 -0.0653,-0.7139 0.0286,-0.003 0.0653,0.7139 z m 0,0 0.001,0.0156 -0.0157,0 0.0143,-0.0156 z m -0.9281,0.0156 -0.012,-0.007 0.012,-0.0221 0.9138,0 0,0.0286 -0.9138,0 z m 0,0 -0.008,0 -0.004,-0.007 0.012,0.007 z m -0.4761,-0.7204 0.012,-0.0221 0.012,0.007 0.4641,0.7139 -0.024,0.0156 -0.4641,-0.7139 z m 0,0 -0.0144,-0.0221 0.0264,0 -0.012,0.0221 z"
   class="fil21"
   id="path437" />
  </g><path
   inkscape:connector-curvature="0"
   style="fill:url(#id5);stroke:#808080;stroke-width:0.0287"
   id="path439"
   d="m 259.11,103.147 c 4.8204,0 8.3214,-0.3069 8.7282,-0.7968 -0.2906,-0.2907 -3.9078,-0.7969 -8.7282,-0.7969 -4.8205,0 -8.8195,0.5643 -9.11,0.8715 0.2158,0.3654 4.2895,0.7222 9.11,0.7222 z"
   class="fil35 str1" /><path
   style="fill:none;stroke:#1a1a1a;stroke-width:0.0941"
   inkscape:connector-curvature="0"
   id="path441"
   d="m 260.736,101.573 c -0.0276,0.5878 0.006,1.0498 0.4179,1.5546"
   class="fil8 str10" /><path
   style="fill:none;stroke:#999999;stroke-width:0.0287"
   inkscape:connector-curvature="0"
   id="path443"
   d="m 206.452,119.529 c 0.0109,0.3734 0.0964,0.7801 0.3065,1.1453"
   class="fil8 str8" /><path
   style="fill:none;stroke:#000000;stroke-width:0.0753"
   inkscape:connector-curvature="0"
   id="path445"
   d="m 268.634,88.6948 c -0.3873,-0.2988 -0.6751,-0.6309 -0.8134,-1.0459 -0.5346,0.3485 -1.0542,0.7144 -1.8594,0.7471 -0.1843,-0.2269 -0.2429,-0.4455 -0.2324,-0.6807 -0.5866,-0.0443 -1.1732,-0.0885 -1.7598,-0.1328 -0.2006,-0.101 -0.2725,-0.2642 -0.3154,-0.415 0.2048,-0.0056 0.4095,-0.0111 0.6143,-0.0166 -0.0554,-0.0775 -0.1107,-0.155 -0.1661,-0.2325 -0.2656,0 -0.5312,0 -0.7968,0 -0.11,-0.056 -0.1411,-0.166 -0.1494,-0.2988 0.1494,0 0.3735,0.0041 0.5229,0.0041 -0.0166,-0.0774 -0.1079,-0.159 -0.1245,-0.2365 -0.1937,0 -0.3873,0 -0.581,0 -0.155,-0.0304 -0.1896,-0.1688 -0.2159,-0.2656 0.3708,0 0.7416,0 1.1124,0 -0.0277,-0.0443 -0.0554,-0.0886 -0.0831,-0.1328 -0.4593,0 -0.9186,0 -1.3779,0 -0.2241,-0.0471 -0.3403,-0.3639 -0.3984,-0.6143 0.7296,-0.1337 1.6465,-0.0633 2.3242,0.2656 0.1273,-0.0933 0.2732,-0.1639 0.4316,-0.1992 0.6023,-0.0974 2.0375,-0.1409 2.5521,0.2401 0.0636,-0.2186 0.1401,-0.4697 0.3863,-0.6219 0.2131,0.1079 0.4552,0.2407 0.5645,0.498 0.0927,-0.1162 0.2352,-0.1867 0.3652,-0.249 0.1301,0.0623 0.2726,0.1328 0.3652,0.249 0.1093,-0.2573 0.3514,-0.3901 0.5645,-0.498 0.2463,0.1522 0.3227,0.4033 0.3864,0.6219 0.5146,-0.381 1.9498,-0.3375 2.5521,-0.2401 0.1584,0.0353 0.3043,0.1059 0.4316,0.1992 0.6777,-0.3289 1.5946,-0.3993 2.3242,-0.2656 -0.0581,0.2504 -0.1743,0.5672 -0.3985,0.6143 -0.4593,0 -0.9186,0 -1.3779,0 -0.0276,0.0442 -0.0553,0.0885 -0.083,0.1328 0.3708,0 0.7415,0 1.1123,0 -0.0263,0.0968 -0.0608,0.2352 -0.2158,0.2656 -0.1937,0 -0.3874,0 -0.581,0 -0.0166,0.0775 -0.108,0.1591 -0.1246,0.2365 0.1494,0 0.3736,-0.0041 0.523,-0.0041 -0.008,0.1328 -0.0394,0.2428 -0.1494,0.2988 -0.2656,0 -0.5312,0 -0.7969,0 -0.0553,0.0775 -0.1107,0.155 -0.166,0.2325 0.2048,0.0055 0.4095,0.011 0.6142,0.0166 -0.0429,0.1508 -0.1147,0.314 -0.3154,0.415 -0.5865,0.0443 -1.1732,0.0885 -1.7597,0.1328 0.0105,0.2352 -0.0481,0.4538 -0.2324,0.6807 -0.8052,-0.0327 -1.3249,-0.3986 -1.8594,-0.7471 -0.1383,0.415 -0.4261,0.7471 -0.8135,1.0459 z"
   class="fil8 str11" /><path
   style="fill:#000000;fill-rule:nonzero"
   inkscape:connector-curvature="0"
   id="path447"
   d="m 266.669,87.156 0,-1.0405 0.3074,0 0.3615,0.759 0,-0.759 0.2102,0 0,1.0405 -0.3053,0 -0.3635,-0.7573 0,0.7573 -0.2103,0 z m 1.0057,0 0.3641,-1.0405 0.2625,0 0.3632,1.0405 -0.2183,0 -0.0815,-0.2296 -0.391,0 -0.0798,0.2296 -0.2192,0 z m 0.3594,-0.4086 0.2703,0 -0.1352,-0.3862 -0.1351,0.3862 z m 0.7576,0.2594 0.1752,0.1492 0.5286,0 0.1753,-0.1492 0,-0.1886 -0.2103,0 0,0.0977 -0.0706,0.0611 -0.3171,0 -0.0701,-0.0604 0,-0.5618 0.071,-0.061 0.3162,0 0.0706,0.061 0,0.0985 0.2103,0 0,-0.1887 -0.1753,-0.1491 -0.5286,0 -0.1752,0.1491 0,0.7422 z m 1.0056,0.1492 0.3641,-1.0405 0.2625,0 0.3632,1.0405 -0.2183,0 -0.0815,-0.2296 -0.391,0 -0.0798,0.2296 -0.2192,0 z m 0.3593,-0.4086 0.2704,0 -0.1352,-0.3862 -0.1352,0.3862 z"
   class="fil14" /><path
   inkscape:connector-curvature="0"
   style="fill:url(#id2);stroke:#808080;stroke-width:0.0287"
   id="path449"
   d="m 169.37,118.651 c 5.0828,0.7479 6.0115,1.1449 10.7087,0.8171 0.4116,-0.0287 0.7444,0.2025 1.2194,0.1624 0.1453,0.5823 10.2469,0.8445 -0.0431,1.1863 -3.5024,0.1163 -7.3094,-0.006 -10.2581,-0.1072 -0.7664,-0.5368 -1.3834,-1.0985 -1.6269,-2.0586 z"
   class="fil36 str1" /><g
   id="g451">
   <path
   style="fill:none;stroke:#1a1a1a;stroke-width:0.0753"
   inkscape:connector-curvature="0"
   id="path453"
   d="m 184.264,117.031 c -0.7389,0.7747 -0.4982,1.7402 0.0247,2.3489"
   class="fil8 str12" />
   <polyline
   style="fill:none;stroke:#1a1a1a;stroke-width:0.0753"
   id="polyline455"
   points="184.036,119.017 190.406,118.564 190.406,118.116 198.168,118.281 "
   class="fil8 str12" />
  </g><path
   inkscape:connector-curvature="0"
   style="fill:url(#id8);stroke:#808080;stroke-width:0.0287"
   id="path457"
   d="m 174.197,118.917 c 5.5282,0.8134 11.8368,0.4981 17.7303,0 0.1733,0.6944 -0.359,1.3722 -0.9991,1.7844 -1.5651,0.2242 -3.2713,0.2202 -4.8944,0.2741 -3.3701,0.1163 -6.8232,0.1162 -10.2099,0 -0.7664,-0.5367 -1.3834,-1.0984 -1.6269,-2.0585 z"
   class="fil37 str1" /><circle
   style="fill:#000000;stroke:#000000;stroke-width:0.0287"
   id="circle459"
   r="0.36521399"
   cy="105.552"
   cx="153.911"
   class="fil7 str0" /><rect
   style="fill:#000000;stroke:#000000;stroke-width:0.0287"
   id="rect461"
   height="0.307163"
   width="1.5522701"
   y="105.232"
   x="155.14"
   class="fil7 str0" /><polygon
   style="fill:#000000;stroke:#000000;stroke-width:0.0287"
   id="polygon463"
   points="159.136,104.921 158.13,105.345 158.13,104.585 159.136,104.585 "
   class="fil7 str0" /><polygon
   style="fill:url(#id13);stroke:#808080;stroke-width:0.0287"
   id="polygon465"
   points="145.929,109.963 143.389,109.278 145.929,108.355 145.989,108.277 146.303,108.157 146.303,110.124 145.979,110.03 "
   class="fil38 str1" /><circle
   style="fill:none;stroke:#9999ff;stroke-width:0.0753"
   id="circle467"
   r="0.41502199"
   cy="106.32"
   cx="110.344"
   class="fil8 str13" /><rect
   style="fill:#000000"
   id="rect469"
   height="0.2656"
   width="1.92576"
   y="110.082"
   x="79.620796"
   class="fil7" /><rect
   style="fill:none;stroke:#666666;stroke-width:0.0287"
   id="rect471"
   height="0.84668303"
   width="1.1123199"
   y="110.082"
   x="94.479103"
   class="fil8 str4" />
</svg>