<?xml version="1.0" encoding="UTF-8" standalone="no"?>
<svg
   id="Layer_1"
   data-name="Layer 1"
   viewBox="0 0 94.56 122.88"
   version="1.1"
   xmlns="http://www.w3.org/2000/svg"
   xmlns:svg="http://www.w3.org/2000/svg"
   xmlns:rdf="http://www.w3.org/1999/02/22-rdf-syntax-ns#"
   xmlns:cc="http://creativecommons.org/ns#"
   xmlns:dc="http://purl.org/dc/elements/1.1/">
  <defs
     id="defs4">
    <style
       id="style2">.cls-1{fill-rule:evenodd;}</style>
  </defs>
  <title
     id="title6">euro-money-bag</title>
  <path
     class="cls-1"
     d="M38.14,21.15c-1.9-5.6-3.6-11.26-5-17,5.38-5.9,26.16-5.12,32.13-.1L59.69,17.21c3-3.91,4-5.52,5.75-7.69a17.45,17.45,0,0,1,2.11,1.63c1.57,1.43,3,3,3.26,5.2a5.38,5.38,0,0,1-1.49,4.34L56.63,35.48a27,27,0,0,1-4.78-1.22c.72-1.69,1.59-3.55,2.31-5.25l-4.62,5a17.34,17.34,0,0,0-12.3,1.5L24.37,20.05a4.3,4.3,0,0,1-1.11-2.76c0-3.73,5.58-7,8.5-8.18l6.38,12Zm16.5,27.91L52.12,37.57c10.76,2,28,23.89,33.58,33.84a94.1,94.1,0,0,1,7.38,16.93c4.06,15.14.15,29.31-16.28,32.6-10.29,2.07-29.48,2.22-40.3,1.66C24.86,122,6.86,122,2.16,110.07c-7.59-19.28,6.31-42.25,19-56.31a68.26,68.26,0,0,1,5.18-5.17c4.62-4.06,9.59-8.87,15.53-10.87L36.12,48.39l8.33-11h4.39l5.8,11.71Zm2,37.65L55.4,91.79H46.93A6.83,6.83,0,0,0,54.07,97a18.57,18.57,0,0,0,11.27-3.88V103.5a18.2,18.2,0,0,1-10.51,3q-10,0-14.73-4.54a18.81,18.81,0,0,1-5.83-10.14H29.22l1.33-5.08h3.08a16,16,0,0,1,0-3.09H29.91l1.32-5.08h3Q37.9,64.2,54.2,64.2A23.26,23.26,0,0,1,65,67.05L62.48,77.17a11.64,11.64,0,0,0-7.93-3.49,7.19,7.19,0,0,0-7.32,4.86H57.3l-1.22,5.08H46.26c-.1,1-.06,2.09-.06,3.09Z"
     id="path8" />
  <path
     style="fill:none;stroke:#000000;stroke-width:1.7;stroke-linecap:butt;stroke-linejoin:miter;stroke-opacity:1;stroke-miterlimit:4;stroke-dasharray:none"
     d="m 43.273845,66.609229 c -0.173261,0.822058 0.284398,1.876369 0,2.658462 -0.121321,0.333634 -0.40471,0.583808 -0.590769,0.886154 -1.004269,1.631937 -0.264954,0.796454 -1.92,2.806153 -0.221299,0.26872 -0.52474,0.463677 -0.738462,0.738462 -0.808839,1.039936 -1.111575,2.440807 -2.067692,3.396923 -0.03481,0.03481 0,-0.09846 0,-0.147692 0,-0.196923 -0.07314,-0.407931 0,-0.59077 0.131847,-0.329616 0.380831,-0.599873 0.590769,-0.886153 0.559248,-0.762611 1.285753,-1.404461 1.772308,-2.215385 0.31549,-0.525816 1.286909,-2.953846 2.215385,-2.953846"
     id="path1011" />
  <path
     style="fill:none;stroke:#000000;stroke-width:1px;stroke-linecap:butt;stroke-linejoin:miter;stroke-opacity:1"
     d="m 56.123076,71.926152 c -3.063504,0.369798 -6.23864,-0.158905 -9.304616,0.147693 -0.565778,0.05658 -0.996019,0.535975 -1.476923,0.738461 -0.717407,0.302066 -1.471399,0.509543 -2.215384,0.738462 -0.536495,0.165075 -1.080058,0.306937 -1.624615,0.443076 -0.04776,0.01194 -0.182504,0.03481 -0.147693,0 0.452549,-0.452548 1.184055,-0.486353 1.772308,-0.738461 0.891326,-0.381997 1.78473,-0.760853 2.658461,-1.181538 0.456684,-0.219885 0.912493,-0.449951 1.329231,-0.738462 0.441764,-0.305836 0.998596,-1.181538 1.624615,-1.181538 1.809028,0 3.667829,0.09732 5.464616,-0.147693 0.218148,-0.02975 0.386349,-0.213616 0.590769,-0.295384 0.04571,-0.01828 0.196923,0 0.147692,0 -0.582447,0 -0.210954,-0.05066 -1.033846,0.443077"
     id="path1112" />
  <path
     style="fill:none;stroke:#000000;stroke-width:1px;stroke-linecap:butt;stroke-linejoin:miter;stroke-opacity:1"
     d="m 45.636922,61.735383 c -3.029502,0 -2.105035,-0.122681 -7.236923,2.363077 -4.349867,2.106967 -6.219156,5.991725 -8.418461,10.043077 -1.895293,2.078576 -2.402466,4.855677 -3.692308,7.236923 -1.252333,2.312 -0.612734,0.96101 -2.067692,2.658461 -0.826829,0.964634 -1.468114,2.074042 -2.215385,3.101539 -0.289561,0.398147 -0.653675,0.747579 -0.886153,1.181538 -1.386385,2.587917 -1.315076,2.312592 -1.476924,4.578461 -0.01052,0.147317 -0.08023,0.319079 0,0.443077 1.62822,2.516339 3.848664,3.459687 5.907693,5.612308 0.387995,0.405631 0.656263,0.91389 1.033846,1.329226 1.181261,1.29939 3.280319,3.55788 4.726154,4.57847 1.436941,1.01431 0.809573,0.15134 1.772307,1.03384 0.410582,0.37637 0.722562,0.86599 1.181539,1.18154 1.635343,1.1243 5.693457,1.0958 7.827692,1.32923 3.248084,0.35526 6.482848,0.90325 9.747692,1.03385 1.475743,0.059 2.953846,0 4.430769,0 1.941715,0 3.988298,-0.22581 5.907692,0 1.141432,0.13428 2.255491,0.45648 3.396923,0.59077 0.604627,0.0711 4.105373,0.20024 4.430769,0 3.958803,-2.43619 3.179067,-11.273085 3.101539,-14.916926 -0.131973,-6.202738 -0.318999,-12.405335 -0.443077,-18.60923 -0.03052,-1.525849 0,-3.052308 0,-4.578462 0,-0.366591 0.08606,-2.907596 -0.147693,-3.24923 -0.416997,-0.609458 -1.184911,-0.881692 -1.772307,-1.329231 -0.44649,-0.340183 -0.847905,-0.745051 -1.329231,-1.033846 -0.266991,-0.160195 -0.607662,-0.156139 -0.886154,-0.295385 -2.98254,-1.49127 -0.09825,-0.33905 -2.658461,-1.476923 -0.702715,-0.312318 -2.417064,0.124825 -3.249231,0 -0.555107,-0.08327 -1.070935,-0.350797 -1.624615,-0.443077 -2.037815,-0.339636 -4.156457,-0.215675 -6.203077,-0.443077 -0.394484,-0.04383 -0.813016,-2.83e-4 -1.181539,-0.147692 -0.129286,-0.05172 -0.161496,-0.257131 -0.295384,-0.295385 -0.236683,-0.06762 -0.493529,0.02449 -0.738462,0 -0.990689,-0.09907 -1.964777,-0.328953 -2.953846,-0.443077 -0.541538,-0.04923 -1.083077,-0.09846 -1.624615,-0.147692 0,-0.04923 0.04403,-0.125676 0,-0.147692 -0.196923,-0.09846 -0.541539,0.09846 -0.738462,0 -0.902583,-0.451292 -0.639024,-0.492064 -1.624615,-0.738462 z"
     id="path1114" />
  <path
     style="fill:none;stroke:#000000;stroke-width:1px;stroke-linecap:butt;stroke-linejoin:miter;stroke-opacity:1"
     d="m 49.181537,66.609229 c -4.056188,4.69664 -1.920738,1.589262 -4.578461,7.236923 -0.169004,0.359133 -0.193858,1.033846 -0.590769,1.033846 -0.358406,0 0.191666,-0.690776 0.295384,-1.033846 0.536296,-1.773901 0.956269,-3.58844 1.624616,-5.316923 0.468669,-1.212075 2.684937,-6.82278 4.578461,-8.270769 0.221222,-0.169169 0.42608,0.366193 0.590769,0.590769 0.379591,0.517624 0.671381,1.094859 1.033846,1.624616 1.539689,2.250314 2.128238,2.315397 5.169231,4.578461 1.456662,1.084028 3.305618,1.608219 3.84,3.692308 0.282299,1.100964 0.406819,2.503209 -0.295385,3.396923 -4.113388,5.235222 -14.204128,2.586624 -19.052307,1.92 -0.650698,-0.08947 -1.612682,0.137413 -1.92,-0.443077 -0.964946,-1.822677 5.293531,-6.622094 6.646154,-7.236923 0.804391,-0.365633 0.03315,3.247738 0,3.396923 -0.813596,3.661181 -1.790997,4.308774 -4.135385,7.532307 -0.185409,0.254939 -0.338584,0.549324 -0.590769,0.738462 -0.07877,0.05908 -0.04668,-0.208692 0,-0.295385 0.30432,-0.565166 0.579961,-1.17073 1.033846,-1.624615 2.119212,-2.119212 4.211257,-4.307988 6.646154,-6.055384 1.788722,-1.283671 3.919894,-2.007276 5.907692,-2.953847 0.0889,-0.04233 0.376048,-0.05646 0.295385,0 -0.560302,0.392212 -1.181539,0.689231 -1.772308,1.033847"
     id="path1116" />
  <rect
     style="fill:#000000;stroke:#000000;stroke-width:1.7;stroke-miterlimit:4;stroke-dasharray:none;fill-opacity:1"
     id="rect1286"
     width="47.556923"
     height="50.510769"
     x="24.812307"
     y="59.815384" />
  <metadata
     id="metadata1354">
    <rdf:RDF>
      <cc:Work
         rdf:about="">
        <dc:title>euro-money-bag</dc:title>
      </cc:Work>
    </rdf:RDF>
  </metadata>
</svg>
