<?xml version="1.0" encoding="UTF-8" standalone="no"?>
<!-- Created with Inkscape (http://www.inkscape.org/) -->

<svg
   width="52.252739mm"
   height="40.498947mm"
   viewBox="0 0 52.252739 40.498947"
   version="1.1"
   id="svg1"
   xml:space="preserve"
   inkscape:version="1.3 (0e150ed6c4, 2023-07-21)"
   sodipodi:docname="lenaVector.svg"
   xmlns:inkscape="http://www.inkscape.org/namespaces/inkscape"
   xmlns:sodipodi="http://sodipodi.sourceforge.net/DTD/sodipodi-0.dtd"
   xmlns:xlink="http://www.w3.org/1999/xlink"
   xmlns="http://www.w3.org/2000/svg"
   xmlns:svg="http://www.w3.org/2000/svg"><sodipodi:namedview
     id="namedview1"
     pagecolor="#ffffff"
     bordercolor="#000000"
     borderopacity="0.25"
     inkscape:showpageshadow="2"
     inkscape:pageopacity="0.0"
     inkscape:pagecheckerboard="0"
     inkscape:deskcolor="#d1d1d1"
     inkscape:document-units="mm"
     inkscape:zoom="1.4162105"
     inkscape:cx="417.6639"
     inkscape:cy="342.81627"
     inkscape:window-width="2345"
     inkscape:window-height="1237"
     inkscape:window-x="1828"
     inkscape:window-y="23"
     inkscape:window-maximized="0"
     inkscape:current-layer="layer3" /><defs
     id="defs1"><linearGradient
       id="linearGradient25"
       inkscape:collect="always"><stop
         style="stop-color:#fdd382;stop-opacity:1;"
         offset="0"
         id="stop25" /><stop
         style="stop-color:#f7c179;stop-opacity:1"
         offset="1"
         id="stop26" /></linearGradient><linearGradient
       inkscape:collect="always"
       xlink:href="#linearGradient25"
       id="linearGradient26"
       x1="96.194023"
       y1="56.427761"
       x2="86.603081"
       y2="33.186039"
       gradientUnits="userSpaceOnUse" /></defs><g
     inkscape:label="Layer 1"
     inkscape:groupmode="layer"
     id="layer1"
     style="display:inline"
     transform="translate(-63.278402,-22.581251)"><path
       style="display:inline;fill:#000000;fill-opacity:1;stroke:none;stroke-width:0.3;stroke-miterlimit:1"
       d="m 73.646829,29.148693 13.226137,-3.188329 c 2.983628,3.374906 9.432375,5.755226 13.445654,7.369959 l 1.66654,7.490162 c 1.44656,0.272258 3.8115,1.189523 3.4187,5.844678 -0.39279,4.655154 -5.18209,4.23469 -5.18209,4.23469 -6.706489,13.668702 -14.039506,14.768061 -24.171917,6.845426 -2.917418,-2.281158 -3.788349,-7.281122 -3.788349,-7.281122 -1.003963,-3.106154 -3.303189,-8.844646 -3.4629,-11.844129 0.07385,-2.422562 3.444746,-6.287608 4.848225,-9.471335 z"
       id="path25"
       sodipodi:nodetypes="cccczcsczc"
       inkscape:label="faceOutline"
       inkscape:export-filename="lenaVectorial.svg"
       inkscape:export-xdpi="96"
       inkscape:export-ydpi="96" /><path
       style="display:inline;fill:url(#linearGradient26);fill-opacity:1;stroke:none;stroke-width:0.3;stroke-miterlimit:1"
       d="m 73.646829,29.148693 13.226137,-3.188329 c 2.983628,3.374906 9.432375,5.755226 13.445654,7.369959 l 1.66654,7.490162 c 1.44656,0.272258 3.8115,1.189523 3.4187,5.844678 -0.39279,4.655154 -5.509031,4.094571 -5.509031,4.094571 -5.614278,10.690837 -13.432328,14.861474 -23.564739,6.938839 -2.917418,-2.281158 -4.068586,-7.234416 -4.068586,-7.234416 -1.003963,-3.106154 -3.303189,-8.844646 -3.4629,-11.844129 0.07385,-2.422562 3.444746,-6.287608 4.848225,-9.471335 z"
       id="path24"
       sodipodi:nodetypes="cccczcsczc"
       inkscape:label="faceFill" /><path
       style="display:inline;fill:#000000;fill-opacity:1;stroke:none;stroke-width:0.3;stroke-miterlimit:1"
       d="m 97.347062,55.883219 c 2.379113,-3.548874 2.524414,-5.286957 2.524414,-5.286957 0,0 5.139594,0.724055 5.532384,-3.931099 0.3928,-4.655155 -1.78532,-5.479008 -2.97499,-5.657853 -1.18968,-0.178846 -2.09493,0.899334 -2.448643,1.624641 -0.35371,0.725308 -0.254698,2.860599 -0.660525,3.822347 -0.405828,0.961748 -1.118888,1.034175 -1.118888,1.034175 0,0 -0.274901,-1.270908 -0.318931,-4.416821 -0.04403,-3.145913 -0.272224,-4.253349 -0.272224,-4.253349 0,0 -0.12807,0.265506 -0.337588,0.912028 -0.209519,0.646522 -0.431,0.91203 -0.431,0.91203 0,0 -2.505344,-3.09581 -3.60622,-4.526949 -1.100876,-1.431139 -3.139156,-4.410183 -3.139156,-4.410183 0,0 0.388302,2.253114 0.86269,4.208706 0.474388,1.955592 1.423165,3.741644 1.423165,3.741644 0,0 -3.343383,-2.522667 -4.466276,-3.865736 -1.122894,-1.343069 -2.995031,-3.912441 -2.995031,-3.912441 0,0 -0.150803,3.003693 -0.06273,4.809129 0.08807,1.805437 0.824685,5.743255 0.824685,5.743255 0,0 -2.308522,-0.335486 -3.509488,-1.705916 -1.200967,-1.370429 -2.061595,-2.7101 -2.061595,-2.7101 0,0 -0.228872,-0.217661 -0.07475,1.19146 0.154123,1.409122 0.719252,3.923775 0.719252,3.923775 0,0 -3.220588,-3.476098 -3.991202,-5.633815 -0.770613,-2.157717 -0.899036,-3.605816 -0.899036,-3.605816 -0.04671,0.467062 -0.590949,1.806479 -1.218937,4.231655 -0.627989,2.425176 -1.160958,7.619399 -1.160958,7.619399 0,0 -1.387144,-2.007602 -1.695389,-2.976373 -0.308241,-0.968771 -0.422644,-1.178183 -0.422644,-1.178183 0,0 -0.176328,1.736119 -0.0066,3.610794 0.169691,1.874675 1.429116,5.135386 1.429116,5.135386 0,0 0.370368,4.513418 3.458086,7.032939 3.087719,2.519521 5.496983,3.535353 5.496983,3.535353 0,0 -0.413093,0.61919 -1.308429,1.36662 -0.892788,0.745304 -1.503751,0.813234 -1.503751,0.813234 0,0 -2.904469,-0.688327 -3.963154,-1.651314 -1.697729,-1.544265 -3.236576,-6.076836 -3.236576,-6.076836 0,0 -0.175109,2.461104 0.01265,3.669924 0.18931,1.218817 1.133598,3.85675 1.133598,3.85675 0,0 -1.77488,-0.979027 -2.442629,-1.70466 -0.757671,-0.82335 -1.457538,-1.935058 -1.742036,-3.245964 -0.241941,-1.114812 0.01833,-1.814177 0.131762,-2.712161 0.109689,-0.868378 0.528764,-2.572044 0.528764,-2.572044 0,0 -1.254417,1.626045 -1.764417,2.513661 -0.5064,0.881351 -1.274001,2.770544 -1.274001,2.770544 0,0 -0.199636,-2.979517 0.26421,-4.359469 0.455279,-1.354466 2.377893,-3.566838 2.377893,-3.566838 0,0 -1.128924,-1.900489 -1.448178,-3.078427 -0.319254,-1.177937 -0.467347,-3.989198 -0.467347,-3.989198 0,0 -0.607744,0.858606 -0.726578,2.774208 -0.120954,1.949785 0.528421,3.368681 0.528421,3.368681 0,0 -1.759161,-2.067421 -2.206408,-3.488766 -0.489087,-1.554312 -0.630225,-3.489594 -0.36964,-5.098067 0.171489,-1.058522 0.57947,-2.078213 1.056841,-3.038418 0.318063,-0.639766 1.188946,-1.78342 1.188946,-1.78342 0,0 -0.6301,0.404237 -1.585262,0.594474 -1.185506,0.236114 -1.651314,0 -1.651314,0 0,0 0.848299,-0.53783 2.179735,-1.78342 1.461636,-1.367395 2.420766,-3.203379 3.831048,-4.623679 1.398372,-1.408305 2.87104,-2.785013 4.557627,-3.831049 1.918858,-1.190093 4.028108,-2.123084 6.208941,-2.708155 2.075979,-0.556941 4.258487,-0.78433 6.407099,-0.726578 2.388115,0.06419 4.776542,0.512074 7.067624,1.188946 1.863178,0.550453 3.699145,1.287997 5.350258,2.31184 1.593267,0.987973 3.053037,2.227165 4.293407,3.632891 1.1475,1.300478 2.04346,2.818979 2.84026,4.359469 0.57666,1.114884 1.15175,2.267857 1.38711,3.500786 0.15275,0.800199 0,2.443945 0,2.443945 0,0 3.17485,2.541129 5.08605,3.038418 0.72478,0.188587 2.24578,-0.06605 2.24578,-0.06605 0,0 -0.9019,0.764212 -1.45315,0.924736 -1.07811,0.313948 -3.36868,0 -3.36868,0 0,0 3.09978,0.923759 4.16131,2.047629 0.85362,0.903757 1.36256,2.194878 1.45315,3.434734 0.0829,1.134453 -0.85868,3.302628 -0.85868,3.302628 0,0 -0.15617,-2.132944 -0.66052,-3.038418 -0.44704,-0.802585 -1.23915,-1.374427 -1.98158,-1.915524 -0.86768,-0.632384 -2.84026,-1.519209 -2.84026,-1.519209 0,0 1.86486,1.704306 2.31184,2.84026 0.48479,1.232035 0.44929,2.65217 0.26421,3.963154 -0.15383,1.089631 -0.56183,2.157811 -1.1229,3.10447 -0.50901,0.858832 -1.98157,2.245787 -1.98157,2.245787 0,0 0.55111,-1.752432 0.46237,-2.642102 -0.0962,-0.964238 -0.62391,-2.132721 -1.05685,-2.708155 -0.43293,-0.575434 -1.12289,-0.858684 -1.12289,-0.858684 0,0 0.0763,1.094108 -0.59447,2.245788 -0.67074,1.15168 -2.37789,2.377892 -2.37789,2.377892 0,0 -0.86753,-0.567881 -3.17053,-0.924736 -2.302992,-0.356855 -3.449145,0.0027 -3.449145,0.0027 z"
       id="path8"
       sodipodi:nodetypes="czczzzczczczczczczczczczczczczzzcscscscssscscscscscssscscsssssssssscscscsscsscssscszczczcc"
       inkscape:label="HairOutline" /><path
       style="display:inline;fill:#333332;fill-opacity:1;stroke:none;stroke-width:0.3;stroke-miterlimit:1"
       d="m 66.346178,34.912895 c 0,0 1.524343,-1.98547 2.452076,-3.059255 0.927733,-1.073785 1.995019,-2.386731 3.129317,-3.362849 1.134298,-0.976118 2.226236,-1.750248 3.619733,-2.475429 1.393497,-0.725181 3.037204,-1.361381 4.717327,-1.774836 1.680123,-0.413455 3.561798,-0.598935 5.301155,-0.653887 1.739357,-0.05495 3.567478,0.0528 5.090977,0.30359 1.523499,0.250793 2.77654,0.643047 4.016735,1.097596 1.240195,0.454549 2.297741,0.937941 3.409553,1.588012 1.111812,0.650071 2.323769,1.528585 3.222729,2.311958 0.89896,0.783373 1.58309,1.537781 2.19519,2.311956 0.6121,0.774175 1.03509,1.509203 1.4946,2.288606 0.45951,0.779403 0.9928,1.741782 1.26107,2.382017 0.26827,0.640235 0.34922,0.789834 0.44371,1.401186 0.0945,0.611352 -0.0621,1.723749 0,2.241899 0.0621,0.51815 -0.21873,0.256006 0.21018,0.864063 0.42891,0.608057 2.06449,1.469118 2.98919,1.961663 0.9247,0.492545 1.90534,0.900822 2.49879,1.050888 0.59345,0.150066 0.95747,0.09341 0.95747,0.09341 0,0 -0.88656,0.119877 -1.44789,0.140118 -0.56133,0.02024 -1.48218,-0.08568 -1.91495,-0.04671 -0.43277,0.03897 -0.67724,0.140118 -0.67724,0.140118 0,0 0.0226,0.189722 0.63053,0.630534 0.60788,0.440812 2.42519,0.902155 3.22273,1.634718 0.79754,0.732563 1.30763,1.712739 1.51795,2.452076 0.21032,0.739337 0,1.728131 0,1.728131 0,0 -0.40249,-0.823307 -0.81736,-1.307774 -0.41487,-0.484467 -0.99494,-1.007281 -1.72813,-1.4946 -0.73319,-0.487319 -2.11361,-1.225501 -2.68561,-1.331126 -0.572,-0.105625 -0.49041,0.04671 -0.49041,0.04671 0,0 2e-5,0.173343 0.21018,0.53712 0.21016,0.363777 0.8712,0.926349 1.21436,1.517955 0.34316,0.591606 0.64621,1.317304 0.79401,2.008367 0.1478,0.691063 0.14612,1.368758 0.0934,2.078427 -0.0527,0.709669 -0.243,1.573198 -0.42036,2.148485 -0.17736,0.575287 -0.37099,0.993216 -0.56047,1.307775 -0.18948,0.314559 -0.49042,0.607179 -0.49042,0.607179 0,0 -0.15411,-1.064282 -0.30359,-1.564659 -0.14948,-0.500377 -0.35048,-0.995126 -0.58383,-1.424538 -0.23335,-0.429412 -0.38076,-0.659812 -0.794,-1.144301 -0.41324,-0.484489 -1.75149,-1.681425 -1.75149,-1.681425 0,0 0.0774,0.783403 0.0467,1.237713 0.0295,1.005617 -0.33868,1.709805 -0.98083,2.428724 -0.33027,0.382778 -1.28442,1.307775 -1.28442,1.307775 0,0 0.0349,-0.481381 0.0934,-0.817359 0.0585,-0.335978 0.25618,-0.716861 0.28024,-1.191009 0.0241,-0.474148 -0.0665,-1.148189 -0.21018,-1.611365 -0.14365,-0.463176 -0.58383,-1.144302 -0.58383,-1.144302 0,0 0.91237,-0.788531 1.30778,-1.331127 0.39541,-0.542596 0.7613,-1.215378 1.00418,-1.914956 0.24288,-0.699578 0.39887,-1.520739 0.42036,-2.241896 0.0215,-0.721157 -0.063,-1.380969 -0.25689,-2.03172 -0.19388,-0.650751 -0.52974,-1.330534 -0.88742,-1.821542 -0.35768,-0.491008 -0.73643,-0.843779 -1.16765,-1.12095 -0.43122,-0.277171 -0.83322,-0.48576 -1.35448,-0.537123 -0.52126,-0.05136 -1.13367,0.09368 -1.65807,0.303591 -0.5244,0.209907 -1.424541,0.934125 -1.424541,0.934125 L 97.98961,34.866188 c 0,0 -0.192926,1.565257 -0.397005,2.311955 -0.204079,0.746698 -0.817358,2.148488 -0.817358,2.148488 0,0 -1.641385,-2.645192 -2.77902,-4.040089 -1.137635,-1.394897 -3.84842,-4.287981 -4.086793,-4.250264 -0.156637,0.07275 -0.255012,0.67415 -0.23353,1.541304 0.02148,0.867154 0.491339,2.724696 0.723945,3.573025 0.232606,0.848329 0.537123,1.541307 0.537123,1.541307 0,0 -1.443992,-1.233826 -2.113456,-1.914956 -0.669464,-0.68113 -1.216543,-1.327681 -1.903279,-2.171838 -0.686736,-0.844157 -2.031722,-3.059258 -2.031722,-3.059258 -0.513769,0.545627 -0.580228,1.275678 -0.677238,1.985013 -0.09939,0.730926 -0.211253,2.076086 -0.21018,3.012551 0.0011,0.936465 0.061,1.612871 0.186825,2.592197 0.125829,0.979326 0.607182,3.269435 0.607182,3.269435 0,0 -0.90501,-0.166233 -1.471247,-0.513771 -0.566237,-0.347538 -1.273643,-1.088984 -1.751481,-1.681422 -0.477838,-0.592438 -0.81149,-1.175933 -1.12095,-1.821542 -0.30946,-0.645609 -0.582461,-1.43386 -0.723947,-2.031722 -0.141486,-0.597862 -0.186825,-1.517952 -0.186825,-1.517952 0,0 -0.110234,1.63409 -0.116766,2.405372 -0.0065,0.771282 -0.0083,1.356196 0.07006,2.218545 0.07836,0.862349 0.443709,2.942492 0.443709,2.942492 0,0 -0.949337,-0.91884 -1.377833,-1.588014 -0.428496,-0.669174 -0.739484,-1.449135 -1.097598,-2.428721 -0.358114,-0.979586 -0.686976,-2.086081 -0.980829,-3.45626 -0.293853,-1.370179 -0.700595,-4.764035 -0.700595,-4.764035 0,0 -0.03361,1.87818 -0.140118,2.708961 -0.106508,0.830781 -0.256917,1.399677 -0.467061,2.265251 -0.210144,0.865574 -0.531438,1.760074 -0.817359,2.91914 -0.285921,1.159066 -0.670895,2.955755 -0.864066,4.040087 -0.193171,1.084332 -0.350295,2.452076 -0.350295,2.452076 0,0 -0.778629,-1.517842 -1.05089,-2.405369 -0.272261,-0.887527 -0.537123,-2.895785 -0.537123,-2.895785 0,0 -0.475934,0.498022 -0.770652,2.148485 -0.294718,1.650463 -0.250362,6.210405 -0.07006,7.776583 0.180302,1.566178 0.18005,0.994518 0.397002,1.634717 0.216952,0.640199 0.844647,1.636212 0.957477,2.171841 0.11283,0.535629 0.07345,0.314138 0,0.91077 -0.07345,0.596632 -0.527112,1.793781 -0.653886,2.615549 -0.126774,0.821768 -0.155965,1.573945 -0.140118,2.288603 0.01585,0.714658 0.07215,1.304185 0.210177,1.985015 0.138023,0.68083 0.630534,2.078427 0.630534,2.078427 0,0 -1.017171,-0.931453 -1.447893,-1.517952 -0.430722,-0.586499 -0.886366,-1.242854 -1.097595,-1.985015 -0.211229,-0.742161 -0.157212,-1.462882 -0.116765,-2.358663 0.04045,-0.895781 0.331137,-2.280217 0.420356,-2.989198 0.08922,-0.708981 0.140118,-1.261068 0.140118,-1.261068 0,0 -0.646515,0.447235 -1.097597,0.934125 -0.451082,0.48689 -1.116365,1.432894 -1.4946,2.055074 -0.378235,0.62218 -0.817358,1.634717 -0.817358,1.634717 0,0 0.07316,-1.503131 0.30359,-2.17184 0.230426,-0.668709 0.54233,-1.11232 1.027539,-1.774835 0.485209,-0.662515 1.535489,-1.606835 1.938308,-2.125134 0.402819,-0.518299 0.516664,-0.596367 0.583827,-0.887417 0.06716,-0.29105 0.06066,-0.279106 -0.09341,-0.723945 -0.154067,-0.444839 -0.771547,-1.094984 -1.074242,-1.798191 -0.302695,-0.703207 -0.513318,-1.359014 -0.677241,-2.405369 -0.163923,-1.046355 -0.22191,-2.527197 -0.140118,-3.853265 0.08179,-1.326068 0.653889,-4.063439 0.653889,-4.063439 0,0 -1.456207,2.418923 -1.938309,3.549671 -0.482102,1.130748 -0.767183,2.159867 -1.004184,3.176024 -0.237001,1.016157 -0.443708,2.895785 -0.443708,2.895785 0,0 -0.277195,-0.770682 -0.397005,-1.564658 -0.11981,-0.793976 -0.263323,-2.172812 -0.16347,-3.199376 0.09985,-1.026564 0.309385,-1.875855 0.723945,-2.895785 0.41456,-1.01993 1.226848,-2.286426 1.821542,-3.129317 0.594694,-0.842891 1.658073,-1.961661 1.658073,-1.961661 z"
       id="path23"
       sodipodi:nodetypes="czzzzzzzzzzzzzzzzzczzczzzczzzczzzzzzczzzczzczzzczzzzzzzzcczczczzczzczzzczzzzczzczzzczzzzczczzzzzzzzczzzzczzczzzzzzzzczzczzzzcc"
       inkscape:label="hairFill" /><path
       style="display:inline;fill:#524f52;fill-opacity:1;stroke:none;stroke-width:0.3;stroke-miterlimit:1"
       d="m 92.242403,26.595831 c 0.248974,-0.699364 3.115997,0.261474 4.293418,1.221973 1.177421,0.960499 2.614443,3.686587 2.146707,4.128283 -0.467736,0.441696 -2.428566,-1.813601 -3.500784,-2.708154 -1.072218,-0.894553 -3.188315,-1.942738 -2.939341,-2.642102 z"
       id="path9"
       sodipodi:nodetypes="zzzzz"
       inkscape:label="hairSpec1" /><path
       style="display:inline;fill:#424242;fill-opacity:1;stroke:none;stroke-width:0.3;stroke-miterlimit:1"
       d="m 72.604812,31.176399 c 0.895884,-0.199163 1.54022,0.521972 1.821542,1.331126 0.281322,0.809154 -0.177837,2.094049 -0.770652,2.77902 -0.592815,0.684971 -1.631685,1.427816 -2.33531,1.027538 -0.703625,-0.400278 -0.455296,-1.379279 -0.280239,-2.288606 0.175057,-0.909327 0.668775,-2.649915 1.564659,-2.849078 z"
       id="path10"
       sodipodi:nodetypes="zzzzzz"
       inkscape:label="hairSpec2" /><path
       style="display:inline;fill:#fefefe;fill-opacity:1;stroke:none;stroke-width:0.3;stroke-miterlimit:1"
       d="m 87.453593,45.64232 c 0.135868,1.639612 2.774755,2.564539 4.359468,2.410921 1.584713,-0.153618 3.610429,-1.390184 3.500787,-2.939341 -0.109642,-1.549157 -2.425666,-2.601012 -4.029207,-2.509996 -1.603541,0.09102 -3.966916,1.398804 -3.831048,3.038416 z"
       id="path11"
       sodipodi:nodetypes="zzzzz"
       inkscape:label="eyeR" /><path
       style="display:inline;fill:#fefefe;fill-opacity:1;stroke:none;stroke-width:0.3;stroke-miterlimit:1"
       d="m 78.899785,50.827447 c 1.473695,-0.342027 2.722048,-1.423767 2.509999,-2.840259 -0.21205,-1.416492 -2.523809,-2.699897 -4.095257,-2.509999 -1.571449,0.189898 -3.632643,1.705249 -3.30263,3.335655 0.330012,1.630406 3.414193,2.35663 4.887888,2.014603 z"
       id="path12"
       sodipodi:nodetypes="zzzzz"
       inkscape:label="eyeL" /><ellipse
       style="display:inline;fill:#000000;fill-opacity:1;stroke:none;stroke-width:0.3;stroke-miterlimit:1"
       id="path15"
       cx="91.713989"
       cy="45.460678"
       rx="2.6421025"
       ry="2.6586156"
       inkscape:label="pupilR" /><ellipse
       style="display:inline;fill:#000000;fill-opacity:1;stroke:none;stroke-width:0.3;stroke-miterlimit:1"
       id="ellipse15"
       cx="78.503479"
       cy="48.267914"
       rx="2.6421025"
       ry="2.6586156"
       inkscape:label="pupilL" /><path
       style="display:inline;fill:#010000;fill-opacity:1;stroke:none;stroke-width:0.3;stroke-miterlimit:1"
       d="m 87.156356,45.477189 c 0.616824,0.606899 0.588806,-1.668794 4.111772,-2.122666 3.522966,-0.453872 3.432145,1.195479 4.337289,1.255484 0.733694,0.115403 1.015233,-0.436749 1.442312,-0.98229 -0.378615,0.193154 -0.701078,0.116715 -1.106382,0.06605 l 0.181644,-1.023813 -1.238485,-0.04954 c 0,0 -2.328785,-0.970315 -3.451246,-0.924735 -1.122461,0.04558 -2.380831,0.405864 -3.15401,1.089866 -0.77318,0.684001 -1.619494,2.203039 -1.122894,2.691648 z"
       id="path13"
       sodipodi:nodetypes="zzzcccczzzz"
       inkscape:label="eyebrowr" /><path
       style="display:inline;fill:#000000;fill-opacity:1;stroke:none;stroke-width:0.3;stroke-miterlimit:1"
       d="m 81.04696,46.566095 c 0.159357,-0.184183 -0.701409,-1.051522 -1.366156,-1.377831 -0.664747,-0.326309 -1.333283,-0.415021 -2.031722,-0.420357 -0.698439,-0.0053 -1.463861,0.113855 -2.078426,0.397002 -0.614565,0.283147 -1.143272,0.819501 -1.517952,1.214363 -0.37468,0.394862 -0.770652,1.074243 -0.770652,1.074243 l -0.770654,0.326943 c 0.59513,0.580806 0.79897,0.954794 1.658071,0.794005 0.725206,-0.167976 1.022911,-1.856296 3.234406,-2.230222 2.131034,-0.360322 3.483727,0.406038 3.643085,0.221854 z"
       id="path14"
       sodipodi:nodetypes="zzzzzcczzz"
       inkscape:label="eyebrowLK" /><path
       style="display:inline;fill:#000000;fill-opacity:1;stroke:none;stroke-width:0.3;stroke-miterlimit:1"
       d="m 86.599604,51.462273 c 1.835582,-0.494428 4.77729,-1.350823 5.180432,-1.03114 0.403142,0.319683 1.362661,2.409661 1.023816,3.963152 -0.338845,1.553491 -1.832256,3.426795 -3.154497,4.017186 -1.322241,0.590391 -2.856457,0.522735 -4.144312,0.04505 -1.287855,-0.477689 -2.72082,-1.742066 -3.434734,-2.708153 -0.713914,-0.966087 -1.212161,-2.300189 -1.023815,-2.642103 0.188346,-0.341914 3.717528,-1.14956 5.55311,-1.643988 z"
       id="path16"
       sodipodi:nodetypes="zzzzzzzzz"
       inkscape:label="mouth" /><path
       style="display:inline;fill:#fefefe;fill-opacity:1;stroke:none;stroke-width:0.3;stroke-miterlimit:1"
       d="m 82.226291,53.175025 8.967595,-2.428723 c 0,0 0.417942,0.426871 0.280235,0.864065 -0.137707,0.437195 -3.510937,1.7457 -5.067623,2.055075 -1.556686,0.309375 -3.697048,0.127249 -4.016734,0.02335 -0.319686,-0.103903 -0.163473,-0.513763 -0.163473,-0.513763 z"
       id="path17"
       sodipodi:nodetypes="cczzzc"
       inkscape:label="teeth" /><path
       style="display:inline;fill:#da3d2c;fill-opacity:1;stroke:none;stroke-width:0.3;stroke-miterlimit:1"
       d="m 83.977775,56.584579 c -0.01274,-0.245771 1.821533,-2.427462 2.171838,-2.568842 0.350305,-0.14138 3.054687,-1.092157 3.36285,-1.191007 0.308163,-0.09885 2.18753,0.123806 2.358661,0.350296 0.171131,0.22649 0.05394,1.687829 -0.303588,2.475429 -0.357533,0.7876 -0.979754,1.544239 -1.79819,2.008367 -0.818436,0.464128 -1.824129,0.643366 -2.638902,0.607181 -0.814772,-0.03618 -1.488879,-0.259294 -2.008367,-0.53712 -0.519489,-0.277826 -1.131566,-0.898534 -1.144302,-1.144304 z"
       id="path18"
       sodipodi:nodetypes="zzzzzzzzz"
       inkscape:label="tongue" /><path
       style="display:inline;fill:#040405;fill-opacity:1;stroke:none;stroke-width:0.3;stroke-miterlimit:1"
       d="m 87.340623,41.381708 c 0.246739,0.199874 0.563237,-0.942667 2.685607,-1.517954 2.122369,-0.575288 3.46455,0.182542 3.526319,-0.116766 0.06177,-0.299308 -2.142195,-1.094556 -3.68979,-0.817358 -1.547595,0.277198 -2.034424,0.901853 -2.382018,1.42454 -0.347595,0.522687 -0.386857,0.827664 -0.140118,1.027538 z"
       id="path19"
       sodipodi:nodetypes="zzzzzz"
       inkscape:label="eyebrowR" /><path
       style="display:inline;fill:#030101;fill-opacity:1;stroke:none;stroke-width:0.3;stroke-miterlimit:1"
       d="m 78.701629,43.033246 c 0.07644,-0.391379 -1.167271,-1.257319 -2.922826,-0.99079 -1.755555,0.266528 -2.927573,1.535537 -2.790721,1.849471 0.136852,0.313934 0.725937,-0.809102 2.972366,-1.056841 2.246429,-0.247739 2.664746,0.589539 2.741181,0.19816 z"
       id="path20"
       sodipodi:nodetypes="zzzzz"
       inkscape:label="eyebrowL" /><path
       style="display:inline;fill:#feaa5f;fill-opacity:1;stroke:none;stroke-width:0.3;stroke-miterlimit:1"
       d="m 82.751738,48.352608 c -0.281103,0.144095 -0.196939,0.791044 -0.03503,1.062568 0.161907,0.271524 0.518113,0.655991 0.770651,0.490415 0.252538,-0.165576 -0.09629,-0.554962 -0.245207,-0.817358 -0.148961,-0.262396 -0.209312,-0.87972 -0.490414,-0.735625 z"
       id="path21"
       sodipodi:nodetypes="zzzzz"
       inkscape:label="nose" /><path
       style="display:inline;fill:#f69d4e;fill-opacity:1;stroke:none;stroke-width:0.3;stroke-miterlimit:1"
       d="m 102.36496,43.082784 c 0.94527,0.03103 1.54221,0.818525 1.70085,1.502695 0.15864,0.68417 0.0797,1.726162 -0.19816,2.394406 -0.27783,0.668244 -0.72482,1.183782 -1.28802,1.502695 -0.5632,0.318913 -1.79065,0.471173 -1.91552,0.26421 -0.12487,-0.206963 0.18651,-0.922861 0.2477,-1.304536 0.0612,-0.381675 0.0559,-0.704485 -0.0661,-1.007303 -0.12202,-0.302818 -0.26068,-0.283184 -0.3798,-0.693552 -0.11912,-0.410368 -0.11294,-0.960408 0.19816,-1.519208 0.3111,-0.5588 0.75561,-1.17044 1.70089,-1.139407 z"
       id="path22"
       sodipodi:nodetypes="zzzzzzzzzz"
       inkscape:label="ear" /></g></svg>
