{
 "asset": {
  "version": "2.0",
  "generator": "flyDiy: hand-authored quad for the plan sheet (see tools/props_table.py)"
 },
 "scene": 0,
 "scenes": [
  {
   "nodes": [
    0
   ]
  }
 ],
 "nodes": [
  {
   "mesh": 0,
   "name": "plan_sheet"
  }
 ],
 "meshes": [
  {
   "name": "plan_sheet",
   "primitives": [
    {
     "attributes": {
      "POSITION": 0,
      "NORMAL": 1,
      "TEXCOORD_0": 2
     },
     "indices": 3,
     "material": 0,
     "mode": 4
    }
   ]
  }
 ],
 "materials": [
  {
   "name": "plan_paper",
   "pbrMetallicRoughness": {
    "baseColorTexture": {
     "index": 0
    },
    "baseColorFactor": [
     1,
     1,
     1,
     1
    ],
    "metallicFactor": 0.0,
    "roughnessFactor": 0.88
   },
   "doubleSided": false
  }
 ],
 "textures": [
  {
   "source": 0
  }
 ],
 "images": [
  {
   "uri": "plan_avion.webp",
   "name": "plan_avion.webp"
  }
 ],
 "accessors": [
  {
   "bufferView": 0,
   "componentType": 5126,
   "count": 4,
   "type": "VEC3",
   "min": [
    -0.7,
    -1.05,
    0.004
   ],
   "max": [
    0.7,
    0.0,
    0.004
   ]
  },
  {
   "bufferView": 1,
   "componentType": 5126,
   "count": 4,
   "type": "VEC3"
  },
  {
   "bufferView": 2,
   "componentType": 5126,
   "count": 4,
   "type": "VEC2"
  },
  {
   "bufferView": 3,
   "componentType": 5123,
   "count": 6,
   "type": "SCALAR"
  }
 ],
 "bufferViews": [
  {
   "buffer": 0,
   "byteOffset": 0,
   "byteLength": 48,
   "target": 34962
  },
  {
   "buffer": 0,
   "byteOffset": 48,
   "byteLength": 48,
   "target": 34962
  },
  {
   "buffer": 0,
   "byteOffset": 96,
   "byteLength": 32,
   "target": 34962
  },
  {
   "buffer": 0,
   "byteOffset": 128,
   "byteLength": 12,
   "target": 34963
  }
 ],
 "buffers": [
  {
   "byteLength": 140,
   "uri": "data:application/octet-stream;base64,"
  }
 ]
}