{
  "asset": {
    "generator": "Khronos glTF Blender I/O v5.1.19",
    "version": "2.0"
  },
  "scene": 0,
  "scenes": [
    {
      "name": "Scene",
      "nodes": [
        0
      ]
    }
  ],
  "nodes": [
    {
      "mesh": 0,
      "name": "old_military_compressor"
    }
  ],
  "materials": [
    {
      "doubleSided": true,
      "name": "old_military_compressor",
      "normalTexture": {
        "index": 0
      },
      "pbrMetallicRoughness": {
        "baseColorTexture": {
          "index": 1
        },
        "metallicRoughnessTexture": {
          "index": 2
        }
      }
    },
    {
      "alphaMode": "BLEND",
      "doubleSided": true,
      "name": "old_military_compressor_glass",
      "normalTexture": {
        "index": 3
      },
      "pbrMetallicRoughness": {
        "baseColorTexture": {
          "index": 4
        },
        "metallicRoughnessTexture": {
          "index": 5
        }
      }
    }
  ],
  "meshes": [
    {
      "name": "compressor_low.002",
      "primitives": [
        {
          "attributes": {
            "POSITION": 0,
            "NORMAL": 1,
            "TEXCOORD_0": 2
          },
          "indices": 3,
          "material": 0
        },
        {
          "attributes": {
            "POSITION": 4,
            "NORMAL": 5,
            "TEXCOORD_0": 6
          },
          "indices": 7,
          "material": 1
        }
      ]
    }
  ],
  "textures": [
    {
      "sampler": 0,
      "source": 0
    },
    {
      "sampler": 0,
      "source": 1
    },
    {
      "sampler": 0,
      "source": 2
    },
    {
      "sampler": 0,
      "source": 0
    },
    {
      "sampler": 0,
      "source": 3
    },
    {
      "sampler": 0,
      "source": 2
    }
  ],
  "images": [
    {
      "mimeType": "image/jpeg",
      "name": "old_military_compressor_nor_gl",
      "uri": "textures/old_military_compressor_nor_gl_1k.jpg"
    },
    {
      "mimeType": "image/jpeg",
      "name": "old_military_compressor_diff",
      "uri": "textures/old_military_compressor_diff_1k.jpg"
    },
    {
      "mimeType": "image/jpeg",
      "name": "old_military_compressor_metal-old_military_compressor_rough",
      "uri": "textures/old_military_compressor_arm_1k.jpg"
    },
    {
      "mimeType": "image/jpeg",
      "name": "old_military_compressor_diff",
      "uri": "textures/old_military_compressor_diff_1k.jpg"
    }
  ],
  "accessors": [
    {
      "bufferView": 0,
      "componentType": 5126,
      "count": 58183,
      "max": [
        -0.12284350395202637,
        1.1774601936340332,
        -3.381044864654541
      ],
      "min": [
        -0.721126139163971,
        -0.0016261767596006393,
        -5.056589126586914
      ],
      "type": "VEC3"
    },
    {
      "bufferView": 1,
      "componentType": 5126,
      "count": 58183,
      "type": "VEC3"
    },
    {
      "bufferView": 2,
      "componentType": 5126,
      "count": 58183,
      "type": "VEC2"
    },
    {
      "bufferView": 3,
      "componentType": 5123,
      "count": 236358,
      "type": "SCALAR"
    },
    {
      "bufferView": 4,
      "componentType": 5126,
      "count": 170,
      "max": [
        -0.38528716564178467,
        0.8735313415527344,
        -3.6391515731811523
      ],
      "min": [
        -0.4110568165779114,
        0.8516324162483215,
        -3.6649210453033447
      ],
      "type": "VEC3"
    },
    {
      "bufferView": 5,
      "componentType": 5126,
      "count": 170,
      "type": "VEC3"
    },
    {
      "bufferView": 6,
      "componentType": 5126,
      "count": 170,
      "type": "VEC2"
    },
    {
      "bufferView": 7,
      "componentType": 5123,
      "count": 768,
      "type": "SCALAR"
    }
  ],
  "bufferViews": [
    {
      "buffer": 0,
      "byteLength": 698196,
      "byteOffset": 0,
      "target": 34962
    },
    {
      "buffer": 0,
      "byteLength": 698196,
      "byteOffset": 698196,
      "target": 34962
    },
    {
      "buffer": 0,
      "byteLength": 465464,
      "byteOffset": 1396392,
      "target": 34962
    },
    {
      "buffer": 0,
      "byteLength": 472716,
      "byteOffset": 1861856,
      "target": 34963
    },
    {
      "buffer": 0,
      "byteLength": 2040,
      "byteOffset": 2334572,
      "target": 34962
    },
    {
      "buffer": 0,
      "byteLength": 2040,
      "byteOffset": 2336612,
      "target": 34962
    },
    {
      "buffer": 0,
      "byteLength": 1360,
      "byteOffset": 2338652,
      "target": 34962
    },
    {
      "buffer": 0,
      "byteLength": 1536,
      "byteOffset": 2340012,
      "target": 34963
    }
  ],
  "samplers": [
    {
      "magFilter": 9729,
      "minFilter": 9987
    }
  ],
  "buffers": [
    {
      "byteLength": 2341548,
      "uri": "old_military_compressor.bin"
    }
  ]
}