# Blender 4.0.2
# www.blender.org
mtllib templatePlaneProcedural_0_nocc.mtl
o templatePlaneProcedural_0
v 0.554104 0.091103 1.823224
v 0.000000 -0.921275 1.823224
v 0.554104 -0.816075 3.379546
v 0.528965 0.091103 3.379546
v 0.053446 -0.077750 -3.992454
v 0.053446 0.091103 -3.992453
v 0.053446 0.500000 -3.992454
v 0.431009 1.000000 1.823224
v 0.554104 -0.656475 0.066554
v 0.554104 0.091103 0.066554
v 0.431009 0.677945 0.066554
v 0.000000 1.000000 1.823224
v 0.000000 -0.816075 3.379546
v 0.000000 0.091103 3.938426
v 0.000000 1.000000 2.667615
v -0.000000 -0.077750 -3.992454
v -0.000000 0.500000 -3.992454
v 0.431009 1.000000 2.667615
v 0.554104 -0.921275 1.823224
v 0.000000 -0.656475 0.066554
v 0.000000 0.677945 0.066554
v 0.053446 0.091103 -4.162269
v 0.053446 -0.077750 -4.162268
v 0.053446 0.500000 -4.162268
v -0.000000 0.091103 -4.162269
v -0.000000 -0.077750 -4.162268
v -0.000000 0.500000 -4.162268
v -0.554104 0.091103 1.823224
v -0.554104 -0.816075 3.379546
v -0.528965 0.091103 3.379546
v -0.053446 -0.077750 -3.992454
v -0.053446 0.091103 -3.992453
v -0.053446 0.500000 -3.992454
v -0.431009 1.000000 1.823224
v -0.554104 -0.656475 0.066554
v -0.554104 0.091103 0.066554
v -0.431009 0.677945 0.066554
v -0.431009 1.000000 2.667615
v -0.554104 -0.921275 1.823224
v -0.053446 0.091103 -4.162269
v -0.053446 -0.077750 -4.162268
v -0.053446 0.500000 -4.162268
v 0.310118 -0.698364 4.021821
v 0.000000 -0.701709 4.025031
v 0.000000 0.091103 4.029000
v 0.527223 0.091103 4.025818
v -0.310118 -0.698364 4.021821
v -0.527223 0.091103 4.025818
v 0.531061 0.091103 2.585791
v 0.431009 1.000000 2.585791
v -0.531061 0.091103 2.585791
v -0.431009 1.000000 2.585791
v 0.554104 -0.915322 2.585791
v 0.000000 -0.915322 2.585791
v 0.000000 1.000000 2.585791
v -0.554104 -0.915322 2.585791
vn 0.9744 0.1107 -0.1959
vn -0.9997 -0.0252 0.0003
vn -0.0000 -0.0000 1.0000
vn 0.9998 -0.0114 -0.0151
vn -0.0000 1.0000 -0.0078
vn -0.0000 0.9900 0.1412
vn -0.0000 -1.0000 -0.0000
vn -0.9924 -0.1218 -0.0150
vn -0.3612 -0.6962 -0.6204
vn -1.0000 -0.0000 -0.0000
vn -0.9925 -0.0000 0.1224
vn -0.0000 -0.9990 0.0438
vn -0.9940 -0.1092 -0.0024
vn -0.0000 0.9888 0.1491
vn -0.0000 1.0000 -0.0000
vn -0.0077 0.0061 -1.0000
vn -0.9998 -0.0114 -0.0151
vn 0.3612 -0.6962 -0.6204
vn 1.0000 -0.0000 -0.0000
vn 0.9865 -0.1220 0.1094
vn 0.9925 -0.0000 0.1224
vn -0.9744 0.1107 -0.1959
vn -0.0000 -0.9836 0.1803
vn 0.0077 0.0061 -1.0000
vn -0.0000 0.9923 -0.1241
vn 0.9924 -0.1218 -0.0150
vn -0.9866 -0.1624 0.0149
vn 0.0045 0.9840 -0.1782
vn 0.9866 -0.1624 0.0149
vn -0.9865 -0.1220 0.1094
vn 0.9997 -0.0252 0.0003
vn 0.9940 -0.1092 -0.0024
vn -0.0045 0.9840 -0.1782
vt 0.375000 0.750000
vt 0.625000 0.750000
vt 0.625000 0.750000
vt 0.625000 0.500000
vt 0.625000 0.625000
vt 0.375000 0.625000
vt 0.375000 0.500000
s 0
usemtl body
f 29/1/1 30/2/1 48/2/1 47/1/1
f 53/1/2 3/1/2 4/2/2 49/3/2
f 40/4/3 25/4/3 27/4/3 42/4/3
f 28/5/4 51/2/4 56/1/4 39/6/4
f 56/1/5 54/1/5 2/6/5 39/6/5
f 35/7/6 20/7/6 16/7/6 31/7/6
f 5/7/10 6/4/10 22/4/10 23/7/10
f 9/7/11 10/4/11 6/4/11 5/7/11
f 7/4/12 11/4/12 21/4/12 17/4/12
f 17/4/12 21/4/12 37/4/12 33/4/12
f 19/6/14 9/7/14 20/7/14 2/6/14
f 16/7/15 5/7/15 23/7/15 26/7/15
f 46/2/16 43/1/16 44/1/16 45/2/16
f 49/3/17 1/5/17 19/6/17 53/1/17
f 7/4/7 17/4/7 27/4/7 24/4/7
f 33/4/7 42/4/7 27/4/7 17/4/7
f 23/7/3 22/4/3 25/4/3 26/7/3
f 16/7/15 26/7/15 41/7/15 31/7/15
f 31/7/19 41/7/19 40/4/19 32/4/19
f 4/2/7 46/2/7 45/2/7 14/2/7
f 40/4/19 42/4/19 33/4/19 32/4/19
f 37/4/20 36/4/20 32/4/20 33/4/20
f 35/7/21 31/7/21 32/4/21 36/4/21
f 43/1/22 46/2/22 4/2/22 3/1/22
f 41/7/3 26/7/3 25/4/3 40/4/3
f 48/2/24 45/2/24 44/1/24 47/1/24
f 29/1/25 13/1/25 54/1/25 56/1/25
f 3/1/25 53/1/25 54/1/25 13/1/25
f 9/7/6 5/7/6 16/7/6 20/7/6
f 28/5/19 39/6/19 35/7/19 36/4/19
f 22/4/3 24/4/3 27/4/3 25/4/3
f 24/4/10 22/4/10 6/4/10 7/4/10
f 29/1/28 47/1/28 44/1/28 13/1/28
f 14/2/7 45/2/7 48/2/7 30/2/7
f 7/4/30 6/4/30 10/4/30 11/4/30
f 29/1/31 56/1/31 51/2/31 30/2/31
f 1/5/10 10/4/10 9/7/10 19/6/10
f 53/1/5 19/6/5 2/6/5 54/1/5
f 2/6/14 20/7/14 35/7/14 39/6/14
f 13/1/33 44/1/33 43/1/33 3/1/33
usemtl windshield
f 18/2/9 4/2/9 14/2/9 15/2/9
f 15/2/18 14/2/18 30/2/18 38/2/18
usemtl skyWindows
f 8/5/7 50/2/7 55/2/7 12/5/7
f 12/5/7 55/2/7 52/2/7 34/5/7
f 34/5/23 37/4/23 21/4/23 12/5/23
f 50/2/7 18/2/7 15/2/7 55/2/7
f 55/2/7 15/2/7 38/2/7 52/2/7
f 12/5/23 21/4/23 11/4/23 8/5/23
usemtl pilotWindow
f 8/5/8 1/5/8 49/3/8 50/2/8
f 50/2/13 49/3/13 4/2/13 18/2/13
f 28/5/26 34/5/26 52/2/26 51/2/26
f 51/2/32 52/2/32 38/2/32 30/2/32
usemtl pasengerWindow
f 11/4/27 10/4/27 1/5/27 8/5/27
f 34/5/29 28/5/29 36/4/29 37/4/29
