# Blender 4.0.2
# www.blender.org
mtllib templatePlaneProcedural_1_nocc.mtl
o templatePlaneProcedural_1
v 0.554104 -0.921275 1.923224
v 0.554104 0.091103 1.923224
v 0.554104 0.091103 1.823224
v 0.000000 -0.921275 1.823224
v 0.554104 -0.816075 3.379546
v 0.528965 0.091103 3.379546
v 0.431009 1.000000 1.923224
v 0.053446 -0.077750 -3.992454
v 0.053446 0.091103 -3.992453
v 0.053446 0.500000 -3.992454
v 0.431009 1.000000 1.823224
v 0.554104 -0.656475 0.066554
v 0.554104 0.091103 0.066554
v 0.431009 0.677945 0.066554
v 0.000000 -0.921275 1.923224
v 0.000000 1.000000 1.823224
v 0.000000 -0.816075 3.379546
v 0.000000 0.091103 3.938426
v 0.000000 1.000000 1.923224
v 0.000000 1.000000 2.667615
v -0.000000 -0.077750 -3.992454
v -0.000000 0.500000 -3.992454
v 0.431009 1.000000 2.667615
v 0.554104 -0.921275 1.823224
v 0.000000 -0.656475 0.066554
v 0.000000 0.677945 0.066554
v 0.053446 0.091103 -4.162269
v 0.053446 -0.077750 -4.162268
v 0.053446 0.500000 -4.162268
v -0.000000 0.091103 -4.162269
v -0.000000 -0.077750 -4.162268
v -0.000000 0.500000 -4.162268
v -0.554104 -0.921275 1.923224
v -0.554104 0.091103 1.923224
v -0.554104 0.091103 1.823224
v -0.554104 -0.816075 3.379546
v -0.528965 0.091103 3.379546
v -0.431009 1.000000 1.923224
v -0.053446 -0.077750 -3.992454
v -0.053446 0.091103 -3.992453
v -0.053446 0.500000 -3.992454
v -0.431009 1.000000 1.823224
v -0.554104 -0.656475 0.066554
v -0.554104 0.091103 0.066554
v -0.431009 0.677945 0.066554
v -0.431009 1.000000 2.667615
v -0.554104 -0.921275 1.823224
v -0.053446 0.091103 -4.162269
v -0.053446 -0.077750 -4.162268
v -0.053446 0.500000 -4.162268
v -0.000000 -0.077750 -4.072031
v 0.053446 0.091103 -4.072031
v 0.053446 -0.077750 -4.072031
v -0.000000 0.500000 -4.072031
v 0.053446 0.500000 -4.072031
v -0.053446 0.091103 -4.072031
v -0.053446 -0.077750 -4.072031
v -0.053446 0.500000 -4.072031
v 0.554104 -0.646919 -0.008487
v 0.431009 0.677945 -0.008487
v 0.554104 0.091103 -0.008487
v 0.000000 -0.646919 -0.008487
v 0.000000 0.677945 -0.008487
v -0.554104 -0.646919 -0.008487
v -0.431009 0.677945 -0.008487
v -0.554104 0.091103 -0.008487
v 0.310118 -0.698364 4.021821
v 0.000000 -0.701709 4.025031
v 0.000000 0.091103 4.029000
v 0.527223 0.091103 4.025818
v -0.310118 -0.698364 4.021821
v -0.527223 0.091103 4.025818
v 0.000000 0.091103 4.002276
v -0.527526 0.091103 3.994212
v 0.527526 0.091103 3.994212
v -0.312862 -0.706156 3.990909
v 0.312862 -0.706156 3.990909
v 0.000000 -0.708920 3.993562
v 0.531061 0.091103 2.585791
v 0.431009 1.000000 2.585791
v -0.531061 0.091103 2.585791
v -0.431009 1.000000 2.585791
v 0.554104 -0.915322 2.585791
v 0.000000 -0.915322 2.585791
v 0.000000 1.000000 2.585791
v -0.554104 -0.915322 2.585791
v 0.438413 0.939850 1.923224
v 0.053446 0.469925 -3.992454
v 0.438413 0.637167 0.066554
v 0.438413 0.939850 1.823224
v 0.436901 0.945700 2.710438
v 0.000000 0.945700 2.839737
v 0.053446 0.469925 -4.162268
v -0.000000 0.469925 -4.162268
v -0.438413 0.939850 1.923224
v -0.053446 0.469925 -3.992454
v -0.438413 0.637167 0.066554
v -0.438413 0.939850 1.823224
v -0.436901 0.945700 2.710438
v -0.053446 0.469925 -4.162268
v -0.053446 0.469925 -4.072031
v 0.053446 0.469925 -4.072031
v -0.438413 0.637167 -0.008487
v 0.438413 0.637167 -0.008487
v 0.437027 0.945212 2.585791
v -0.437027 0.945212 2.585791
v 0.554104 -0.497590 1.923224
v 0.543107 -0.417930 3.379546
v 0.053446 -0.023068 -3.992454
v 0.554104 -0.348627 0.066554
v 0.554104 -0.497590 1.823224
v 0.053446 -0.023068 -4.162268
v -0.000000 -0.023068 -4.162268
v -0.554104 -0.497590 1.923224
v -0.543107 -0.417930 3.379546
v -0.053446 -0.023068 -3.992454
v -0.554104 -0.348627 0.066554
v -0.554104 -0.497590 1.823224
v -0.053446 -0.023068 -4.162268
v -0.053446 -0.023068 -4.072031
v 0.053446 -0.023068 -4.072031
v -0.554104 -0.343252 -0.008487
v 0.554104 -0.343252 -0.008487
v 0.527223 -0.364353 4.023570
v 0.000000 -0.365537 4.026767
v -0.527223 -0.364353 4.023570
v 0.529980 -0.368611 3.992354
v -0.529980 -0.368611 3.992354
v 0.544023 -0.475468 2.585791
v -0.544023 -0.475468 2.585791
v 0.529256 0.091103 3.336194
v 0.431009 1.000000 2.627455
v -0.529256 0.091103 3.336194
v -0.431009 1.000000 2.627455
v 0.554104 -0.829859 3.334202
v 0.000000 -0.829859 3.334202
v 0.000000 1.000000 2.627455
v -0.554104 -0.829859 3.334202
v 0.436919 0.945632 2.664685
v -0.436919 0.945632 2.664685
v 0.543234 -0.425921 3.335073
v -0.543234 -0.425921 3.335073
v 0.544041 0.153652 1.923224
v 0.544041 0.153652 1.823224
v -0.544041 0.153652 1.923224
v -0.544041 0.153652 1.823224
v 0.053446 0.153652 -4.072031
v 0.544041 0.153652 -0.008487
v 0.522882 0.153652 2.585791
v -0.522882 0.153652 2.585791
v 0.053446 0.153652 -3.992454
v 0.544041 0.153652 0.066554
v 0.520958 0.153652 3.321350
v 0.000000 0.153652 3.834546
v 0.053446 0.153652 -4.162268
v -0.000000 0.153652 -4.162268
v -0.053446 0.153652 -3.992454
v -0.544041 0.153652 0.066554
v -0.520958 0.153652 3.321350
v -0.053446 0.153652 -4.162268
v -0.053446 0.153652 -4.072031
v -0.544041 0.153652 -0.008487
v -0.521225 0.153652 3.282856
v 0.521225 0.153652 3.282856
vn 0.9996 -0.0273 0.0052
vn 1.0000 -0.0000 -0.0000
vn -0.9892 -0.0796 0.1231
vn -1.0000 -0.0000 -0.0000
vn 0.9922 -0.0000 0.1247
vn 0.0117 0.9721 -0.2343
vn -0.9922 -0.0000 0.1247
vn 0.9988 -0.0025 -0.0485
vn -0.0000 -1.0000 -0.0000
vn -0.9873 -0.1588 -0.0000
vn 0.9941 -0.1081 -0.0001
vn 0.9926 -0.1205 -0.0164
vn -0.5174 -0.6896 -0.5067
vn -0.0000 1.0000 -0.0000
vn 0.9873 -0.1588 -0.0000
vn -0.9925 -0.1222 -0.0000
vn -0.0000 -0.0000 1.0000
vn -0.0000 0.9899 0.1414
vn -0.0000 0.9888 0.1491
vn -0.0000 1.0000 -0.0090
vn -0.9999 -0.0117 -0.0074
vn 0.5174 -0.6896 -0.5067
vn 0.9925 -0.1222 -0.0000
vn 0.9892 -0.0796 0.1231
vn -0.0000 -0.9990 0.0446
vn -0.9998 -0.0171 -0.0112
vn 0.9853 -0.1301 0.1110
vn -0.0000 0.9920 0.1263
vn -0.9863 -0.1641 0.0141
vn 0.9863 -0.1641 0.0141
vn 0.0077 0.0077 -0.9999
vn -0.0000 -0.9836 0.1803
vn -0.0117 0.9721 -0.2343
vn -0.0077 0.0077 -0.9999
vn -0.0037 0.9845 -0.1751
vn -0.9988 -0.0025 -0.0485
vn 0.9998 -0.0171 -0.0112
vn 0.0037 0.9845 -0.1751
vn -0.9890 -0.1442 -0.0330
vn -0.9916 -0.1295 -0.0024
vn -0.0000 0.9935 -0.1135
vn -0.9997 -0.0248 0.0017
vn 0.9933 -0.1160 -0.0006
vn -0.9926 -0.1205 -0.0164
vn -0.9941 -0.1088 -0.0005
vn -0.9853 -0.1301 0.1110
vn 0.9839 -0.1786 -0.0000
vn 0.9890 -0.1442 -0.0330
vn 0.9911 -0.1332 -0.0000
vn 0.0668 -0.8913 -0.4485
vn 0.9891 -0.1451 0.0258
vn -0.9897 -0.1034 0.0992
vn -0.9911 -0.1332 -0.0000
vn -0.0668 -0.8913 -0.4485
vn 0.9941 -0.1082 -0.0033
vn -0.9839 -0.1786 -0.0000
vn -0.9933 -0.1160 -0.0006
vn -0.9997 -0.0249 -0.0009
vn 0.9372 0.2630 -0.2290
vn -0.8261 0.5350 -0.1769
vn -0.0061 0.0049 -1.0000
vn 0.0061 0.0049 -1.0000
vn -0.9372 0.2630 -0.2290
vn 0.9996 -0.0112 -0.0248
vn -0.9891 -0.1451 0.0258
vn 0.8261 0.5350 -0.1769
vn 0.9897 -0.1034 0.0992
vn 0.9996 -0.0274 -0.0023
vn 0.9997 -0.0249 -0.0009
vn -0.9996 -0.0274 -0.0023
vn 0.9942 -0.1077 -0.0022
vn -0.9941 -0.1081 -0.0001
vn -0.0000 0.9568 -0.2909
vn -0.9996 -0.0273 0.0052
vn -0.9911 -0.1331 -0.0068
vn 0.9941 -0.1088 -0.0005
vn 0.9997 -0.0248 0.0017
vn -0.9941 -0.1082 -0.0033
vn 0.9916 -0.1295 -0.0024
vn -0.9996 -0.0112 -0.0248
vn 0.9999 -0.0117 -0.0074
vn 0.9911 -0.1331 -0.0068
vn -0.9942 -0.1077 -0.0022
vn 0.9770 -0.2134 -0.0000
vn 0.4200 -0.6570 -0.6261
vn -0.4200 -0.6570 -0.6261
vn -0.9770 -0.2134 -0.0000
vt 0.484363 0.750000
vt 0.375000 0.750000
vt 0.484363 0.500000
vt 0.625000 0.500000
vt 0.375000 0.500000
vt 0.484363 0.500000
vt 0.484363 0.500000
vt 0.625000 0.750000
vt 0.484363 0.750000
vt 0.625000 0.750000
vt 0.625000 0.750000
vt 0.625000 0.625000
vt 0.625000 0.750000
vt 0.375000 0.625000
vt 0.484363 0.625000
vt 0.484363 0.750000
vt 0.484363 0.750000
vt 0.484363 0.750000
vt 0.375000 0.750000
vt 0.625000 0.750000
s 0
usemtl pillarWindow
f 142/1/1 115/1/1 36/2/1 138/2/1
f 140/10/11 134/11/11 46/8/11 99/8/11
f 132/8/9 23/8/9 20/8/9 137/8/9
f 137/8/9 20/8/9 46/8/9 134/11/9
f 163/13/55 140/10/55 99/8/55 159/8/55
f 133/13/68 37/8/68 115/1/68 142/1/68
f 6/8/70 131/8/70 141/1/70 108/1/70
f 23/8/72 132/8/72 139/20/72 91/13/72
f 5/2/73 135/2/73 136/19/73 17/2/73
f 108/1/74 141/1/74 135/2/74 5/2/74
f 36/2/73 17/2/73 136/19/73 138/2/73
f 153/8/75 164/8/75 131/8/75 6/8/75
f 91/13/78 139/20/78 164/8/78 153/8/78
f 133/13/82 163/13/82 159/8/82 37/8/82
usemtl pillarCabin
f 11/12/9 7/8/9 19/8/9 16/12/9
f 1/2/14 24/14/14 4/14/14 15/2/14
f 87/8/16 7/8/16 11/12/16 90/12/16
f 118/15/2 35/12/2 34/8/2 114/16/2
f 111/15/4 107/9/4 2/8/4 3/12/4
f 42/12/9 16/12/9 19/8/9 38/8/9
f 33/2/14 15/2/14 4/14/14 47/14/14
f 95/8/23 98/12/23 42/12/23 38/8/23
f 145/13/49 146/12/49 98/12/49 95/8/49
f 143/8/53 87/8/53 90/12/53 144/12/53
f 24/14/4 1/2/4 107/9/4 111/15/4
f 47/14/2 118/15/2 114/16/2 33/2/2
f 2/8/10 143/8/10 144/12/10 3/12/10
f 34/8/15 35/12/15 146/12/15 145/13/15
usemtl body
f 120/3/2 119/3/2 48/4/2 56/4/2
f 109/3/7 123/7/7 61/4/7 9/4/7
f 55/4/9 54/4/9 32/4/9 29/4/9
f 51/5/14 53/5/14 28/5/14 31/5/14
f 121/3/4 52/4/4 27/4/4 112/3/4
f 112/3/17 27/4/17 30/4/17 113/3/17
f 59/5/18 8/5/18 21/5/18 62/5/18
f 64/5/18 62/5/18 21/5/18 39/5/18
f 24/14/19 12/5/19 25/5/19 4/14/19
f 83/2/20 1/2/20 15/2/20 84/2/20
f 58/4/9 50/4/9 32/4/9 54/4/9
f 51/5/14 31/5/14 49/5/14 57/5/14
f 86/2/20 84/2/20 15/2/20 33/2/20
f 119/3/17 113/3/17 30/4/17 48/4/17
f 127/1/26 75/8/26 6/8/26 108/1/26
f 96/4/27 103/4/27 162/4/27 157/4/27
f 17/2/35 78/2/35 77/2/35 5/2/35
f 18/8/9 73/8/9 74/8/9 37/8/9
f 6/8/9 75/8/9 73/8/9 18/8/9
f 115/1/37 37/8/37 74/8/37 128/1/37
f 36/2/38 76/2/38 78/2/38 17/2/38
f 138/2/41 136/19/41 84/2/41 86/2/41
f 135/2/41 83/2/41 84/2/41 136/19/41
f 161/4/2 160/4/2 100/4/2 101/4/2
f 160/4/17 156/4/17 94/4/17 100/4/17
f 155/4/17 93/4/17 94/4/17 156/4/17
f 147/4/4 102/4/4 93/4/4 155/4/4
f 131/8/58 79/10/58 129/17/58 141/1/58
f 70/8/61 124/18/61 125/1/61 69/8/61
f 72/8/62 69/8/62 125/1/62 126/9/62
f 34/8/64 81/8/64 130/1/64 114/16/64
f 44/4/2 35/12/2 118/15/2 117/7/2
f 3/12/4 13/4/4 110/3/4 111/15/4
f 81/8/69 133/13/69 142/1/69 130/1/69
f 79/10/80 2/8/80 107/9/80 129/17/80
f 4/14/19 25/5/19 43/5/19 47/14/19
f 66/4/5 122/3/5 116/6/5 40/4/5
usemtl pillarPassenger
f 60/4/9 14/4/9 26/4/9 63/4/9
f 148/4/10 61/4/10 13/4/10 152/4/10
f 65/4/9 63/4/9 26/4/9 45/4/9
f 123/7/4 59/5/4 12/5/4 110/3/4
f 158/4/15 44/4/15 66/4/15 162/4/15
f 43/5/28 25/5/28 62/5/28 64/5/28
f 12/5/28 59/5/28 62/5/28 25/5/28
f 117/7/2 122/3/2 66/4/2 44/4/2
f 45/4/47 97/4/47 103/4/47 65/4/47
f 60/4/56 104/4/56 89/4/56 14/4/56
f 43/5/2 64/5/2 122/3/2 117/7/2
f 61/4/4 123/7/4 110/3/4 13/4/4
f 97/4/84 158/4/84 162/4/84 103/4/84
f 104/4/87 148/4/87 152/4/87 89/4/87
usemtl pillarTail
f 109/3/4 9/4/4 52/4/4 121/3/4
f 151/4/4 147/4/4 52/4/4 9/4/4
f 101/4/2 58/4/2 41/4/2 96/4/2
f 120/3/2 56/4/2 40/4/2 116/6/2
f 21/5/14 51/5/14 57/5/14 39/5/14
f 41/4/9 58/4/9 54/4/9 22/4/9
f 21/5/14 8/5/14 53/5/14 51/5/14
f 10/4/9 22/4/9 54/4/9 55/4/9
f 161/4/2 101/4/2 96/4/2 157/4/2
f 10/4/4 55/4/4 102/4/4 88/4/4
f 57/5/2 120/3/2 116/6/2 39/5/2
f 8/5/4 109/3/4 121/3/4 53/5/4
f 56/4/2 161/4/2 157/4/2 40/4/2
f 88/4/4 102/4/4 147/4/4 151/4/4
usemtl windshield
f 99/8/85 92/8/85 154/8/85 159/8/85
f 91/13/86 153/8/86 154/8/86 92/8/86
usemtl skyWindows
f 42/12/32 45/4/32 26/4/32 16/12/32
f 19/8/9 85/8/9 82/8/9 38/8/9
f 7/8/9 80/8/9 85/8/9 19/8/9
f 16/12/32 26/4/32 14/4/32 11/12/32
f 85/8/9 137/8/9 134/11/9 82/8/9
f 80/8/9 132/8/9 137/8/9 85/8/9
usemtl pilotWindow
f 145/13/12 95/8/12 106/8/12 150/8/12
f 105/8/44 87/8/44 143/8/44 149/10/44
f 150/8/71 106/8/71 140/10/71 163/13/71
f 139/20/83 105/8/83 149/10/83 164/8/83
usemtl pasengerWindow
f 22/4/25 63/4/25 65/4/25 41/4/25
f 90/12/29 89/4/29 152/4/29 144/12/29
f 98/12/30 146/12/30 158/4/30 97/4/30
f 10/4/25 60/4/25 63/4/25 22/4/25
usemtl ceilingLoop
f 102/4/4 55/4/4 29/4/4 93/4/4
f 93/4/17 29/4/17 32/4/17 94/4/17
f 100/4/17 94/4/17 32/4/17 50/4/17
f 101/4/2 100/4/2 50/4/2 58/4/2
f 95/8/43 38/8/43 82/8/43 106/8/43
f 132/8/45 80/8/45 105/8/45 139/20/45
f 151/4/46 148/4/46 104/4/46 88/4/46
f 46/8/50 20/8/50 92/8/50 99/8/50
f 98/12/51 97/4/51 45/4/51 42/12/51
f 10/4/52 88/4/52 104/4/52 60/4/52
f 23/8/54 91/13/54 92/8/54 20/8/54
f 80/8/57 7/8/57 87/8/57 105/8/57
f 11/12/65 14/4/65 89/4/65 90/12/65
f 41/4/67 65/4/67 103/4/67 96/4/67
f 106/8/76 82/8/76 134/11/76 140/10/76
usemtl floorLoop
f 122/3/5 64/5/5 39/5/5 116/6/5
f 111/15/4 110/3/4 12/5/4 24/14/4
f 129/17/21 107/9/21 1/2/21 83/2/21
f 126/9/31 125/1/31 68/2/31 71/2/31
f 124/18/34 67/2/34 68/2/34 125/1/34
f 141/1/42 129/17/42 83/2/42 135/2/42
f 36/2/59 115/1/59 128/1/59 76/2/59
f 77/2/63 127/1/63 108/1/63 5/2/63
f 49/5/17 31/5/17 113/3/17 119/3/17
f 28/5/17 112/3/17 113/3/17 31/5/17
f 53/5/4 121/3/4 112/3/4 28/5/4
f 8/5/7 59/5/7 123/7/7 109/3/7
f 57/5/2 49/5/2 119/3/2 120/3/2
f 130/1/77 142/1/77 138/2/77 86/2/77
f 117/7/2 118/15/2 47/14/2 43/5/2
f 114/16/81 130/1/81 86/2/81 33/2/81
usemtl pillarFront
f 76/2/6 71/2/6 68/2/6 78/2/6
f 128/1/8 74/8/8 72/8/8 126/9/8
f 75/8/9 70/8/9 69/8/9 73/8/9
f 73/8/9 69/8/9 72/8/9 74/8/9
f 78/2/33 68/2/33 67/2/33 77/2/33
f 124/18/36 70/8/36 75/8/36 127/1/36
f 67/2/60 124/18/60 127/1/60 77/2/60
f 76/2/66 128/1/66 126/9/66 71/2/66
usemtl waistband
f 151/4/3 9/4/3 61/4/3 148/4/3
f 153/8/13 6/8/13 18/8/13 154/8/13
f 35/12/15 44/4/15 158/4/15 146/12/15
f 159/8/22 154/8/22 18/8/22 37/8/22
f 157/4/24 162/4/24 66/4/24 40/4/24
f 13/4/10 3/12/10 144/12/10 152/4/10
f 149/10/39 143/8/39 2/8/39 79/10/39
f 164/8/40 149/10/40 79/10/40 131/8/40
f 145/13/48 150/8/48 81/8/48 34/8/48
f 81/8/79 150/8/79 163/13/79 133/13/79
f 52/4/4 147/4/4 155/4/4 27/4/4
f 27/4/17 155/4/17 156/4/17 30/4/17
f 48/4/17 30/4/17 156/4/17 160/4/17
f 56/4/2 48/4/2 160/4/2 161/4/2
