# Blender 4.0.2
# www.blender.org
mtllib templatePlaneProcedural_2_nocc.mtl
o templatePlaneProcedural_2
v 0.554104 -0.921275 1.923224
v 0.554104 0.091103 1.923224
v 0.554104 0.091103 1.823224
v 0.000000 -0.921275 1.823224
v 0.554104 -0.816075 3.379546
v 0.528965 0.091103 3.379546
v 0.431009 1.000000 1.923224
v 0.053446 -0.077750 -3.992454
v 0.053446 0.091103 -3.992453
v 0.053446 0.500000 -3.992454
v 0.431009 1.000000 1.823224
v 0.554104 -0.656475 0.066554
v 0.554104 0.091103 0.066554
v 0.431009 0.677945 0.066554
v 0.000000 -0.921275 1.923224
v 0.000000 1.000000 1.823224
v 0.000000 -0.816075 3.379546
v 0.000000 0.091103 3.938426
v 0.000000 1.000000 1.923224
v 0.000000 1.000000 2.667615
v -0.000000 -0.077750 -3.992454
v -0.000000 0.500000 -3.992454
v 0.431009 1.000000 2.667615
v 0.554104 -0.921275 1.823224
v 0.000000 -0.656475 0.066554
v 0.000000 0.677945 0.066554
v 0.053446 0.091103 -4.162269
v 0.053446 -0.077750 -4.162268
v 0.053446 0.500000 -4.162268
v -0.000000 0.091103 -4.162269
v -0.000000 -0.077750 -4.162268
v -0.000000 0.500000 -4.162268
v -0.554104 -0.921275 1.923224
v -0.554104 0.091103 1.923224
v -0.554104 0.091103 1.823224
v -0.554104 -0.816075 3.379546
v -0.528965 0.091103 3.379546
v -0.431009 1.000000 1.923224
v -0.053446 -0.077750 -3.992454
v -0.053446 0.091103 -3.992453
v -0.053446 0.500000 -3.992454
v -0.431009 1.000000 1.823224
v -0.554104 -0.656475 0.066554
v -0.554104 0.091103 0.066554
v -0.431009 0.677945 0.066554
v -0.431009 1.000000 2.667615
v -0.554104 -0.921275 1.823224
v -0.053446 0.091103 -4.162269
v -0.053446 -0.077750 -4.162268
v -0.053446 0.500000 -4.162268
v -0.000000 -0.077750 -4.072031
v 0.053446 0.091103 -4.072031
v 0.053446 -0.077750 -4.072031
v -0.000000 0.500000 -4.072031
v 0.053446 0.500000 -4.072031
v -0.053446 0.091103 -4.072031
v -0.053446 -0.077750 -4.072031
v -0.053446 0.500000 -4.072031
v 0.554104 -0.646919 -0.008487
v 0.431009 0.677945 -0.008487
v 0.554104 0.091103 -0.008487
v 0.000000 -0.646919 -0.008487
v 0.000000 0.677945 -0.008487
v -0.554104 -0.646919 -0.008487
v -0.431009 0.677945 -0.008487
v -0.554104 0.091103 -0.008487
v 0.310118 -0.698364 4.021821
v 0.000000 -0.701709 4.025031
v 0.000000 0.091103 4.029000
v 0.527223 0.091103 4.025818
v -0.310118 -0.698364 4.021821
v -0.527223 0.091103 4.025818
v 0.000000 0.091103 4.002276
v -0.527526 0.091103 3.994212
v 0.527526 0.091103 3.994212
v -0.312862 -0.706156 3.990909
v 0.312862 -0.706156 3.990909
v 0.000000 -0.708920 3.993562
v 0.531061 0.091103 2.585791
v 0.431009 1.000000 2.585791
v -0.531061 0.091103 2.585791
v -0.431009 1.000000 2.585791
v 0.554104 -0.915322 2.585791
v 0.000000 -0.915322 2.585791
v 0.000000 1.000000 2.585791
v -0.554104 -0.915322 2.585791
v 0.438413 0.939850 1.923224
v 0.053446 0.469925 -3.992454
v 0.438413 0.637167 0.066554
v 0.438413 0.939850 1.823224
v 0.436901 0.945700 2.710438
v 0.000000 0.945700 2.839737
v 0.053446 0.469925 -4.162268
v -0.000000 0.469925 -4.162268
v -0.438413 0.939850 1.923224
v -0.053446 0.469925 -3.992454
v -0.438413 0.637167 0.066554
v -0.438413 0.939850 1.823224
v -0.436901 0.945700 2.710438
v -0.053446 0.469925 -4.162268
v -0.053446 0.469925 -4.072031
v 0.053446 0.469925 -4.072031
v -0.438413 0.637167 -0.008487
v 0.438413 0.637167 -0.008487
v 0.437027 0.945212 2.585791
v -0.437027 0.945212 2.585791
v 0.554104 -0.497590 1.923224
v 0.543107 -0.417930 3.379546
v 0.053446 -0.023068 -3.992454
v 0.554104 -0.348627 0.066554
v 0.554104 -0.497590 1.823224
v 0.053446 -0.023068 -4.162268
v -0.000000 -0.023068 -4.162268
v -0.554104 -0.497590 1.923224
v -0.543107 -0.417930 3.379546
v -0.053446 -0.023068 -3.992454
v -0.554104 -0.348627 0.066554
v -0.554104 -0.497590 1.823224
v -0.053446 -0.023068 -4.162268
v -0.053446 -0.023068 -4.072031
v 0.053446 -0.023068 -4.072031
v -0.554104 -0.343252 -0.008487
v 0.554104 -0.343252 -0.008487
v 0.527223 -0.364353 4.023570
v 0.000000 -0.365537 4.026767
v -0.527223 -0.364353 4.023570
v 0.529980 -0.368611 3.992354
v -0.529980 -0.368611 3.992354
v 0.544023 -0.475468 2.585791
v -0.544023 -0.475468 2.585791
v 0.529256 0.091103 3.336194
v 0.431009 1.000000 2.627455
v -0.529256 0.091103 3.336194
v -0.431009 1.000000 2.627455
v 0.554104 -0.829859 3.334202
v 0.000000 -0.829859 3.334202
v 0.000000 1.000000 2.627455
v -0.554104 -0.829859 3.334202
v 0.436919 0.945632 2.664685
v -0.436919 0.945632 2.664685
v 0.543234 -0.425921 3.335073
v -0.543234 -0.425921 3.335073
v 0.544041 0.153652 1.923224
v 0.544041 0.153652 1.823224
v -0.544041 0.153652 1.923224
v -0.544041 0.153652 1.823224
v 0.053446 0.153652 -4.072031
v 0.544041 0.153652 -0.008487
v 0.522882 0.153652 2.585791
v -0.522882 0.153652 2.585791
v 0.053446 0.153652 -3.992454
v 0.544041 0.153652 0.066554
v 0.520958 0.153652 3.321350
v 0.000000 0.153652 3.834546
v 0.053446 0.153652 -4.162268
v -0.000000 0.153652 -4.162268
v -0.053446 0.153652 -3.992454
v -0.544041 0.153652 0.066554
v -0.520958 0.153652 3.321350
v -0.053446 0.153652 -4.162268
v -0.053446 0.153652 -4.072031
v -0.544041 0.153652 -0.008487
v -0.521225 0.153652 3.282856
v 0.521225 0.153652 3.282856
v 0.554104 0.091103 1.782386
v 0.554104 -0.915120 1.782386
v 0.000000 -0.915120 1.782386
v -0.554104 0.091103 1.782386
v -0.554104 -0.915120 1.782386
v -0.438413 0.932813 1.782386
v -0.554104 -0.494127 1.782386
v 0.000000 0.992513 1.782386
v 0.431009 0.992513 1.782386
v -0.431009 0.992513 1.782386
v 0.438413 0.932813 1.782386
v 0.554104 -0.494127 1.782386
v 0.544041 0.153652 1.782386
v -0.544041 0.153652 1.782386
v 0.554104 -0.921031 1.950411
v 0.000000 -0.921031 1.950411
v 0.000000 1.000000 1.950411
v -0.554104 -0.921031 1.950411
v 0.553158 0.091103 1.950411
v 0.431009 1.000000 1.950411
v -0.553158 0.091103 1.950411
v -0.431009 1.000000 1.950411
v -0.438356 0.940070 1.950411
v 0.438356 0.940070 1.950411
v -0.553690 -0.496682 1.950411
v 0.553690 -0.496682 1.950411
v -0.543173 0.153652 1.950411
v 0.543173 0.153652 1.950411
v 0.554104 -0.837837 3.264338
v 0.000000 -0.837837 3.264338
v 0.000000 1.000000 2.623566
v -0.554104 -0.837837 3.264338
v -0.543308 -0.430546 3.265128
v 0.529425 0.091103 3.266144
v 0.431009 1.000000 2.623566
v -0.529425 0.091103 3.266144
v -0.431009 1.000000 2.623566
v 0.436929 0.945593 2.657320
v -0.436929 0.945593 2.657320
v 0.543308 -0.430546 3.265128
v -0.521380 0.153652 3.217785
v 0.521380 0.153652 3.217785
v 0.554104 0.091103 0.101551
v 0.554104 -0.661750 0.101551
v 0.000000 -0.661750 0.101551
v -0.554104 0.091103 0.101551
v -0.554104 -0.661750 0.101551
v -0.438413 0.643197 0.101551
v -0.554104 -0.351595 0.101551
v -0.544041 0.153652 0.101551
v 0.000000 0.684361 0.101551
v 0.431009 0.684361 0.101551
v -0.431009 0.684361 0.101551
v 0.438413 0.643197 0.101551
v 0.554104 -0.351595 0.101551
v 0.544041 0.153652 0.101551
v 0.549213 -0.641359 -0.047401
v 0.549213 0.091103 -0.047402
v -0.000000 -0.641359 -0.047401
v -0.549213 -0.641359 -0.047401
v -0.549213 0.091103 -0.047402
v 0.427321 0.676207 -0.047402
v -0.000000 0.676207 -0.047402
v -0.427321 0.676207 -0.047402
v 0.434653 0.635533 -0.047402
v -0.434653 0.635533 -0.047402
v 0.549213 -0.340124 -0.047401
v -0.549213 -0.340124 -0.047401
v 0.539249 0.153652 -0.047402
v -0.539249 0.153652 -0.047402
v 0.057022 -0.081816 -3.963998
v 0.057022 0.091103 -3.963998
v -0.000000 -0.081816 -3.963998
v -0.057022 -0.081816 -3.963998
v -0.057022 0.091103 -3.963998
v -0.056196 0.471119 -3.963998
v 0.057022 -0.025355 -3.963998
v -0.057022 -0.025355 -3.963998
v -0.056951 0.153652 -3.963998
v 0.056143 0.501271 -3.963998
v -0.000000 0.501271 -3.963998
v -0.056143 0.501271 -3.963998
v 0.056196 0.471119 -3.963998
v 0.056951 0.153652 -3.963998
v 0.053446 0.159926 -3.992454
v 0.541946 0.163243 0.066554
v 0.519291 0.169364 3.309232
v 0.000000 0.169364 3.814811
v 0.053446 0.159926 -4.162268
v -0.000000 0.159926 -4.162268
v -0.053446 0.159926 -3.992454
v -0.541946 0.163243 0.066554
v -0.519291 0.169364 3.309232
v -0.053446 0.159926 -4.162268
v -0.053446 0.159926 -4.072031
v -0.541946 0.163243 -0.008487
v 0.541946 0.169248 1.923224
v 0.541946 0.169248 1.823224
v -0.541946 0.169248 1.923224
v -0.541946 0.169248 1.823224
v 0.053446 0.159926 -4.072031
v 0.541946 0.163243 -0.008487
v 0.521179 0.169354 2.585791
v -0.521179 0.169354 2.585791
v -0.519553 0.169362 3.270593
v 0.519553 0.169362 3.270593
v -0.541946 0.169108 1.782386
v 0.541946 0.169108 1.782386
v 0.541094 0.169252 1.950411
v -0.541094 0.169252 1.950411
v 0.519705 0.169362 3.206667
v -0.519705 0.169362 3.206667
v -0.541946 0.163363 0.101551
v 0.541946 0.163363 0.101551
v 0.537174 0.163211 -0.047402
v -0.537175 0.163211 -0.047402
v -0.056936 0.159949 -3.963998
v 0.056936 0.159949 -3.963998
v 0.554104 -0.067680 1.823224
v -0.554104 -0.067680 1.823224
v -0.053446 0.060309 -4.072031
v -0.554104 -0.026051 -0.008487
v 0.554104 -0.067680 1.923224
v 0.532780 -0.046194 3.379546
v 0.053446 0.060309 -3.992454
v 0.554104 -0.027501 0.066554
v 0.053446 0.060309 -4.162269
v -0.000000 0.060309 -4.162269
v -0.554104 -0.067680 1.923224
v -0.532780 -0.046194 3.379546
v -0.053446 0.060309 -3.992454
v -0.554104 -0.027501 0.066554
v -0.053446 0.060309 -4.162269
v 0.053446 0.060309 -4.072031
v 0.554104 -0.026051 -0.008487
v 0.527223 -0.031743 4.025212
v 0.000000 -0.032062 4.028398
v -0.527223 -0.031743 4.025212
v 0.528187 -0.032891 3.993711
v -0.528187 -0.032891 3.993711
v 0.534557 -0.061713 2.585791
v -0.534557 -0.061713 2.585791
v -0.533026 -0.048349 3.335892
v 0.533026 -0.048349 3.335892
v 0.554104 -0.066746 1.782386
v -0.554104 -0.066746 1.782386
v 0.553302 -0.067435 1.950411
v -0.553302 -0.067435 1.950411
v -0.533169 -0.049597 3.265870
v 0.533169 -0.049597 3.265870
v -0.554104 -0.028302 0.101551
v 0.554104 -0.028302 0.101551
v -0.549213 -0.025208 -0.047402
v 0.549213 -0.025208 -0.047402
v 0.057022 0.059692 -3.963998
v -0.057022 0.059692 -3.963998
vn 0.9996 -0.0273 0.0052
vn 1.0000 -0.0000 -0.0000
vn -0.9801 -0.1569 0.1219
vn -1.0000 -0.0000 -0.0000
vn 0.9922 -0.0000 0.1247
vn 0.0117 0.9721 -0.2343
vn -0.9922 -0.0000 0.1247
vn 0.9998 -0.0026 -0.0200
vn -0.0000 -1.0000 -0.0000
vn -0.9873 -0.1588 -0.0000
vn 0.9941 -0.1081 -0.0001
vn 0.9926 -0.1199 -0.0161
vn -0.5174 -0.6896 -0.5067
vn -0.0000 1.0000 -0.0000
vn 0.9873 -0.1588 -0.0000
vn -0.9925 -0.1222 -0.0000
vn -0.0000 -0.0000 1.0000
vn -0.0000 0.9899 0.1414
vn -0.0000 0.9888 0.1491
vn -0.0000 1.0000 -0.0090
vn -1.0000 -0.0005 -0.0076
vn 0.5174 -0.6896 -0.5067
vn 0.9925 -0.1222 -0.0000
vn 0.9801 -0.1569 0.1219
vn -0.0000 -0.9990 0.0446
vn -0.9998 -0.0171 -0.0047
vn 0.9701 -0.2113 0.1193
vn -0.0000 0.9920 0.1263
vn -0.9772 -0.2122 0.0004
vn 0.9772 -0.2122 0.0004
vn 0.0077 0.0077 -0.9999
vn -0.0000 -0.9836 0.1803
vn -0.0117 0.9721 -0.2343
vn -0.0077 0.0077 -0.9999
vn -0.0037 0.9845 -0.1751
vn -0.9998 -0.0026 -0.0200
vn 0.9998 -0.0171 -0.0047
vn 0.0037 0.9845 -0.1751
vn -0.9869 -0.1581 -0.0329
vn -0.9916 -0.1295 -0.0024
vn -0.0000 0.9935 -0.1135
vn -0.9997 -0.0246 0.0017
vn 0.9933 -0.1157 -0.0006
vn -0.9907 -0.1326 -0.0313
vn -0.9941 -0.1088 -0.0005
vn -0.9711 -0.2115 0.1110
vn 0.9839 -0.1786 -0.0000
vn 0.9891 -0.1436 -0.0330
vn 0.9911 -0.1332 -0.0000
vn 0.0668 -0.8913 -0.4485
vn 0.9836 -0.1777 0.0316
vn -0.9790 -0.1771 0.1014
vn -0.9911 -0.1332 -0.0000
vn -0.0668 -0.8913 -0.4485
vn 0.9941 -0.1082 -0.0032
vn -0.9839 -0.1786 -0.0000
vn -0.9925 -0.1219 -0.0005
vn -0.9997 -0.0247 -0.0005
vn 0.9372 0.2630 -0.2290
vn -0.8261 0.5350 -0.1769
vn -0.0061 0.0049 -1.0000
vn 0.0061 0.0049 -1.0000
vn -0.9372 0.2630 -0.2290
vn 0.9997 -0.0117 -0.0221
vn -0.9836 -0.1777 0.0316
vn 0.8261 0.5350 -0.1769
vn 0.9790 -0.1771 0.1014
vn 0.9996 -0.0274 -0.0011
vn 0.9996 -0.0268 -0.0004
vn -0.9996 -0.0274 -0.0011
vn 0.9942 -0.1076 -0.0022
vn -0.9941 -0.1081 -0.0001
vn -0.0000 0.9568 -0.2909
vn -0.9996 -0.0273 0.0052
vn -0.9911 -0.1331 -0.0068
vn 0.9941 -0.1085 -0.0005
vn 0.9996 -0.0267 0.0019
vn -0.9938 -0.1109 -0.0068
vn 0.9916 -0.1294 -0.0024
vn -0.9998 -0.0005 -0.0223
vn 0.9999 -0.0121 -0.0073
vn 0.9911 -0.1331 -0.0068
vn -0.9942 -0.1078 -0.0024
vn 0.9770 -0.2134 -0.0000
vn 0.5567 -0.6057 -0.5685
vn -0.5567 -0.6057 -0.5685
vn -0.9770 -0.2134 -0.0000
vn -0.9922 -0.1226 0.0218
vn 0.9922 -0.1226 0.0218
vn 0.9910 -0.1337 0.0002
vn -0.9910 -0.1337 0.0002
vn 1.0000 -0.0005 -0.0076
vn -0.9997 -0.0117 -0.0221
vn 0.9998 -0.0005 -0.0223
vn -0.9933 -0.1157 -0.0006
vn 0.9869 -0.1581 -0.0329
vn -0.9923 -0.1199 -0.0314
vn 0.9925 -0.1219 -0.0005
vn -0.9891 -0.1436 -0.0330
vn -0.9999 -0.0121 -0.0073
vn 0.9910 -0.1326 -0.0160
vn -0.9942 -0.1077 -0.0024
vn 0.9916 -0.1295 -0.0024
vn 0.9997 -0.0246 0.0017
vn 0.9941 -0.1088 -0.0005
vn 0.9942 -0.1077 -0.0022
vn 0.9997 -0.0247 -0.0005
vn -0.9996 -0.0268 -0.0004
vn -0.9941 -0.1084 -0.0005
vn -0.9996 -0.0267 0.0019
vn -0.9916 -0.1294 -0.0024
vn -0.9891 -0.1452 0.0258
vn 0.9891 -0.1452 0.0258
vn 0.9864 -0.1643 0.0003
vn -0.9864 -0.1643 0.0003
vn 0.9897 -0.1032 0.0992
vn -0.9897 -0.1032 0.0992
vn -0.9853 -0.1299 0.1108
vn 0.9841 -0.1297 0.1210
vn 0.9892 -0.0794 0.1231
vn -0.9892 -0.0794 0.1231
vn -0.9924 -0.0006 0.1235
vn 0.9924 -0.0006 0.1235
vn 0.9925 -0.0012 0.1220
vn -0.9940 -0.0012 0.1090
vn -0.9954 -0.0009 0.0953
vn 0.9954 -0.0009 0.0953
vn -0.9925 -0.0012 0.1220
vn 0.9940 -0.0012 0.1090
vn 0.9853 -0.1299 0.1108
vn -0.9841 -0.1297 0.1210
vn -0.9863 -0.1642 0.0144
vn 0.9863 -0.1642 0.0144
vn 0.9942 -0.1078 -0.0024
vn -0.9942 -0.1076 -0.0022
vn 0.9907 -0.1326 -0.0313
vn -0.9926 -0.1199 -0.0161
vn -0.9909 -0.1337 0.0118
vn 0.9909 -0.1337 0.0118
vn -0.4165 -0.6580 -0.6273
vn 0.4165 -0.6580 -0.6273
vn -0.9942 -0.1077 -0.0022
vn -0.9941 -0.1082 -0.0032
vn 0.9942 -0.1077 -0.0024
vn 0.9938 -0.1109 -0.0068
vn -0.9701 -0.2113 0.1193
vn -0.9910 -0.1326 -0.0160
vn 0.9771 -0.2121 0.0186
vn -0.9771 -0.2121 0.0186
vn 0.9711 -0.2115 0.1110
vn 0.9923 -0.1199 -0.0314
vn -0.9996 -0.0268 -0.0020
vn 0.9997 -0.0247 -0.0020
vn 0.9995 -0.0005 -0.0321
vn -0.9994 -0.0117 -0.0321
vn -0.9995 -0.0005 -0.0321
vn -0.9996 -0.0274 -0.0055
vn 0.9996 -0.0268 -0.0020
vn 0.9996 -0.0274 -0.0055
vn 0.9994 -0.0117 -0.0321
vn 0.0060 0.0049 -1.0000
vn -0.0060 0.0049 -1.0000
vn -0.9997 -0.0247 -0.0020
vn 0.9998 -0.0171 -0.0136
vn -0.9983 -0.0024 -0.0590
vn -0.9998 -0.0171 -0.0136
vn 0.9983 -0.0024 -0.0590
vt 0.484363 0.750000
vt 0.375000 0.750000
vt 0.587067 0.500000
vt 0.587067 0.500000
vt 0.625000 0.500000
vt 0.484363 0.500000
vt 0.375000 0.500000
vt 0.587067 0.500000
vt 0.587067 0.750000
vt 0.625000 0.750000
vt 0.587067 0.750000
vt 0.625000 0.750000
vt 0.625000 0.750000
vt 0.625000 0.625000
vt 0.375000 0.625000
vt 0.625000 0.502490
vt 0.587067 0.500000
vt 0.484363 0.502490
vt 0.484363 0.500000
vt 0.375000 0.502490
vt 0.587067 0.625000
vt 0.375000 0.750000
vt 0.484363 0.750000
vt 0.484363 0.750000
vt 0.625000 0.500000
vt 0.625000 0.622094
vt 0.484363 0.500000
vt 0.587067 0.750000
vt 0.625000 0.500000
vt 0.625000 0.500000
vt 0.625000 0.502490
vt 0.484363 0.750000
vt 0.587067 0.750000
vt 0.625000 0.750000
vt 0.625000 0.750000
vt 0.375000 0.750000
vt 0.484363 0.750000
vt 0.484363 0.750000
vt 0.625000 0.750000
vt 0.625000 0.500000
vt 0.625000 0.750000
vt 0.625000 0.750000
vt 0.587067 0.750000
vt 0.587067 0.750000
vt 0.484363 0.625000
vt 0.484363 0.750000
vt 0.625000 0.502490
vt 0.587067 0.622094
vt 0.484363 0.622094
vt 0.587067 0.502490
vt 0.625000 0.750000
vt 0.375000 0.622094
vt 0.625000 0.750000
vt 0.625000 0.750000
vt 0.375000 0.502490
vt 0.625000 0.750000
vt 0.375000 0.622094
vt 0.484363 0.502490
vt 0.625000 0.622094
vt 0.625000 0.622094
vt 0.625000 0.500000
vt 0.625000 0.500000
s 0
usemtl pillarWindow
f 142/1/1 115/1/1 36/2/1 138/2/1
f 140/12/11 134/13/11 46/10/11 99/10/11
f 132/10/9 23/10/9 20/10/9 137/10/9
f 137/10/9 20/10/9 46/10/9 134/13/9
f 269/39/55 140/12/55 99/10/55 257/42/55
f 307/28/68 294/11/68 115/1/68 142/1/68
f 288/28/70 308/44/70 141/1/70 108/1/70
f 23/10/72 132/10/72 139/42/72 91/39/72
f 5/2/73 135/2/73 136/22/73 17/2/73
f 108/1/74 141/1/74 135/2/74 5/2/74
f 36/2/73 17/2/73 136/22/73 138/2/73
f 153/10/75 164/10/75 131/10/75 6/10/75
f 251/10/78 270/34/78 164/10/78 153/10/78
f 133/39/82 163/39/82 159/10/82 37/10/82
f 91/39/143 139/42/143 270/34/143 251/10/143
f 163/39/145 269/39/145 257/42/145 159/10/145
f 6/10/157 131/10/157 308/44/157 288/28/157
f 133/39/159 37/10/159 294/11/159 307/28/159
usemtl pillarCabin
f 11/14/9 7/10/9 19/10/9 16/14/9
f 1/2/14 24/15/14 4/15/14 15/2/14
f 87/10/16 7/10/16 11/14/16 90/14/16
f 284/21/2 35/14/2 34/10/2 293/11/2
f 283/21/4 287/11/4 2/10/4 3/14/4
f 42/14/9 16/14/9 19/10/9 38/10/9
f 33/2/14 15/2/14 4/15/14 47/15/14
f 95/10/23 98/14/23 42/14/23 38/10/23
f 263/41/49 264/14/49 98/14/49 95/10/49
f 261/39/53 87/10/53 90/14/53 262/14/53
f 24/15/4 1/2/4 107/24/4 111/45/4
f 47/15/2 118/45/2 114/46/2 33/2/2
f 2/10/10 143/10/10 144/14/10 3/14/10
f 34/10/15 35/14/15 146/14/15 145/39/15
f 143/10/53 261/39/53 262/14/53 144/14/53
f 145/39/49 146/14/49 264/14/49 263/41/49
f 111/45/4 107/24/4 287/11/4 283/21/4
f 118/45/2 284/21/2 293/11/2 114/46/2
usemtl body
f 285/3/2 297/4/2 48/5/2 56/5/2
f 318/8/7 299/4/7 61/5/7 222/5/7
f 55/5/9 54/5/9 32/5/9 29/5/9
f 51/7/14 53/7/14 28/7/14 31/7/14
f 298/3/4 52/5/4 27/5/4 291/4/4
f 291/4/17 27/5/17 30/5/17 292/17/17
f 235/7/18 8/7/18 21/7/18 237/7/18
f 238/7/18 237/7/18 21/7/18 39/7/18
f 208/20/19 12/7/19 25/7/19 209/20/19
f 179/22/20 1/2/20 15/2/20 180/2/20
f 58/5/9 50/5/9 32/5/9 54/5/9
f 51/7/14 31/7/14 49/7/14 57/7/14
f 182/22/20 180/2/20 15/2/20 33/2/20
f 297/4/17 292/17/17 30/5/17 48/5/17
f 227/5/25 63/5/25 65/5/25 228/5/25
f 303/9/26 75/10/26 6/10/26 288/28/26
f 280/29/27 260/30/27 162/5/27 234/25/27
f 17/2/35 78/2/35 77/2/35 5/2/35
f 18/10/9 73/10/9 74/10/9 37/10/9
f 6/10/9 75/10/9 73/10/9 18/10/9
f 294/11/37 37/10/37 74/10/37 304/9/37
f 36/2/38 76/2/38 78/2/38 17/2/38
f 196/2/41 194/36/41 84/2/41 86/2/41
f 193/2/41 83/2/41 84/2/41 194/36/41
f 279/40/46 266/5/46 104/5/46 229/5/46
f 259/5/2 258/5/2 100/5/2 101/5/2
f 258/5/17 254/5/17 94/5/17 100/5/17
f 253/30/17 93/5/17 94/5/17 254/5/17
f 265/5/4 102/5/4 93/5/4 253/30/4
f 314/11/58 305/43/58 129/38/58 204/37/58
f 300/33/61 124/32/61 125/1/61 301/44/61
f 302/11/62 301/44/62 125/1/62 126/24/62
f 312/11/64 306/33/64 130/1/64 189/24/64
f 310/48/2 284/21/2 118/45/2 171/49/2
f 316/50/4 290/8/4 110/19/4 219/18/4
f 313/11/69 307/28/69 142/1/69 197/1/69
f 226/5/25 60/5/25 63/5/25 227/5/25
f 311/28/80 287/11/80 107/24/80 190/23/80
f 209/20/19 25/7/19 43/7/19 211/55/19
f 320/4/5 242/6/5 116/6/5 295/4/5
f 4/15/19 167/57/19 169/52/19 47/15/19
f 283/21/4 309/48/4 176/49/4 111/45/4
f 315/50/2 310/48/2 171/49/2 213/58/2
f 24/15/19 166/52/19 167/57/19 4/15/19
f 305/43/93 311/28/93 190/23/93 129/38/93
f 293/11/94 312/11/94 189/24/94 114/46/94
f 86/2/20 84/2/20 180/2/20 182/22/20
f 83/2/20 179/22/20 180/2/20 84/2/20
f 306/33/107 313/11/107 197/1/107 130/1/107
f 308/44/108 314/11/108 204/37/108 141/1/108
f 135/2/41 193/2/41 194/36/41 136/22/41
f 138/2/41 136/22/41 194/36/41 196/2/41
f 296/3/2 315/50/2 213/58/2 117/27/2
f 167/57/19 209/20/19 211/55/19 169/52/19
f 309/48/4 316/50/4 219/18/4 176/49/4
f 166/52/19 208/20/19 209/20/19 167/57/19
f 286/3/5 122/19/5 232/19/5 317/3/5
f 244/5/25 226/5/25 227/5/25 245/5/25
f 282/61/118 279/40/118 229/5/118 247/5/118
f 281/62/119 280/29/119 234/25/119 243/62/119
f 245/5/25 227/5/25 228/5/25 246/5/25
f 64/7/18 62/7/18 223/7/18 224/7/18
f 59/7/18 221/7/18 223/7/18 62/7/18
f 319/4/7 318/8/7 222/5/7 236/5/7
f 289/3/7 319/4/7 236/5/7 9/5/7
f 22/5/25 245/5/25 246/5/25 41/5/25
f 255/5/124 281/62/124 243/62/124 157/5/124
f 249/5/125 282/61/125 247/5/125 88/5/125
f 10/5/25 244/5/25 245/5/25 22/5/25
f 317/3/5 232/19/5 242/6/5 320/4/5
f 224/7/18 223/7/18 237/7/18 238/7/18
f 221/7/18 235/7/18 237/7/18 223/7/18
f 151/5/128 248/30/128 282/61/128 249/5/128
f 96/5/129 240/5/129 281/62/129 255/5/129
f 240/5/130 230/5/130 280/29/130 281/62/130
f 248/30/131 233/5/131 279/40/131 282/61/131
f 147/5/4 265/5/4 253/30/4 155/5/4
f 155/5/17 253/30/17 254/5/17 156/5/17
f 160/5/17 156/5/17 254/5/17 258/5/17
f 161/5/2 160/5/2 258/5/2 259/5/2
f 233/5/146 148/5/146 266/5/146 279/40/146
f 230/5/150 103/5/150 260/30/150 280/29/150
f 225/5/5 317/3/5 320/4/5 239/40/5
f 109/19/7 241/6/7 319/4/7 289/3/7
f 241/6/7 231/27/7 318/8/7 319/4/7
f 66/5/5 286/3/5 317/3/5 225/5/5
f 165/26/4 207/16/4 316/50/4 309/48/4
f 44/5/2 210/16/2 315/50/2 296/3/2
f 131/10/152 198/10/152 314/11/152 308/44/152
f 81/10/153 200/39/153 313/11/153 306/33/153
f 34/10/154 185/10/154 312/11/154 293/11/154
f 79/12/155 183/34/155 311/28/155 305/43/155
f 210/16/2 168/26/2 310/48/2 315/50/2
f 3/14/4 165/26/4 309/48/4 283/21/4
f 239/40/5 320/4/5 295/4/5 40/5/5
f 183/34/156 2/10/156 287/11/156 311/28/156
f 200/39/158 133/39/158 307/28/158 313/11/158
f 207/16/4 13/5/4 290/8/4 316/50/4
f 168/26/2 35/14/2 284/21/2 310/48/2
f 185/10/160 81/10/160 306/33/160 312/11/160
f 72/10/161 69/10/161 301/44/161 302/11/161
f 70/10/162 300/33/162 301/44/162 69/10/162
f 198/10/163 79/12/163 305/43/163 314/11/163
f 115/1/164 294/11/164 304/9/164 128/1/164
f 127/1/166 303/9/166 288/28/166 108/1/166
f 119/19/17 113/19/17 292/17/17 297/4/17
f 112/19/17 291/4/17 292/17/17 113/19/17
f 121/19/4 298/3/4 291/4/4 112/19/4
f 231/27/7 123/27/7 299/4/7 318/8/7
f 120/19/2 119/19/2 297/4/2 285/3/2
usemtl pillarPassenger
f 60/5/9 14/5/9 26/5/9 63/5/9
f 148/5/10 61/5/10 13/5/10 152/5/10
f 65/5/9 63/5/9 26/5/9 45/5/9
f 123/27/4 59/7/4 12/7/4 110/19/4
f 158/5/15 44/5/15 66/5/15 162/5/15
f 43/7/28 25/7/28 62/7/28 64/7/28
f 12/7/28 59/7/28 62/7/28 25/7/28
f 296/3/2 286/3/2 66/5/2 44/5/2
f 45/5/47 97/5/47 103/5/47 65/5/47
f 60/5/56 104/5/56 89/5/56 14/5/56
f 43/7/2 64/7/2 122/19/2 117/27/2
f 299/4/4 123/27/4 110/19/4 290/8/4
f 256/25/84 158/5/84 162/5/84 260/30/84
f 266/5/87 148/5/87 152/5/87 250/5/87
f 104/5/87 266/5/87 250/5/87 89/5/87
f 97/5/84 256/25/84 260/30/84 103/5/84
f 61/5/4 299/4/4 290/8/4 13/5/4
f 117/27/2 122/19/2 286/3/2 296/3/2
usemtl pillarTail
f 289/3/4 9/5/4 52/5/4 298/3/4
f 151/5/4 147/5/4 52/5/4 9/5/4
f 101/5/2 58/5/2 41/5/2 96/5/2
f 285/3/2 56/5/2 40/5/2 295/4/2
f 21/7/14 51/7/14 57/7/14 39/7/14
f 41/5/9 58/5/9 54/5/9 22/5/9
f 21/7/14 8/7/14 53/7/14 51/7/14
f 10/5/9 22/5/9 54/5/9 55/5/9
f 259/5/2 101/5/2 96/5/2 255/5/2
f 10/5/4 55/5/4 102/5/4 88/5/4
f 57/7/2 120/19/2 116/6/2 39/7/2
f 8/7/4 109/19/4 121/19/4 53/7/4
f 56/5/2 161/5/2 157/5/2 40/5/2
f 249/5/4 265/5/4 147/5/4 151/5/4
f 88/5/4 102/5/4 265/5/4 249/5/4
f 161/5/2 259/5/2 255/5/2 157/5/2
f 120/19/2 285/3/2 295/4/2 116/6/2
f 109/19/4 289/3/4 298/3/4 121/19/4
usemtl windshield
f 257/42/85 252/56/85 154/10/85 159/10/85
f 251/10/86 153/10/86 154/10/86 252/56/86
f 91/39/140 251/10/140 252/56/140 92/10/140
f 99/10/141 92/10/141 252/56/141 257/42/141
usemtl skyWindows
f 217/16/32 45/5/32 26/5/32 215/16/32
f 181/10/9 85/10/9 82/10/9 186/13/9
f 184/10/9 80/10/9 85/10/9 181/10/9
f 215/16/32 26/5/32 14/5/32 216/16/32
f 195/10/9 137/10/9 134/13/9 201/51/9
f 199/10/9 132/10/9 137/10/9 195/10/9
f 16/14/32 172/59/32 173/59/32 11/14/32
f 42/14/32 174/26/32 172/59/32 16/14/32
f 7/10/9 184/10/9 181/10/9 19/10/9
f 19/10/9 181/10/9 186/13/9 38/10/9
f 80/10/9 199/10/9 195/10/9 85/10/9
f 85/10/9 195/10/9 201/51/9 82/10/9
f 172/59/32 215/16/32 216/16/32 173/59/32
f 174/26/32 217/16/32 215/16/32 172/59/32
usemtl pilotWindow
f 274/13/12 187/10/12 106/10/12 268/10/12
f 273/13/44 261/39/44 143/10/44 192/10/44
f 276/39/71 203/12/71 140/12/71 269/39/71
f 275/53/83 267/54/83 149/12/83 206/35/83
f 267/54/97 273/13/97 192/10/97 149/12/97
f 263/41/101 95/10/101 187/10/101 274/13/101
f 270/34/102 275/53/102 206/35/102 164/10/102
f 268/10/106 106/10/106 203/12/106 276/39/106
f 150/10/134 268/10/134 276/39/134 205/39/134
f 139/42/135 202/10/135 275/53/135 270/34/135
f 145/39/136 263/41/136 274/13/136 191/10/136
f 105/10/137 188/10/137 273/13/137 267/54/137
f 202/10/142 105/10/142 267/54/142 275/53/142
f 205/39/144 276/39/144 269/39/144 163/39/144
f 188/10/147 87/10/147 261/39/147 273/13/147
f 191/10/151 274/13/151 268/10/151 150/10/151
usemtl pasengerWindow
f 278/31/29 250/5/29 152/5/29 220/31/29
f 277/16/30 214/16/30 158/5/30 256/25/30
f 264/14/90 146/14/90 178/59/90 271/26/90
f 262/14/91 272/26/91 177/26/91 144/14/91
f 271/26/114 178/59/114 214/16/114 277/16/114
f 272/26/115 278/31/115 220/31/115 177/26/115
f 175/60/132 218/47/132 278/31/132 272/26/132
f 170/59/133 271/26/133 277/16/133 212/16/133
f 90/14/138 175/60/138 272/26/138 262/14/138
f 98/14/139 264/14/139 271/26/139 170/59/139
f 212/16/148 277/16/148 256/25/148 97/5/148
f 218/47/149 89/5/149 250/5/149 278/31/149
usemtl ceilingLoop
f 102/5/4 55/5/4 29/5/4 93/5/4
f 93/5/17 29/5/17 32/5/17 94/5/17
f 100/5/17 94/5/17 32/5/17 50/5/17
f 101/5/2 100/5/2 50/5/2 58/5/2
f 187/10/43 186/13/43 82/10/43 106/10/43
f 199/10/45 80/10/45 105/10/45 202/10/45
f 46/10/50 20/10/50 92/10/50 99/10/50
f 212/16/51 97/5/51 45/5/51 217/16/51
f 226/5/52 229/5/52 104/5/52 60/5/52
f 23/10/54 91/39/54 92/10/54 20/10/54
f 184/10/57 7/10/57 87/10/57 188/10/57
f 216/16/65 14/5/65 89/5/65 218/47/65
f 228/5/67 65/5/67 103/5/67 230/5/67
f 203/12/76 201/51/76 134/13/76 140/12/76
f 11/14/88 173/59/88 175/60/88 90/14/88
f 98/14/89 170/59/89 174/26/89 42/14/89
f 80/10/95 184/10/95 188/10/95 105/10/95
f 95/10/98 38/10/98 186/13/98 187/10/98
f 106/10/105 82/10/105 201/51/105 203/12/105
f 132/10/109 199/10/109 202/10/109 139/42/109
f 173/59/112 216/16/112 218/47/112 175/60/112
f 170/59/113 212/16/113 217/16/113 174/26/113
f 246/5/116 228/5/116 230/5/116 240/5/116
f 244/5/117 247/5/117 229/5/117 226/5/117
f 10/5/126 88/5/126 247/5/126 244/5/126
f 41/5/127 246/5/127 240/5/127 96/5/127
usemtl floorLoop
f 242/6/5 238/7/5 39/7/5 116/6/5
f 219/18/4 110/19/4 12/7/4 208/20/4
f 190/23/21 107/24/21 1/2/21 179/22/21
f 126/24/31 125/1/31 68/2/31 71/2/31
f 124/32/34 67/2/34 68/2/34 125/1/34
f 204/37/42 129/38/42 83/2/42 193/2/42
f 36/2/59 115/1/59 128/1/59 76/2/59
f 77/2/63 127/1/63 108/1/63 5/2/63
f 49/7/17 31/7/17 113/19/17 119/19/17
f 28/7/17 112/19/17 113/19/17 31/7/17
f 53/7/4 121/19/4 112/19/4 28/7/4
f 221/7/7 59/7/7 123/27/7 231/27/7
f 57/7/2 49/7/2 119/19/2 120/19/2
f 197/1/77 142/1/77 138/2/77 196/2/77
f 171/49/2 118/45/2 47/15/2 169/52/2
f 189/24/81 130/1/81 86/2/81 182/22/81
f 213/58/2 171/49/2 169/52/2 211/55/2
f 111/45/4 176/49/4 166/52/4 24/15/4
f 114/46/92 189/24/92 182/22/92 33/2/92
f 129/38/100 190/23/100 179/22/100 83/2/100
f 130/1/104 197/1/104 196/2/104 86/2/104
f 141/1/110 204/37/110 193/2/110 135/2/110
f 117/27/2 213/58/2 211/55/2 43/7/2
f 176/49/4 219/18/4 208/20/4 166/52/4
f 235/7/7 221/7/7 231/27/7 241/6/7
f 122/19/5 64/7/5 224/7/5 232/19/5
f 8/7/7 235/7/7 241/6/7 109/19/7
f 232/19/5 224/7/5 238/7/5 242/6/5
usemtl pillarFront
f 76/2/6 71/2/6 68/2/6 78/2/6
f 304/9/8 74/10/8 72/10/8 302/11/8
f 75/10/9 70/10/9 69/10/9 73/10/9
f 73/10/9 69/10/9 72/10/9 74/10/9
f 78/2/33 68/2/33 67/2/33 77/2/33
f 300/33/36 70/10/36 75/10/36 303/9/36
f 67/2/60 124/32/60 127/1/60 77/2/60
f 76/2/66 128/1/66 126/24/66 71/2/66
f 124/32/165 300/33/165 303/9/165 127/1/165
f 128/1/167 304/9/167 302/11/167 126/24/167
usemtl waistband
f 233/5/3 222/5/3 61/5/3 148/5/3
f 153/10/13 6/10/13 18/10/13 154/10/13
f 210/16/15 44/5/15 158/5/15 214/16/15
f 159/10/22 154/10/22 18/10/22 37/10/22
f 234/25/24 162/5/24 66/5/24 225/5/24
f 165/26/10 3/14/10 144/14/10 177/26/10
f 192/10/39 143/10/39 2/10/39 183/34/39
f 206/35/40 149/12/40 79/12/40 198/10/40
f 191/10/48 150/10/48 81/10/48 185/10/48
f 200/39/79 205/39/79 163/39/79 133/39/79
f 52/5/4 147/5/4 155/5/4 27/5/4
f 27/5/17 155/5/17 156/5/17 30/5/17
f 48/5/17 30/5/17 156/5/17 160/5/17
f 56/5/2 48/5/2 160/5/2 161/5/2
f 207/16/10 165/26/10 177/26/10 220/31/10
f 35/14/15 168/26/15 178/59/15 146/14/15
f 145/39/96 191/10/96 185/10/96 34/10/96
f 149/12/99 192/10/99 183/34/99 79/12/99
f 81/10/103 150/10/103 205/39/103 200/39/103
f 164/10/111 206/35/111 198/10/111 131/10/111
f 13/5/10 207/16/10 220/31/10 152/5/10
f 168/26/15 210/16/15 214/16/15 178/59/15
f 243/62/120 234/25/120 225/5/120 239/40/120
f 248/30/121 236/5/121 222/5/121 233/5/121
f 151/5/122 9/5/122 236/5/122 248/30/122
f 157/5/123 243/62/123 239/40/123 40/5/123
