# Blender 4.0.2
# www.blender.org
mtllib finCub.mtl
o finGeometry
v -0.000000 1.467876 -4.177224
v -0.000000 1.467876 -4.153548
v -0.000000 0.636457 -3.091969
v 0.000000 0.564827 -2.742262
v -0.000000 0.636457 -4.153548
v 0.000000 0.510651 -4.153548
v -0.000000 0.636457 -4.919512
v 0.000000 0.510651 -4.919512
v 0.000000 -0.043367 -4.153548
v 0.000000 0.097369 -4.881130
v -0.000000 1.467876 -3.551409
v 0.000000 0.579066 -2.742262
v 0.000000 0.524890 -4.153548
v 0.000000 0.524890 -4.919512
v 0.000000 0.510651 -4.177224
v -0.000000 0.636457 -4.177224
v 0.000000 -0.043367 -4.177224
v 0.000000 0.524890 -4.177224
v -0.000000 1.467876 -4.680687
v -0.000000 1.933738 -4.177224
v -0.000000 1.767414 -4.450392
v -0.000000 1.933738 -4.153548
v -0.000000 1.950896 -3.836242
vn 1.0000 -0.0000 -0.0000
vt 0.000000 1.000000
vt 0.992064 1.000000
vt 1.000000 1.000000
vt 0.992064 1.000000
vt 0.000000 1.000000
s 0
usemtl all
f 16/1/1 7/1/1 19/1/1 1/1/1
f 16/1/1 18/4/1 14/2/1 7/1/1
f 3/1/1 12/2/1 13/4/1 5/1/1
f 3/1/1 5/1/1 2/5/1 11/1/1
usemtl doubleLoopV
f 5/1/1 16/1/1 1/1/1 2/5/1
f 2/5/1 1/1/1 20/1/1 22/1/1
f 5/1/1 13/4/1 18/4/1 16/1/1
usemtl doubleLoopH
f 12/2/1 4/3/1 6/3/1 13/4/1
f 18/4/1 15/3/1 8/3/1 14/2/1
f 13/4/1 6/3/1 15/3/1 18/4/1
usemtl optionalKeelExtension
f 15/3/1 6/3/1 9/3/1 17/3/1
f 8/3/1 15/3/1 17/3/1 10/3/1
usemtl topFwd
f 11/1/1 2/5/1 22/1/1 23/1/1
usemtl topAft
f 1/1/1 19/1/1 21/1/1 20/1/1
