<?xml version="1.0" encoding="UTF-8" standalone="no"?>
<svg
   xmlns:dc="http://purl.org/dc/elements/1.1/"
   xmlns:cc="http://creativecommons.org/ns#"
   xmlns:rdf="http://www.w3.org/1999/02/22-rdf-syntax-ns#"
   xmlns:svg="http://www.w3.org/2000/svg"
   xmlns="http://www.w3.org/2000/svg"
   xmlns:sodipodi="http://sodipodi.sourceforge.net/DTD/sodipodi-0.dtd"
   xmlns:inkscape="http://www.inkscape.org/namespaces/inkscape"
   viewBox="0 0 50 50"
   version="1.1"
   id="svg4"
   sodipodi:docname="container2.svg"
   inkscape:version="0.92.4 (5da689c313, 2019-01-14)">
  <metadata
     id="metadata10">
    <rdf:RDF>
      <cc:Work
         rdf:about="">
        <dc:format>image/svg+xml</dc:format>
        <dc:type
           rdf:resource="http://purl.org/dc/dcmitype/StillImage" />
        <dc:title></dc:title>
      </cc:Work>
    </rdf:RDF>
  </metadata>
  <defs
     id="defs8" />
  <sodipodi:namedview
     pagecolor="#ffffff"
     bordercolor="#666666"
     borderopacity="1"
     objecttolerance="10"
     gridtolerance="10"
     guidetolerance="10"
     inkscape:pageopacity="0"
     inkscape:pageshadow="2"
     inkscape:window-width="1920"
     inkscape:window-height="1017"
     id="namedview6"
     showgrid="false"
     inkscape:zoom="4.72"
     inkscape:cx="25"
     inkscape:cy="25"
     inkscape:window-x="1912"
     inkscape:window-y="-8"
     inkscape:window-maximized="1"
     inkscape:current-layer="svg4" />
  <path
     id="path2"
     style="text-indent:0;text-align:start;line-height:normal;text-transform:none;block-progression:tb;-inkscape-font-specification:Bitstream Vera Sans"
     d="M 4.8125,7 A 1.0001,1.0001 0 0 0 4.21875,7.375 L 0.3125,12.25 A 1.0001,1.0001 0 0 0 0.28125,12.28125 L 0.21875,12.375 A 1.0001,1.0001 0 0 0 0,13 v 28 a 1.0001,1.0001 0 0 0 1,1 h 3 a 1.0001,1.0001 0 0 0 1,-1 h 40 a 1.0001,1.0001 0 0 0 1,1 h 3 a 1.0001,1.0001 0 0 0 1,-1 V 13 A 1.0001,1.0001 0 0 0 49.78125,12.375 L 49.75,12.34375 a 1.0001,1.0001 0 0 0 -0.0625,-0.0625 L 45.78125,7.375 A 1.0001,1.0001 0 0 0 45,7 H 43 A 1.0001,1.0001 0 0 0 42,8 H 8 A 1.0001,1.0001 0 0 0 7,7 H 5 A 1.0001,1.0001 0 0 0 4.90625,7 1.0001,1.0001 0 0 0 4.8125,7 Z M 5.46875,9 H 6 a 1.0001,1.0001 0 0 0 1,1 h 36 a 1.0001,1.0001 0 0 0 1,-1 h 0.53125 l 2.40625,3 H 46 a 1.0001,1.0001 0 0 0 -1,1 H 5 A 1.0001,1.0001 0 0 0 4,12 H 3.0625 Z M 2,14 h 1 a 1.0001,1.0001 0 0 0 1,1 h 42 a 1.0001,1.0001 0 0 0 1,-1 h 1 V 40 H 47 A 1.0001,1.0001 0 0 0 46,39 H 4 A 1.0001,1.0001 0 0 0 3,40 H 2 Z m 5.0078125,2.964844 A 1.0001,1.0001 0 0 0 6.90625,16.96875 1.0001,1.0001 0 0 0 6.78125,17 1.0001,1.0001 0 0 0 6,18 v 18 a 1.0001,1.0001 0 1 0 2,0 V 18 A 1.0001,1.0001 0 0 0 7.0078125,16.964844 Z m 5.9999995,0 A 1.0001,1.0001 0 0 0 12.90625,16.96875 1.0001,1.0001 0 0 0 12.78125,17 1.0001,1.0001 0 0 0 12,18 v 18 a 1.0001,1.0001 0 1 0 2,0 V 18 a 1.0001,1.0001 0 0 0 -0.992188,-1.035156 z m 6,0 A 1.0001,1.0001 0 0 0 18.90625,16.96875 1.0001,1.0001 0 0 0 18.78125,17 1.0001,1.0001 0 0 0 18,18 v 18 a 1.0001,1.0001 0 1 0 2,0 V 18 a 1.0001,1.0001 0 0 0 -0.992188,-1.035156 z m 12,0 A 1.0001,1.0001 0 0 0 30.90625,16.96875 1.0001,1.0001 0 0 0 30.78125,17 1.0001,1.0001 0 0 0 30,18 v 18 a 1.0001,1.0001 0 1 0 2,0 V 18 a 1.0001,1.0001 0 0 0 -0.992188,-1.035156 z m 6,0 A 1.0001,1.0001 0 0 0 36.90625,16.96875 1.0001,1.0001 0 0 0 36.78125,17 1.0001,1.0001 0 0 0 36,18 v 18 a 1.0001,1.0001 0 1 0 2,0 V 18 a 1.0001,1.0001 0 0 0 -0.992188,-1.035156 z m 6,0 A 1.0001,1.0001 0 0 0 42.90625,16.96875 1.0001,1.0001 0 0 0 42.78125,17 1.0001,1.0001 0 0 0 42,18 v 18 a 1.0001,1.0001 0 1 0 2,0 V 18 A 1.0001,1.0001 0 0 0 43.007812,16.964844 Z M 26,18.095703 c -0.02386,0.05015 -0.05083,0.09884 -0.08008,0.146485 0.02557,0.04863 0.05788,0.08616 0.08008,0.140624 z" />
</svg>
