{
  "asset": {
    "generator": "Khronos glTF Blender I/O v3.4.50",
    "version": "2.0"
  },
  "scene": 0,
  "scenes": [
    {
      "name": "Scene",
      "nodes": [
        11,
        12,
        13,
        14,
        15
      ]
    }
  ],
  "nodes": [
    {
      "name": "def_dial",
      "rotation": [
        -1.0549484841249068e-7,
        2.011583948716545e-23,
        -2.504455601715049e-31,
        1
      ],
      "translation": [
        -0.00200551375746727,
        -0.21605896949768066,
        0.07710392773151398
      ]
    },
    {
      "name": "def_bar",
      "rotation": [
        -0.7071065306663513,
        -8.429368847373553e-8,
        0.0005246920045465231,
        0.7071068286895752
      ],
      "scale": [
        1,
        0.9999998807907104,
        0.9999998807907104
      ],
      "translation": [
        -0.0017196182161569595,
        -0.19753074645996094,
        0.11369896680116653
      ]
    },
    {
      "children": [
        0,
        1
      ],
      "name": "def_root",
      "rotation": [
        -0.7071068286895752,
        7.850462820808426e-17,
        7.850462820808426e-17,
        0.7071068286895752
      ]
    },
    {
      "name": "def_clamp",
      "rotation": [
        -0.704860270023346,
        -0.004702060483396053,
        -0.004702060483396053,
        0.7093150615692139
      ],
      "scale": [
        0.9999999403953552,
        0.9999999403953552,
        1
      ],
      "translation": [
        -0.00200551375746727,
        0.07710391283035278,
        0.1807464361190796
      ]
    },
    {
      "name": "ctrl_bar",
      "rotation": [
        -0.7071064710617065,
        -8.435542042661837e-8,
        0.0005246920045465231,
        0.70710688829422
      ],
      "scale": [
        1,
        0.9999998807907104,
        0.9999998807907104
      ],
      "translation": [
        0.00028589554131031036,
        0.018528221175074577,
        0.036595046520233154
      ]
    },
    {
      "children": [
        4
      ],
      "name": "ctrl_dial",
      "rotation": [
        -1.0549484841249068e-7,
        2.011583948716545e-23,
        -2.504455601715049e-31,
        1
      ],
      "translation": [
        -0.00200551375746727,
        -0.21605896949768066,
        0.07710392773151398
      ]
    },
    {
      "children": [
        5
      ],
      "name": "ctrl_root",
      "rotation": [
        -0.7071068286895752,
        7.850462820808426e-17,
        7.850462820808426e-17,
        0.7071068286895752
      ]
    },
    {
      "name": "tgt_bar",
      "rotation": [
        -0.7071064710617065,
        -8.435542042661837e-8,
        0.0005246920045465231,
        0.70710688829422
      ],
      "scale": [
        1,
        0.9999998807907104,
        0.9999998807907104
      ],
      "translation": [
        0.00028589554131031036,
        0.018528221175074577,
        0.036595046520233154
      ]
    },
    {
      "children": [
        7
      ],
      "name": "tgt_dial",
      "rotation": [
        -1.0549484841249068e-7,
        2.011583948716545e-23,
        -2.504455601715049e-31,
        1
      ],
      "translation": [
        -0.00200551375746727,
        -0.21605896949768066,
        0.07710392773151398
      ]
    },
    {
      "children": [
        8
      ],
      "name": "tgt_root",
      "rotation": [
        -0.7071068286895752,
        7.850462820808426e-17,
        7.850462820808426e-17,
        0.7071068286895752
      ]
    },
    {
      "name": "tgt_clamp",
      "rotation": [
        -0.704860270023346,
        -0.004702060483396053,
        -0.004702060483396053,
        0.7093150615692139
      ],
      "scale": [
        0.9999999403953552,
        0.9999999403953552,
        1
      ],
      "translation": [
        -0.00200551375746727,
        0.07710391283035278,
        0.1807464361190796
      ]
    },
    {
      "mesh": 0,
      "name": "bench_vice_frame",
      "skin": 0
    },
    {
      "mesh": 1,
      "name": "bench_vice_clamp",
      "skin": 0
    },
    {
      "mesh": 2,
      "name": "bench_vice_dial",
      "skin": 0
    },
    {
      "mesh": 3,
      "name": "bench_vice_bar",
      "skin": 0
    },
    {
      "children": [
        2,
        3,
        6,
        9,
        10
      ],
      "name": "rig_bench_vice"
    }
  ],
  "materials": [
    {
      "doubleSided": true,
      "name": "bench_vice_01",
      "normalTexture": {
        "index": 0
      },
      "pbrMetallicRoughness": {
        "baseColorTexture": {
          "index": 1
        },
        "metallicRoughnessTexture": {
          "index": 2
        }
      }
    }
  ],
  "meshes": [
    {
      "name": "Plane",
      "primitives": [
        {
          "attributes": {
            "POSITION": 0,
            "TEXCOORD_0": 1,
            "NORMAL": 2,
            "JOINTS_0": 3,
            "WEIGHTS_0": 4
          },
          "indices": 5,
          "material": 0
        }
      ]
    },
    {
      "name": "Plane.001",
      "primitives": [
        {
          "attributes": {
            "POSITION": 7,
            "TEXCOORD_0": 8,
            "NORMAL": 9,
            "JOINTS_0": 10,
            "WEIGHTS_0": 11
          },
          "indices": 12,
          "material": 0
        }
      ]
    },
    {
      "name": "Plane.002",
      "primitives": [
        {
          "attributes": {
            "POSITION": 13,
            "TEXCOORD_0": 14,
            "NORMAL": 15,
            "JOINTS_0": 16,
            "WEIGHTS_0": 17
          },
          "indices": 18,
          "material": 0
        }
      ]
    },
    {
      "name": "Plane.003",
      "primitives": [
        {
          "attributes": {
            "POSITION": 19,
            "TEXCOORD_0": 20,
            "NORMAL": 21,
            "JOINTS_0": 22,
            "WEIGHTS_0": 23
          },
          "indices": 24,
          "material": 0
        }
      ]
    }
  ],
  "textures": [
    {
      "sampler": 0,
      "source": 0
    },
    {
      "sampler": 0,
      "source": 1
    },
    {
      "sampler": 0,
      "source": 2
    }
  ],
  "images": [
    {
      "mimeType": "image/jpeg",
      "name": "bench_vice_01_nor_gl",
      "uri": "textures/bench_vice_01_nor_gl_1k.jpg"
    },
    {
      "mimeType": "image/jpeg",
      "name": "bench_vice_01_diff",
      "uri": "textures/bench_vice_01_diff_1k.jpg"
    },
    {
      "mimeType": "image/jpeg",
      "name": "bench_vice_01_metal-bench_vice_01_rough",
      "uri": "textures/bench_vice_01_arm_1k.jpg"
    }
  ],
  "skins": [
    {
      "inverseBindMatrices": 6,
      "joints": [
        2,
        0,
        1,
        3,
        6,
        5,
        4,
        9,
        8,
        7,
        10
      ],
      "name": "rig_bench_vice"
    }
  ],
  "accessors": [
    {
      "bufferView": 0,
      "componentType": 5126,
      "count": 1211,
      "max": [
        0.1001245379447937,
        0.19956251978874207,
        0.1617548167705536
      ],
      "min": [
        -0.10035783052444458,
        0.00004147888103034347,
        -0.11142831295728683
      ],
      "type": "VEC3"
    },
    {
      "bufferView": 1,
      "componentType": 5126,
      "count": 1211,
      "type": "VEC2"
    },
    {
      "bufferView": 2,
      "componentType": 5126,
      "count": 1211,
      "type": "VEC3"
    },
    {
      "bufferView": 3,
      "componentType": 5121,
      "count": 1211,
      "type": "VEC4"
    },
    {
      "bufferView": 4,
      "componentType": 5126,
      "count": 1211,
      "type": "VEC4"
    },
    {
      "bufferView": 5,
      "componentType": 5123,
      "count": 4608,
      "type": "SCALAR"
    },
    {
      "bufferView": 6,
      "componentType": 5126,
      "count": 11,
      "type": "MAT4"
    },
    {
      "bufferView": 7,
      "componentType": 5126,
      "count": 663,
      "max": [
        0.06675834208726883,
        0.1919715851545334,
        0.18524481356143951
      ],
      "min": [
        -0.06699169427156448,
        0.039959825575351715,
        -0.18122732639312744
      ],
      "type": "VEC3"
    },
    {
      "bufferView": 8,
      "componentType": 5126,
      "count": 663,
      "type": "VEC2"
    },
    {
      "bufferView": 9,
      "componentType": 5126,
      "count": 663,
      "type": "VEC3"
    },
    {
      "bufferView": 10,
      "componentType": 5121,
      "count": 663,
      "type": "VEC4"
    },
    {
      "bufferView": 11,
      "componentType": 5126,
      "count": 663,
      "type": "VEC4"
    },
    {
      "bufferView": 12,
      "componentType": 5123,
      "count": 2526,
      "type": "SCALAR"
    },
    {
      "bufferView": 13,
      "componentType": 5126,
      "count": 127,
      "max": [
        0.012769464403390884,
        0.09159380942583084,
        0.21449433267116547
      ],
      "min": [
        -0.016807645559310913,
        0.0626416727900505,
        0.1818305104970932
      ],
      "type": "VEC3"
    },
    {
      "bufferView": 14,
      "componentType": 5126,
      "count": 127,
      "type": "VEC2"
    },
    {
      "bufferView": 15,
      "componentType": 5126,
      "count": 127,
      "type": "VEC3"
    },
    {
      "bufferView": 16,
      "componentType": 5121,
      "count": 127,
      "type": "VEC4"
    },
    {
      "bufferView": 17,
      "componentType": 5126,
      "count": 127,
      "type": "VEC4"
    },
    {
      "bufferView": 18,
      "componentType": 5123,
      "count": 594,
      "type": "SCALAR"
    },
    {
      "bufferView": 19,
      "componentType": 5126,
      "count": 182,
      "max": [
        0.007166944909840822,
        0.11370384693145752,
        0.20642271637916565
      ],
      "min": [
        -0.010754038579761982,
        -0.08558614552021027,
        0.18863877654075623
      ],
      "type": "VEC3"
    },
    {
      "bufferView": 20,
      "componentType": 5126,
      "count": 182,
      "type": "VEC2"
    },
    {
      "bufferView": 21,
      "componentType": 5126,
      "count": 182,
      "type": "VEC3"
    },
    {
      "bufferView": 22,
      "componentType": 5121,
      "count": 182,
      "type": "VEC4"
    },
    {
      "bufferView": 23,
      "componentType": 5126,
      "count": 182,
      "type": "VEC4"
    },
    {
      "bufferView": 24,
      "componentType": 5123,
      "count": 864,
      "type": "SCALAR"
    }
  ],
  "bufferViews": [
    {
      "buffer": 0,
      "byteLength": 14532,
      "byteOffset": 0,
      "target": 34962
    },
    {
      "buffer": 0,
      "byteLength": 9688,
      "byteOffset": 14532,
      "target": 34962
    },
    {
      "buffer": 0,
      "byteLength": 14532,
      "byteOffset": 24220,
      "target": 34962
    },
    {
      "buffer": 0,
      "byteLength": 4844,
      "byteOffset": 38752,
      "target": 34962
    },
    {
      "buffer": 0,
      "byteLength": 19376,
      "byteOffset": 43596,
      "target": 34962
    },
    {
      "buffer": 0,
      "byteLength": 9216,
      "byteOffset": 62972,
      "target": 34963
    },
    {
      "buffer": 0,
      "byteLength": 704,
      "byteOffset": 72188
    },
    {
      "buffer": 0,
      "byteLength": 7956,
      "byteOffset": 72892,
      "target": 34962
    },
    {
      "buffer": 0,
      "byteLength": 5304,
      "byteOffset": 80848,
      "target": 34962
    },
    {
      "buffer": 0,
      "byteLength": 7956,
      "byteOffset": 86152,
      "target": 34962
    },
    {
      "buffer": 0,
      "byteLength": 2652,
      "byteOffset": 94108,
      "target": 34962
    },
    {
      "buffer": 0,
      "byteLength": 10608,
      "byteOffset": 96760,
      "target": 34962
    },
    {
      "buffer": 0,
      "byteLength": 5052,
      "byteOffset": 107368,
      "target": 34963
    },
    {
      "buffer": 0,
      "byteLength": 1524,
      "byteOffset": 112420,
      "target": 34962
    },
    {
      "buffer": 0,
      "byteLength": 1016,
      "byteOffset": 113944,
      "target": 34962
    },
    {
      "buffer": 0,
      "byteLength": 1524,
      "byteOffset": 114960,
      "target": 34962
    },
    {
      "buffer": 0,
      "byteLength": 508,
      "byteOffset": 116484,
      "target": 34962
    },
    {
      "buffer": 0,
      "byteLength": 2032,
      "byteOffset": 116992,
      "target": 34962
    },
    {
      "buffer": 0,
      "byteLength": 1188,
      "byteOffset": 119024,
      "target": 34963
    },
    {
      "buffer": 0,
      "byteLength": 2184,
      "byteOffset": 120212,
      "target": 34962
    },
    {
      "buffer": 0,
      "byteLength": 1456,
      "byteOffset": 122396,
      "target": 34962
    },
    {
      "buffer": 0,
      "byteLength": 2184,
      "byteOffset": 123852,
      "target": 34962
    },
    {
      "buffer": 0,
      "byteLength": 728,
      "byteOffset": 126036,
      "target": 34962
    },
    {
      "buffer": 0,
      "byteLength": 2912,
      "byteOffset": 126764,
      "target": 34962
    },
    {
      "buffer": 0,
      "byteLength": 1728,
      "byteOffset": 129676,
      "target": 34963
    }
  ],
  "samplers": [
    {
      "magFilter": 9729,
      "minFilter": 9987
    }
  ],
  "buffers": [
    {
      "byteLength": 131404,
      "uri": "bench_vice_01.bin"
    }
  ]
}