{
  "asset": {
    "generator": "Khronos glTF Blender I/O v5.1.18",
    "version": "2.0"
  },
  "scene": 0,
  "scenes": [
    {
      "name": "Scene",
      "nodes": [
        0
      ]
    }
  ],
  "nodes": [
    {
      "mesh": 0,
      "name": "plastic_jerrycan"
    }
  ],
  "materials": [
    {
      "doubleSided": true,
      "name": "plastic_jerrycan",
      "normalTexture": {
        "index": 0
      },
      "pbrMetallicRoughness": {
        "baseColorTexture": {
          "index": 1
        },
        "metallicFactor": 0,
        "metallicRoughnessTexture": {
          "index": 2
        }
      }
    }
  ],
  "meshes": [
    {
      "name": "Cube.004",
      "primitives": [
        {
          "attributes": {
            "POSITION": 0,
            "NORMAL": 1,
            "TEXCOORD_0": 2
          },
          "indices": 3,
          "material": 0
        }
      ]
    }
  ],
  "textures": [
    {
      "sampler": 0,
      "source": 0
    },
    {
      "sampler": 0,
      "source": 1
    },
    {
      "sampler": 0,
      "source": 2
    }
  ],
  "images": [
    {
      "mimeType": "image/jpeg",
      "name": "plastic_jerrycan_nor_gl",
      "uri": "textures/plastic_jerrycan_nor_gl_1k.jpg"
    },
    {
      "mimeType": "image/jpeg",
      "name": "plastic_jerrycan_diff",
      "uri": "textures/plastic_jerrycan_diff_1k.jpg"
    },
    {
      "mimeType": "image/jpeg",
      "name": "plastic_jerrycan_rough",
      "uri": "textures/plastic_jerrycan_arm_1k.jpg"
    }
  ],
  "accessors": [
    {
      "bufferView": 0,
      "componentType": 5126,
      "count": 5163,
      "max": [
        0.13335420191287994,
        0.3183016777038574,
        0.1742604821920395
      ],
      "min": [
        -0.13466870784759521,
        -0.00012576580047607422,
        -0.16663222014904022
      ],
      "type": "VEC3"
    },
    {
      "bufferView": 1,
      "componentType": 5126,
      "count": 5163,
      "type": "VEC3"
    },
    {
      "bufferView": 2,
      "componentType": 5126,
      "count": 5163,
      "type": "VEC2"
    },
    {
      "bufferView": 3,
      "componentType": 5123,
      "count": 22044,
      "type": "SCALAR"
    }
  ],
  "bufferViews": [
    {
      "buffer": 0,
      "byteLength": 61956,
      "byteOffset": 0,
      "target": 34962
    },
    {
      "buffer": 0,
      "byteLength": 61956,
      "byteOffset": 61956,
      "target": 34962
    },
    {
      "buffer": 0,
      "byteLength": 41304,
      "byteOffset": 123912,
      "target": 34962
    },
    {
      "buffer": 0,
      "byteLength": 44088,
      "byteOffset": 165216,
      "target": 34963
    }
  ],
  "samplers": [
    {
      "magFilter": 9729,
      "minFilter": 9987
    }
  ],
  "buffers": [
    {
      "byteLength": 209304,
      "uri": "plastic_jerrycan.bin"
    }
  ]
}