<svg xmlns="http://www.w3.org/2000/svg" width="580" height="585" style="background:#fff;font-family:sans-serif"><text x="20" y="14" font-size="12" font-weight="bold">Cub - the NEW rig (DMG-MOUNTRIG)</text><text x="20" y="27" font-size="10">mount members 0.49-0.80 m (bearers); circle area ~ node mass</text><text x="20" y="40" font-size="11" fill="#222">side (x forward to the left, y up)</text><line x1="195.1" y1="220.4" x2="195.1" y2="220.4" stroke="#c9c9c9" stroke-width="1"/><line x1="195.1" y1="65.2" x2="195.1" y2="65.2" stroke="#c9c9c9" stroke-width="1"/><line x1="195.1" y1="220.4" x2="195.1" y2="65.2" stroke="#c9c9c9" stroke-width="1"/><line x1="195.1" y1="220.4" x2="195.1" y2="65.2" stroke="#c9c9c9" stroke-width="1"/><line x1="195.1" y1="220.4" x2="195.1" y2="65.2" stroke="#c9c9c9" stroke-width="1"/><line x1="195.1" y1="220.4" x2="195.1" y2="65.2" stroke="#c9c9c9" stroke-width="1"/><line x1="45.2" y1="141.5" x2="45.2" y2="141.5" stroke="#b4542a" stroke-width="2.2"/><line x1="78.8" y1="141.5" x2="45.2" y2="141.5" stroke="#b4542a" stroke-width="2.2"/><line x1="78.8" y1="141.5" x2="45.2" y2="141.5" stroke="#b4542a" stroke-width="2.2"/><line x1="127.9" y1="107.1" x2="78.8" y2="141.5" stroke="#7a3fb0" stroke-width="2.2"/><line x1="127.9" y1="107.1" x2="78.8" y2="141.5" stroke="#7a3fb0" stroke-width="2.2"/><line x1="127.9" y1="175.9" x2="78.8" y2="141.5" stroke="#7a3fb0" stroke-width="2.2"/><line x1="127.9" y1="175.9" x2="78.8" y2="141.5" stroke="#7a3fb0" stroke-width="2.2"/><line x1="127.9" y1="107.1" x2="45.2" y2="141.5" stroke="#7a3fb0" stroke-width="2.2"/><line x1="127.9" y1="175.9" x2="45.2" y2="141.5" stroke="#7a3fb0" stroke-width="2.2"/><line x1="127.9" y1="107.1" x2="45.2" y2="141.5" stroke="#7a3fb0" stroke-width="2.2"/><line x1="127.9" y1="175.9" x2="45.2" y2="141.5" stroke="#7a3fb0" stroke-width="2.2"/><line x1="127.9" y1="107.1" x2="195.1" y2="65.2" stroke="#1f6fb2" stroke-width="2.2"/><line x1="127.9" y1="107.1" x2="195.1" y2="220.4" stroke="#1f6fb2" stroke-width="2.2"/><line x1="127.9" y1="107.1" x2="195.1" y2="65.2" stroke="#1f6fb2" stroke-width="2.2"/><line x1="127.9" y1="107.1" x2="195.1" y2="65.2" stroke="#1f6fb2" stroke-width="2.2"/><line x1="127.9" y1="107.1" x2="195.1" y2="220.4" stroke="#1f6fb2" stroke-width="2.2"/><line x1="127.9" y1="107.1" x2="195.1" y2="65.2" stroke="#1f6fb2" stroke-width="2.2"/><line x1="127.9" y1="175.9" x2="195.1" y2="220.4" stroke="#1f6fb2" stroke-width="2.2"/><line x1="127.9" y1="175.9" x2="195.1" y2="220.4" stroke="#1f6fb2" stroke-width="2.2"/><line x1="127.9" y1="175.9" x2="195.1" y2="65.2" stroke="#1f6fb2" stroke-width="2.2"/><line x1="127.9" y1="175.9" x2="195.1" y2="220.4" stroke="#1f6fb2" stroke-width="2.2"/><line x1="127.9" y1="175.9" x2="195.1" y2="220.4" stroke="#1f6fb2" stroke-width="2.2"/><line x1="127.9" y1="175.9" x2="195.1" y2="65.2" stroke="#1f6fb2" stroke-width="2.2"/><circle cx="195.1" cy="220.4" r="7.488784818788645" fill="#666" fill-opacity="0.55"/><text x="200.1" y="215.4" font-size="9" fill="#333">S0BL</text><circle cx="195.1" cy="220.4" r="7.488784818788645" fill="#666" fill-opacity="0.55"/><circle cx="195.1" cy="65.2" r="4.4756394096681715" fill="#666" fill-opacity="0.55"/><text x="200.1" y="60.2" font-size="9" fill="#333">S0TL</text><circle cx="195.1" cy="65.2" r="4.4756394096681715" fill="#666" fill-opacity="0.55"/><circle cx="45.2" cy="141.5" r="5.003464560293466" fill="#b4542a" fill-opacity="0.55"/><text x="50.2" y="136.5" font-size="9" fill="#333">ENGL</text><circle cx="45.2" cy="141.5" r="5.003464560293466" fill="#b4542a" fill-opacity="0.55"/><circle cx="78.8" cy="141.5" r="9" fill="#b4542a" fill-opacity="0.55"/><text x="83.8" y="136.5" font-size="9" fill="#333">CGE</text><circle cx="127.9" cy="107.1" r="2.5" fill="#b4542a" fill-opacity="0.55"/><text x="132.9" y="102.1" font-size="9" fill="#333">MNTTL</text><circle cx="127.9" cy="107.1" r="2.5" fill="#b4542a" fill-opacity="0.55"/><circle cx="127.9" cy="175.9" r="2.5" fill="#b4542a" fill-opacity="0.55"/><text x="132.9" y="170.9" font-size="9" fill="#333">MNTBL</text><circle cx="127.9" cy="175.9" r="2.5" fill="#b4542a" fill-opacity="0.55"/><circle cx="1117.5" cy="150.5" r="3.1757154020443137" fill="#666" fill-opacity="0.55"/><text x="1122.5" y="145.5" font-size="9" fill="#333">TW</text><circle cx="175.5" cy="220.4" r="5.503116208113363" fill="#666" fill-opacity="0.55"/><text x="180.5" y="215.4" font-size="9" fill="#333">VSNL</text><circle cx="175.5" cy="220.4" r="5.503116208113363" fill="#666" fill-opacity="0.55"/><text x="20" y="285.6369298385234" font-size="11" fill="#222">plan (z across)</text><line x1="195.1" y1="362.6" x2="195.1" y2="477.6" stroke="#c9c9c9" stroke-width="1"/><line x1="195.1" y1="362.6" x2="195.1" y2="477.6" stroke="#c9c9c9" stroke-width="1"/><line x1="195.1" y1="362.6" x2="195.1" y2="362.6" stroke="#c9c9c9" stroke-width="1"/><line x1="195.1" y1="477.6" x2="195.1" y2="477.6" stroke="#c9c9c9" stroke-width="1"/><line x1="195.1" y1="362.6" x2="195.1" y2="477.6" stroke="#c9c9c9" stroke-width="1"/><line x1="195.1" y1="477.6" x2="195.1" y2="362.6" stroke="#c9c9c9" stroke-width="1"/><line x1="45.2" y1="385.7" x2="45.2" y2="454.5" stroke="#b4542a" stroke-width="2.2"/><line x1="78.8" y1="420.1" x2="45.2" y2="385.7" stroke="#b4542a" stroke-width="2.2"/><line x1="78.8" y1="420.1" x2="45.2" y2="454.5" stroke="#b4542a" stroke-width="2.2"/><line x1="127.9" y1="385.7" x2="78.8" y2="420.1" stroke="#7a3fb0" stroke-width="2.2"/><line x1="127.9" y1="454.5" x2="78.8" y2="420.1" stroke="#7a3fb0" stroke-width="2.2"/><line x1="127.9" y1="385.7" x2="78.8" y2="420.1" stroke="#7a3fb0" stroke-width="2.2"/><line x1="127.9" y1="454.5" x2="78.8" y2="420.1" stroke="#7a3fb0" stroke-width="2.2"/><line x1="127.9" y1="385.7" x2="45.2" y2="385.7" stroke="#7a3fb0" stroke-width="2.2"/><line x1="127.9" y1="385.7" x2="45.2" y2="385.7" stroke="#7a3fb0" stroke-width="2.2"/><line x1="127.9" y1="454.5" x2="45.2" y2="454.5" stroke="#7a3fb0" stroke-width="2.2"/><line x1="127.9" y1="454.5" x2="45.2" y2="454.5" stroke="#7a3fb0" stroke-width="2.2"/><line x1="127.9" y1="385.7" x2="195.1" y2="362.6" stroke="#1f6fb2" stroke-width="2.2"/><line x1="127.9" y1="385.7" x2="195.1" y2="362.6" stroke="#1f6fb2" stroke-width="2.2"/><line x1="127.9" y1="385.7" x2="195.1" y2="477.6" stroke="#1f6fb2" stroke-width="2.2"/><line x1="127.9" y1="454.5" x2="195.1" y2="477.6" stroke="#1f6fb2" stroke-width="2.2"/><line x1="127.9" y1="454.5" x2="195.1" y2="477.6" stroke="#1f6fb2" stroke-width="2.2"/><line x1="127.9" y1="454.5" x2="195.1" y2="362.6" stroke="#1f6fb2" stroke-width="2.2"/><line x1="127.9" y1="385.7" x2="195.1" y2="362.6" stroke="#1f6fb2" stroke-width="2.2"/><line x1="127.9" y1="385.7" x2="195.1" y2="477.6" stroke="#1f6fb2" stroke-width="2.2"/><line x1="127.9" y1="385.7" x2="195.1" y2="362.6" stroke="#1f6fb2" stroke-width="2.2"/><line x1="127.9" y1="454.5" x2="195.1" y2="477.6" stroke="#1f6fb2" stroke-width="2.2"/><line x1="127.9" y1="454.5" x2="195.1" y2="362.6" stroke="#1f6fb2" stroke-width="2.2"/><line x1="127.9" y1="454.5" x2="195.1" y2="477.6" stroke="#1f6fb2" stroke-width="2.2"/><circle cx="195.1" cy="362.6" r="7.488784818788645" fill="#666" fill-opacity="0.55"/><text x="200.1" y="357.6" font-size="9" fill="#333">S0BL</text><circle cx="195.1" cy="477.6" r="7.488784818788645" fill="#666" fill-opacity="0.55"/><circle cx="195.1" cy="362.6" r="4.4756394096681715" fill="#666" fill-opacity="0.55"/><text x="200.1" y="357.6" font-size="9" fill="#333">S0TL</text><circle cx="195.1" cy="477.6" r="4.4756394096681715" fill="#666" fill-opacity="0.55"/><circle cx="45.2" cy="385.7" r="5.003464560293466" fill="#b4542a" fill-opacity="0.55"/><text x="50.2" y="380.7" font-size="9" fill="#333">ENGL</text><circle cx="45.2" cy="454.5" r="5.003464560293466" fill="#b4542a" fill-opacity="0.55"/><circle cx="78.8" cy="420.1" r="9" fill="#b4542a" fill-opacity="0.55"/><text x="83.8" y="415.1" font-size="9" fill="#333">CGE</text><circle cx="127.9" cy="385.7" r="2.5" fill="#b4542a" fill-opacity="0.55"/><text x="132.9" y="380.7" font-size="9" fill="#333">MNTTL</text><circle cx="127.9" cy="454.5" r="2.5" fill="#b4542a" fill-opacity="0.55"/><circle cx="127.9" cy="385.7" r="2.5" fill="#b4542a" fill-opacity="0.55"/><text x="132.9" y="380.7" font-size="9" fill="#333">MNTBL</text><circle cx="127.9" cy="454.5" r="2.5" fill="#b4542a" fill-opacity="0.55"/><circle cx="1117.5" cy="420.1" r="3.1757154020443137" fill="#666" fill-opacity="0.55"/><text x="1122.5" y="415.1" font-size="9" fill="#333">TW</text><circle cx="175.5" cy="362.6" r="5.503116208113363" fill="#666" fill-opacity="0.55"/><text x="180.5" y="357.6" font-size="9" fill="#333">VSNL</text><circle cx="175.5" cy="477.6" r="5.503116208113363" fill="#666" fill-opacity="0.55"/><rect x="20" y="566.5496482814165" width="12" height="4" fill="#b4542a"/><text x="36" y="572.5496482814165" font-size="10">case</text><rect x="110" y="566.5496482814165" width="12" height="4" fill="#7a3fb0"/><text x="126" y="572.5496482814165" font-size="10">iso</text><rect x="200" y="566.5496482814165" width="12" height="4" fill="#1f6fb2"/><text x="216" y="572.5496482814165" font-size="10">bearer</text><rect x="290" y="566.5496482814165" width="12" height="4" fill="#14857a"/><text x="306" y="572.5496482814165" font-size="10">ring</text><rect x="380" y="566.5496482814165" width="12" height="4" fill="#4a4a4a"/><text x="396" y="572.5496482814165" font-size="10">nose leg</text><rect x="470" y="566.5496482814165" width="12" height="4" fill="#c9c9c9"/><text x="486" y="572.5496482814165" font-size="10">firewall</text></svg>